<?xml version="1.0" standalone="no"?>
<!DOCTYPE svg PUBLIC "-//W3C//DTD SVG 1.1//EN" "http://www.w3.org/Graphics/SVG/1.1/DTD/svg11.dtd" >
<svg>
<metadata>
Created by FontForge 20090914 at Fri Aug 20 13:35:33 2021
 By www-data
Copyright 2020 The Inter Project Authors (https://github.com/rsms/inter)
</metadata>
<defs>
<font id="Inter-Bold" horiz-adv-x="0" >
  <font-face 
    font-family="Inter"
    font-weight="700"
    font-stretch="normal"
    units-per-em="2816"
    panose-1="2 11 5 2 3 0 0 0 0 4"
    ascent="2252"
    descent="-564"
    x-height="1536"
    cap-height="2048"
    bbox="-2234 -900.005 7274 3272"
    underline-thickness="192"
    underline-position="-368"
    unicode-range="U+0020-U+1F852"
  />
<missing-glyph horiz-adv-x="2956" 
d="M291 -640v512h2374v-512h-2374zM291 1472v512h2374v-512h-2374zM291 2176v512h2374v-512h-2374zM291 64v512h2374v-512h-2374zM291 768v512h2374v-512h-2374z" />
    <glyph glyph-name="uni2295" unicode="&#x2b;&#x20dd;" horiz-adv-x="3912" 
d="M1777 312v1416h358v-1416h-358zM1248 841v358h1416v-358h-1416zM1956 -900c-212.667 0 -415.167 32.334 -607.5 97.001s-368.666 155.834 -528.999 273.501s-299.333 256.667 -417 417s-208.834 336.666 -273.501 528.999s-97 394.833 -97 607.5s32.333 415.167 97 607.5
s155.834 368.666 273.501 528.999s256.667 299.333 417 417s336.666 208.834 528.999 273.5c192.333 64.667 394.833 97 607.5 97s415.167 -32.333 607.5 -97s368.666 -155.834 529 -273.501c160.333 -117.667 299.333 -256.667 417 -417s208.834 -336.666 273.5 -528.999
c64.667 -192.333 97 -394.833 97 -607.5s-32.333 -415.167 -97 -607.5s-155.834 -368.666 -273.5 -528.999c-117.667 -160.333 -256.667 -299.333 -417 -417s-336.666 -208.834 -529 -273.501c-192.333 -64.667 -394.833 -97 -607.5 -97zM1956 -614.999
c181.333 0 353.833 27.501 517.5 82.501s313.834 132.667 450.5 233c136.667 100.333 255.167 218.833 355.5 355.5s178 287 233 451s82.5 336.333 82.5 517c0 181.333 -27.5 353.833 -82.5 517.5s-132.667 313.834 -233 450.501s-218.833 255.167 -355.5 355.5
s-286.834 178 -450.5 233c-163.667 55 -336.167 82.5 -517.5 82.5s-354 -27.5 -518 -82.5s-314.167 -132.667 -450.5 -233s-254.666 -218.833 -354.999 -355.5s-178 -286.834 -233 -450.501s-82.5 -336.167 -82.5 -517.5s27.5 -353.833 82.5 -517.5
s132.667 -313.834 233 -450.501s218.666 -255.167 354.999 -355.5s286.5 -178 450.5 -233s336.667 -82.5 518 -82.5z" />
    <glyph glyph-name="uni2296" unicode="&#x20dd;&#x2212;" horiz-adv-x="3912" 
d="M2656 1203v-358h-1400v358h1400zM1956 -900c-212.667 0 -415.167 32.334 -607.5 97.001s-368.666 155.834 -528.999 273.501s-299.333 256.667 -417 417s-208.834 336.666 -273.501 528.999s-97 394.833 -97 607.5s32.333 415.167 97 607.5
s155.834 368.666 273.501 528.999s256.667 299.333 417 417s336.666 208.834 528.999 273.5c192.333 64.667 394.833 97 607.5 97s415.167 -32.333 607.5 -97s368.666 -155.834 529 -273.501c160.333 -117.667 299.333 -256.667 417 -417s208.834 -336.666 273.5 -528.999
c64.667 -192.333 97 -394.833 97 -607.5s-32.333 -415.167 -97 -607.5s-155.834 -368.666 -273.5 -528.999c-117.667 -160.333 -256.667 -299.333 -417 -417s-336.666 -208.834 -529 -273.501c-192.333 -64.667 -394.833 -97 -607.5 -97zM1956 -614.999
c181.333 0 353.833 27.501 517.5 82.501s313.834 132.667 450.5 233c136.667 100.333 255.167 218.833 355.5 355.5s178 287 233 451s82.5 336.333 82.5 517c0 181.333 -27.5 353.833 -82.5 517.5s-132.667 313.834 -233 450.501s-218.833 255.167 -355.5 355.5
s-286.834 178 -450.5 233c-163.667 55 -336.167 82.5 -517.5 82.5s-354 -27.5 -518 -82.5s-314.167 -132.667 -450.5 -233s-254.666 -218.833 -354.999 -355.5s-178 -286.834 -233 -450.501s-82.5 -336.167 -82.5 -517.5s27.5 -353.833 82.5 -517.5
s132.667 -313.834 233 -450.501s218.666 -255.167 354.999 -355.5s286.5 -178 450.5 -233s336.667 -82.5 518 -82.5z" />
    <glyph glyph-name="uni2297" unicode="&#xd7;&#x20dd;" horiz-adv-x="3912" 
d="M2422 284l-1195 1193l262 265l1196 -1195zM1489 284l-262 263l1195 1195l263 -265zM1956 -900c-212.667 0 -415.167 32.334 -607.5 97.001s-368.666 155.834 -528.999 273.501s-299.333 256.667 -417 417s-208.834 336.666 -273.501 528.999s-97 394.833 -97 607.5
s32.333 415.167 97 607.5s155.834 368.666 273.501 528.999s256.667 299.333 417 417s336.666 208.834 528.999 273.5c192.333 64.667 394.833 97 607.5 97s415.167 -32.333 607.5 -97s368.666 -155.834 529 -273.501c160.333 -117.667 299.333 -256.667 417 -417
s208.834 -336.666 273.5 -528.999c64.667 -192.333 97 -394.833 97 -607.5s-32.333 -415.167 -97 -607.5s-155.834 -368.666 -273.5 -528.999c-117.667 -160.333 -256.667 -299.333 -417 -417s-336.666 -208.834 -529 -273.501c-192.333 -64.667 -394.833 -97 -607.5 -97z
M1956 -614.999c181.333 0 353.833 27.501 517.5 82.501s313.834 132.667 450.5 233c136.667 100.333 255.167 218.833 355.5 355.5s178 287 233 451s82.5 336.333 82.5 517c0 181.333 -27.5 353.833 -82.5 517.5s-132.667 313.834 -233 450.501
s-218.833 255.167 -355.5 355.5s-286.834 178 -450.5 233c-163.667 55 -336.167 82.5 -517.5 82.5s-354 -27.5 -518 -82.5s-314.167 -132.667 -450.5 -233s-254.666 -218.833 -354.999 -355.5s-178 -286.834 -233 -450.501s-82.5 -336.167 -82.5 -517.5
s27.5 -353.833 82.5 -517.5s132.667 -313.834 233 -450.501s218.666 -255.167 354.999 -355.5s286.5 -178 450.5 -233s336.667 -82.5 518 -82.5z" />
    <glyph glyph-name="uni2460" unicode="&#x31;&#x20dd;" horiz-adv-x="3912" 
d="M2224 2048v-2048h-433v1637h-12l-469 -294v384l507 321h407zM1956 -900c-212.667 0 -415.167 32.334 -607.5 97.001s-368.666 155.834 -528.999 273.501s-299.333 256.667 -417 417s-208.834 336.666 -273.501 528.999s-97 394.833 -97 607.5s32.333 415.167 97 607.5
s155.834 368.666 273.501 528.999s256.667 299.333 417 417s336.666 208.834 528.999 273.5c192.333 64.667 394.833 97 607.5 97s415.167 -32.333 607.5 -97s368.666 -155.834 529 -273.501c160.333 -117.667 299.333 -256.667 417 -417s208.834 -336.666 273.5 -528.999
c64.667 -192.333 97 -394.833 97 -607.5s-32.333 -415.167 -97 -607.5s-155.834 -368.666 -273.5 -528.999c-117.667 -160.333 -256.667 -299.333 -417 -417s-336.666 -208.834 -529 -273.501c-192.333 -64.667 -394.833 -97 -607.5 -97zM1956 -614.999
c181.333 0 353.833 27.501 517.5 82.501s313.834 132.667 450.5 233c136.667 100.333 255.167 218.833 355.5 355.5s178 287 233 451s82.5 336.333 82.5 517c0 181.333 -27.5 353.833 -82.5 517.5s-132.667 313.834 -233 450.501s-218.833 255.167 -355.5 355.5
s-286.834 178 -450.5 233c-163.667 55 -336.167 82.5 -517.5 82.5s-354 -27.5 -518 -82.5s-314.167 -132.667 -450.5 -233s-254.666 -218.833 -354.999 -355.5s-178 -286.834 -233 -450.501s-82.5 -336.167 -82.5 -517.5s27.5 -353.833 82.5 -517.5
s132.667 -313.834 233 -450.501s218.666 -255.167 354.999 -355.5s286.5 -178 450.5 -233s336.667 -82.5 518 -82.5z" />
    <glyph glyph-name="uni2461" unicode="&#x32;&#x20dd;" horiz-adv-x="3912" 
d="M1238 0v311.996l729 675c62 60 114.167 114 156.5 162s74.5 95.167 96.5 141.5s33 96.5 33 150.5c0 60 -13.667 111.833 -41 155.5s-64.666 77.334 -111.999 101.001s-101 35.5 -161 35.5c-62.667 0 -117.334 -12.667 -164.001 -38s-82.667 -61.666 -108 -108.999
s-38 -103.666 -38 -168.999h-411c0 134 30.333 250.333 91 349s145.667 175 255 229s235.333 81 378 81c146.667 0 274.5 -25.833 383.5 -77.5s193.833 -123.167 254.5 -214.5s91 -196 91 -314c0 -77.333 -15.167 -153.666 -45.5 -228.999s-84.166 -158.833 -161.5 -250.5
c-77.333 -91.667 -186.333 -201.5 -327 -329.5l-299 -293v-14h860v-354h-1460zM1956 -900.004c-212.667 0 -415.167 32.334 -607.5 97.001s-368.666 155.834 -528.999 273.501s-299.333 256.667 -417 417s-208.834 336.666 -273.501 528.999s-97 394.833 -97 607.5
s32.333 415.167 97 607.5s155.834 368.666 273.501 528.999s256.667 299.333 417 417s336.666 208.834 528.999 273.5c192.333 64.667 394.833 97 607.5 97s415.167 -32.333 607.5 -97s368.666 -155.834 529 -273.501c160.333 -117.667 299.333 -256.667 417 -417
s208.834 -336.666 273.5 -528.999c64.667 -192.333 97 -394.833 97 -607.5s-32.333 -415.167 -97 -607.5s-155.834 -368.666 -273.5 -528.999c-117.667 -160.333 -256.667 -299.333 -417 -417s-336.666 -208.834 -529 -273.501c-192.333 -64.667 -394.833 -97 -607.5 -97z
M1956 -615.003c181.333 0 353.833 27.501 517.5 82.501s313.834 132.667 450.5 233c136.667 100.333 255.167 218.833 355.5 355.5s178 287 233 451s82.5 336.333 82.5 517c0 181.333 -27.5 353.833 -82.5 517.5s-132.667 313.834 -233 450.501
s-218.833 255.167 -355.5 355.5s-286.834 178 -450.5 233c-163.667 55 -336.167 82.5 -517.5 82.5s-354 -27.5 -518 -82.5s-314.167 -132.667 -450.5 -233s-254.666 -218.833 -354.999 -355.5s-178 -286.834 -233 -450.501s-82.5 -336.167 -82.5 -517.5
s27.5 -353.833 82.5 -517.5s132.667 -313.834 233 -450.501s218.666 -255.167 354.999 -355.5s286.5 -178 450.5 -233s336.667 -82.5 518 -82.5z" />
    <glyph glyph-name="uni2462" unicode="&#x33;&#x20dd;" horiz-adv-x="3912" 
d="M1951 -28c-149.333 0 -282.167 25.8379 -398.5 77.5049s-208 123 -275 214s-101.5 196.167 -103.5 315.5h436c2.66699 -50 19.167 -93.833 49.5 -131.5s70.833 -66.834 121.5 -87.501s107.667 -31 171 -31c66 0 124.333 11.667 175 35s90.334 55.666 119 96.999
c28.667 41.333 43 89 43 143c0 54.667 -15.167 103.167 -45.5 145.5s-73.666 75.5 -129.999 99.5s-123.166 36 -200.499 36h-191v318h191c65.333 0 123.166 11.333 173.499 34s89.5 54.167 117.5 94.5s42 87.5 42 141.5c0 51.333 -12.167 96.5 -36.5 135.5
s-58.333 69.5 -102 91.5s-94.5 33 -152.5 33c-58.667 0 -112.334 -10.5 -161.001 -31.5s-87.667 -50.833 -117 -89.5s-45 -84 -47 -136h-415c2 118 35.667 222 101 312s153.5 160.5 264.5 211.5s236.5 76.5 376.5 76.5c141.333 0 265 -25.667 371 -77
s188.5 -120.5 247.5 -207.5s88.167 -184.5 87.5 -292.5c0.666992 -114.667 -34.833 -210.334 -106.5 -287.001s-164.834 -125.334 -279.5 -146.001v-16c150.667 -19.333 265.5 -71.5 344.5 -156.5s118.167 -191.167 117.5 -318.5
c0.666992 -116.667 -32.833 -220.334 -100.5 -311.001s-160.834 -162 -279.5 -214c-118.667 -52 -254.667 -78 -408 -78zM1956 -899.995c-212.667 0 -415.168 32.333 -607.501 97s-368.666 155.834 -528.999 273.501s-299.333 256.667 -417 417
s-208.834 336.666 -273.501 528.999s-97 394.833 -97 607.5s32.333 415.167 97 607.5s155.834 368.666 273.501 528.999s256.667 299.333 417 417s336.666 208.834 528.999 273.5c192.333 64.667 394.833 97 607.5 97s415.167 -32.333 607.5 -97
s368.666 -155.834 529 -273.5c160.333 -117.667 299.333 -256.667 417 -417s208.834 -336.666 273.5 -528.999c64.667 -192.333 97 -394.833 97 -607.5s-32.333 -415.167 -97 -607.5s-155.834 -368.666 -273.5 -528.999c-117.667 -160.333 -256.667 -299.333 -417 -417
s-336.666 -208.834 -528.999 -273.501s-394.833 -97 -607.5 -97zM1956 -614.995c181.333 0 353.833 27.501 517.5 82.501s313.834 132.667 450.5 233c136.667 100.333 255.167 218.833 355.5 355.5s178 287 233 451s82.5 336.333 82.5 517
c0 181.333 -27.5 353.833 -82.5 517.5s-132.667 313.834 -233 450.501s-218.833 255.167 -355.5 355.5s-286.834 178 -450.5 233c-163.667 55 -336.167 82.5 -517.5 82.5s-354 -27.5 -518 -82.5s-314.167 -132.667 -450.5 -233s-254.666 -218.833 -354.999 -355.5
s-178 -286.834 -233 -450.501s-82.5 -336.167 -82.5 -517.5s27.5 -353.833 82.5 -517.5s132.667 -313.834 233 -450.501s218.666 -255.167 354.999 -355.5s286.5 -178 450.5 -233s336.667 -82.5 518 -82.5z" />
    <glyph glyph-name="uni2463" unicode="&#x34;&#x20dd;" horiz-adv-x="3912" 
d="M1023 360v341l855 1347h294v-472h-174l-539 -853v-16h1215v-347h-1651zM2006 0v464l8 151v1433h406v-2048h-414zM1956 -900c-212.667 0 -415.167 32.334 -607.5 97.001s-368.666 155.834 -528.999 273.501s-299.333 256.667 -417 417s-208.834 336.666 -273.501 528.999
s-97 394.833 -97 607.5s32.333 415.167 97 607.5s155.834 368.666 273.501 528.999s256.667 299.333 417 417s336.666 208.834 528.999 273.5c192.333 64.667 394.833 97 607.5 97s415.167 -32.333 607.5 -97s368.666 -155.834 529 -273.501
c160.333 -117.667 299.333 -256.667 417 -417s208.834 -336.666 273.5 -528.999c64.667 -192.333 97 -394.833 97 -607.5s-32.333 -415.167 -97 -607.5s-155.834 -368.666 -273.5 -528.999c-117.667 -160.333 -256.667 -299.333 -417 -417s-336.666 -208.834 -529 -273.501
c-192.333 -64.667 -394.833 -97 -607.5 -97zM1956 -614.999c181.333 0 353.833 27.501 517.5 82.501s313.834 132.667 450.5 233c136.667 100.333 255.167 218.833 355.5 355.5s178 287 233 451s82.5 336.333 82.5 517c0 181.333 -27.5 353.833 -82.5 517.5
s-132.667 313.834 -233 450.501s-218.833 255.167 -355.5 355.5s-286.834 178 -450.5 233c-163.667 55 -336.167 82.5 -517.5 82.5s-354 -27.5 -518 -82.5s-314.167 -132.667 -450.5 -233s-254.666 -218.833 -354.999 -355.5s-178 -286.834 -233 -450.501
s-82.5 -336.167 -82.5 -517.5s27.5 -353.833 82.5 -517.5s132.667 -313.834 233 -450.501s218.666 -255.167 354.999 -355.5s286.5 -178 450.5 -233s336.667 -82.5 518 -82.5z" />
    <glyph glyph-name="uni2464" unicode="&#x35;&#x20dd;" horiz-adv-x="3912" 
d="M1944 -28c-141.333 0 -267.168 25.999 -377.501 77.999s-197.833 123.667 -262.5 215s-98.334 196 -101.001 314h420c4.66699 -79.333 38 -143.666 100 -192.999s135.667 -74 221 -74c68 0 128.167 15.167 180.5 45.5s93.333 72.666 123 126.999s44.5 116.833 44.5 187.5
c0 72 -15.167 135.333 -45.5 190s-72.166 97.334 -125.499 128.001s-114.333 46.334 -183 47.001c-60 0 -118.167 -12.333 -174.5 -37s-100.166 -58.334 -131.499 -101.001l-385 69l97 1080h1252v-354h-895l-53 -513h12c36 50.667 90.333 92.667 163 126s154 50 244 50
c123.333 0 233.333 -29 330 -87s173 -137.5 229 -238.5s83.667 -217.167 83 -348.5c0.666992 -138 -31.166 -260.5 -95.5 -367.5c-64.333 -107 -154 -191 -269 -252s-248.5 -91.5 -400.5 -91.5zM1956 -900.001c-212.667 0 -415.167 32.333 -607.5 97
s-368.666 155.834 -528.999 273.501s-299.333 256.667 -417 417s-208.834 336.666 -273.501 528.999s-97 394.833 -97 607.5s32.333 415.167 97 607.5s155.834 368.666 273.501 528.999s256.667 299.333 417 417s336.666 208.834 528.999 273.5
c192.333 64.667 394.833 97 607.5 97s415.167 -32.333 607.5 -97s368.666 -155.834 529 -273.5c160.333 -117.667 299.333 -256.667 417 -417s208.834 -336.666 273.5 -528.999c64.667 -192.333 97 -394.833 97 -607.5s-32.333 -415.167 -97 -607.5
s-155.834 -368.666 -273.5 -528.999c-117.667 -160.333 -256.667 -299.333 -417 -417s-336.666 -208.834 -529 -273.501c-192.333 -64.667 -394.833 -97 -607.5 -97zM1956 -615.001c181.333 0 353.833 27.501 517.5 82.501s313.834 132.667 450.5 233
c136.667 100.333 255.167 218.833 355.5 355.5s178 287 233 451s82.5 336.333 82.5 517c0 181.333 -27.5 353.833 -82.5 517.5s-132.667 313.834 -233 450.501s-218.833 255.167 -355.5 355.5s-286.834 178 -450.5 233c-163.667 55 -336.167 82.5 -517.5 82.5
s-354 -27.5 -518 -82.5s-314.167 -132.667 -450.5 -233s-254.666 -218.833 -354.999 -355.5s-178 -286.834 -233 -450.501s-82.5 -336.167 -82.5 -517.5s27.5 -353.833 82.5 -517.5s132.667 -313.834 233 -450.501s218.666 -255.167 354.999 -355.5s286.5 -178 450.5 -233
s336.667 -82.5 518 -82.5z" />
    <glyph glyph-name="uni2465" unicode="&#x36;&#x20dd;" horiz-adv-x="3912" 
d="M1970 -28c-105.333 0.666992 -206.833 18.332 -304.5 52.999s-185 91 -262 169s-138 181.333 -183 310s-67.833 286.667 -68.5 474c0.666992 173.333 20.5 328.333 59.5 465s95 252.5 168 347.5s160.5 167.333 262.5 217s216.333 74.5 343 74.5
c136.667 0 257.334 -26.667 362 -80c104.667 -53.333 188.834 -125.666 252.5 -216.999c63.667 -91.333 102.167 -194.333 115.5 -309h-427c-16.667 74.667 -51.667 132.5 -105 173.5s-119.333 61.5 -198 61.5c-133.333 0 -234.5 -58.167 -303.5 -174.5
s-104.167 -275.833 -105.5 -478.5h14c30.667 60.667 72.167 112.5 124.5 155.5s112 76 179 99s137.833 34.5 212.5 34.5c121.333 0 229.333 -28.5 324 -85.5s169.334 -135.167 224 -234.5c54.667 -99.333 82 -213 82 -341c0 -138.667 -32.167 -262 -96.5 -370
s-154 -192.5 -269 -253.5s-248.5 -91.167 -400.5 -90.5zM1968 311.998c66.667 0 126.334 16.001 179.001 48.001s94 75.333 124 130s45 116 45 184s-14.833 129 -44.5 183s-70.5 97 -122.5 129s-111.333 48 -178 48c-50 0 -96.167 -9.33301 -138.5 -28
s-79.333 -44.667 -111 -78s-56.5 -71.833 -74.5 -115.5s-27 -90.167 -27 -139.5c0 -66 15.167 -126.333 45.5 -181s71.666 -98.334 123.999 -131.001s111.833 -49 178.5 -49zM1956 -900.001c-212.667 0 -415.167 32.333 -607.5 97s-368.666 155.834 -528.999 273.501
s-299.333 256.667 -417 417s-208.834 336.666 -273.501 528.999s-97 394.833 -97 607.5s32.333 415.167 97 607.5s155.834 368.666 273.501 528.999s256.667 299.333 417 417s336.666 208.834 528.999 273.5c192.333 64.667 394.833 97 607.5 97s415.167 -32.333 607.5 -97
s368.666 -155.834 529 -273.5c160.333 -117.667 299.333 -256.667 417 -417s208.834 -336.666 273.5 -528.999c64.667 -192.333 97 -394.833 97 -607.5s-32.333 -415.167 -97 -607.5s-155.834 -368.666 -273.5 -528.999c-117.667 -160.333 -256.667 -299.333 -417 -417
s-336.666 -208.834 -529 -273.501c-192.333 -64.667 -394.833 -97 -607.5 -97zM1956 -615.001c181.333 0 353.833 27.501 517.5 82.501s313.834 132.667 450.5 233c136.667 100.333 255.167 218.833 355.5 355.5s178 287 233 451s82.5 336.333 82.5 517
c0 181.333 -27.5 353.833 -82.5 517.5s-132.667 313.834 -233 450.501s-218.833 255.167 -355.5 355.5s-286.834 178 -450.5 233c-163.667 55 -336.167 82.5 -517.5 82.5s-354 -27.5 -518 -82.5s-314.167 -132.667 -450.5 -233s-254.666 -218.833 -354.999 -355.5
s-178 -286.834 -233 -450.501s-82.5 -336.167 -82.5 -517.5s27.5 -353.833 82.5 -517.5s132.667 -313.834 233 -450.501s218.666 -255.167 354.999 -355.5s286.5 -178 450.5 -233s336.667 -82.5 518 -82.5z" />
    <glyph glyph-name="uni2466" unicode="&#x37;&#x20dd;" horiz-adv-x="3912" 
d="M1424 0l849 1680v14h-989v354h1437v-359l-850 -1689h-447zM1956 -900c-212.667 0 -415.167 32.334 -607.5 97.001s-368.666 155.834 -528.999 273.501s-299.333 256.667 -417 417s-208.834 336.666 -273.501 528.999s-97 394.833 -97 607.5s32.333 415.167 97 607.5
s155.834 368.666 273.501 528.999s256.667 299.333 417 417s336.666 208.834 528.999 273.5c192.333 64.667 394.833 97 607.5 97s415.167 -32.333 607.5 -97s368.666 -155.834 529 -273.501c160.333 -117.667 299.333 -256.667 417 -417s208.834 -336.666 273.5 -528.999
c64.667 -192.333 97 -394.833 97 -607.5s-32.333 -415.167 -97 -607.5s-155.834 -368.666 -273.5 -528.999c-117.667 -160.333 -256.667 -299.333 -417 -417s-336.666 -208.834 -529 -273.501c-192.333 -64.667 -394.833 -97 -607.5 -97zM1956 -614.999
c181.333 0 353.833 27.501 517.5 82.501s313.834 132.667 450.5 233c136.667 100.333 255.167 218.833 355.5 355.5s178 287 233 451s82.5 336.333 82.5 517c0 181.333 -27.5 353.833 -82.5 517.5s-132.667 313.834 -233 450.501s-218.833 255.167 -355.5 355.5
s-286.834 178 -450.5 233c-163.667 55 -336.167 82.5 -517.5 82.5s-354 -27.5 -518 -82.5s-314.167 -132.667 -450.5 -233s-254.666 -218.833 -354.999 -355.5s-178 -286.834 -233 -450.501s-82.5 -336.167 -82.5 -517.5s27.5 -353.833 82.5 -517.5
s132.667 -313.834 233 -450.501s218.666 -255.167 354.999 -355.5s286.5 -178 450.5 -233s336.667 -82.5 518 -82.5z" />
    <glyph glyph-name="uni2467" unicode="&#x38;&#x20dd;" horiz-adv-x="3912" 
d="M1956 -28c-154 0 -290.832 25.167 -410.499 75.5s-213.5 119.166 -281.5 206.499s-102 186.333 -102 297c0 85.333 19.5 163.833 58.5 235.5s92.167 131.334 159.5 179.001s142.666 78.167 225.999 91.5v14c-109.333 22 -198 75.167 -266 159.5s-102 182.5 -102 294.5
c0 106 31 200.5 93 283.5s147.167 148.333 255.5 196s231.5 71.5 369.5 71.5s261.167 -24 369.5 -72s193.5 -113.5 255.5 -196.5s93.333 -177.167 94 -282.5c-0.666992 -112.667 -35.334 -211 -104 -295c-68.667 -84 -156.667 -137 -264 -159v-14
c82 -13.333 156.5 -43.833 223.5 -91.5s120.333 -107.334 160 -179.001s59.834 -150.167 60.5 -235.5c-0.666992 -110.667 -35 -209.667 -103 -297s-161.833 -156.166 -281.5 -206.499s-256.5 -75.5 -410.5 -75.5zM1956 290c68.667 0 128.667 12.5 180 37.5
s91.5 59.667 120.5 104s43.5 95.5 43.5 153.5c0 59.333 -15 111.833 -45 157.5s-70.667 81.667 -122 108s-110.333 39.5 -177 39.5c-66 0 -125 -13.167 -177 -39.5s-92.833 -62.333 -122.5 -108s-44.5 -98.167 -44.5 -157.5c0 -58 14.333 -109.167 43 -153.5
s69 -79 121 -104s112 -37.5 180 -37.5zM1956 1205c57.333 0 108.333 11.667 153 35s79.667 55.666 105 96.999s38 89 38 143c0 53.333 -12.667 100.166 -38 140.499s-60 72 -104 95s-95.333 34.5 -154 34.5c-58 0 -109.333 -11.5 -154 -34.5s-79.5 -54.667 -104.5 -95
s-37.5 -87.166 -37.5 -140.499c0 -54 12.667 -101.667 38 -143s60.333 -73.666 105 -96.999s95.667 -35 153 -35zM1956 -900c-212.667 0 -415.168 32.334 -607.501 97.001s-368.666 155.834 -528.999 273.501s-299.333 256.667 -417 417s-208.834 336.666 -273.501 528.999
s-97 394.833 -97 607.5s32.333 415.167 97 607.5s155.834 368.666 273.501 528.999s256.667 299.333 417 417s336.666 208.834 528.999 273.5c192.333 64.667 394.833 97 607.5 97s415.167 -32.333 607.5 -97s368.666 -155.834 529 -273.501
c160.333 -117.667 299.333 -256.667 417 -417s208.834 -336.666 273.5 -528.999c64.667 -192.333 97 -394.833 97 -607.5s-32.333 -415.167 -97 -607.5s-155.834 -368.666 -273.5 -528.999c-117.667 -160.333 -256.667 -299.333 -417 -417
s-336.666 -208.834 -528.999 -273.501s-394.833 -97 -607.5 -97zM1956 -614.999c181.333 0 353.833 27.501 517.5 82.501s313.834 132.667 450.5 233c136.667 100.333 255.167 218.833 355.5 355.5s178 287 233 451s82.5 336.333 82.5 517
c0 181.333 -27.5 353.833 -82.5 517.5s-132.667 313.834 -233 450.501s-218.833 255.167 -355.5 355.5s-286.834 178 -450.5 233c-163.667 55 -336.167 82.5 -517.5 82.5s-354 -27.5 -518 -82.5s-314.167 -132.667 -450.5 -233s-254.666 -218.833 -354.999 -355.5
s-178 -286.834 -233 -450.501s-82.5 -336.167 -82.5 -517.5s27.5 -353.833 82.5 -517.5s132.667 -313.834 233 -450.501s218.666 -255.167 354.999 -355.5s286.5 -178 450.5 -233s336.667 -82.5 518 -82.5z" />
    <glyph glyph-name="uni2468" unicode="&#x39;&#x20dd;" horiz-adv-x="3912" 
d="M1937 2082c105.333 0 206.836 -17.5049 304.502 -52.5049c97.667 -35 185 -91.5 262 -169.5s138 -181.167 183 -309.5s67.833 -286.166 68.5 -473.499c-0.666992 -174 -20.5 -329.167 -59.5 -465.5s-94.833 -252.166 -167.5 -347.499s-160.167 -167.833 -262.5 -217.5
s-216.833 -74.5 -343.5 -74.5c-136.667 0 -257.334 26.5 -362.001 79.5s-188.834 125.333 -252.501 217s-102.167 194.834 -115.5 309.501h427c16.667 -74.667 51.667 -132.5 105 -173.5s119.333 -61.5 198 -61.5c133.333 0 234.666 58.167 304 174.5
c69.333 116.333 104.333 275.833 105 478.5h-14c-30.667 -60 -72 -111.5 -124 -154.5s-111.5 -76.167 -178.5 -99.5s-138.167 -35 -213.5 -35c-120.667 0 -228.5 28.333 -323.5 85s-169.833 134.834 -224.5 234.501s-81.667 213.5 -81 341.5
c-0.666992 138.667 31 261.834 95 369.501s153.5 192.167 268.5 253.5s248.833 91.666 401.5 91zM1940 1742c-67.333 0 -127.169 -16 -179.502 -48s-93.666 -75.333 -123.999 -130s-45.166 -116 -44.499 -184c-0.666992 -68 13.833 -129 43.5 -183
s70.5 -96.833 122.5 -128.5s111.333 -47.5 178 -47.5c50 0 96.167 9.33301 138.5 28s79.333 44.5 111 77.5s56.5 71.333 74.5 115s27.333 90.5 28 140.5c-0.666992 66 -16 126.333 -46 181s-71.333 98.167 -124 130.5s-112 48.5 -178 48.5zM1956 -900.005
c-212.667 0 -415.167 32.333 -607.5 97s-368.666 155.834 -528.999 273.501s-299.333 256.667 -417 417s-208.834 336.666 -273.501 528.999s-97 394.833 -97 607.5s32.333 415.167 97 607.5s155.834 368.666 273.501 528.999s256.667 299.333 417 417
s336.666 208.834 528.999 273.5c192.333 64.667 394.833 97 607.5 97s415.167 -32.333 607.5 -97s368.666 -155.834 529 -273.5c160.333 -117.667 299.333 -256.667 417 -417s208.834 -336.666 273.5 -528.999c64.667 -192.333 97 -394.833 97 -607.5
s-32.333 -415.167 -97 -607.5s-155.834 -368.666 -273.5 -528.999c-117.667 -160.333 -256.667 -299.333 -417 -417s-336.666 -208.834 -529 -273.501c-192.333 -64.667 -394.833 -97 -607.5 -97zM1956 -615.005c181.333 0 353.833 27.501 517.5 82.501
s313.834 132.667 450.5 233c136.667 100.333 255.167 218.833 355.5 355.5s178 287 233 451s82.5 336.333 82.5 517c0 181.333 -27.5 353.833 -82.5 517.5s-132.667 313.834 -233 450.501s-218.833 255.167 -355.5 355.5s-286.834 178 -450.5 233
c-163.667 55 -336.167 82.5 -517.5 82.5s-354 -27.5 -518 -82.5s-314.167 -132.667 -450.5 -233s-254.666 -218.833 -354.999 -355.5s-178 -286.834 -233 -450.501s-82.5 -336.167 -82.5 -517.5s27.5 -353.833 82.5 -517.5s132.667 -313.834 233 -450.501
s218.666 -255.167 354.999 -355.5s286.5 -178 450.5 -233s336.667 -82.5 518 -82.5z" />
    <glyph glyph-name="uni24B6" unicode="A&#x20dd;" horiz-adv-x="3912" 
d="M1434 0h-464l707 2048h558l706 -2048h-464l-513 1580h-16zM1405 805h1096v-338h-1096v338zM1956 -900c-212.667 0 -415.167 32.334 -607.5 97.001s-368.666 155.834 -528.999 273.501s-299.333 256.667 -417 417s-208.834 336.666 -273.501 528.999
s-97 394.833 -97 607.5s32.333 415.167 97 607.5s155.834 368.666 273.501 528.999s256.667 299.333 417 417s336.666 208.834 528.999 273.5c192.333 64.667 394.833 97 607.5 97s415.167 -32.333 607.5 -97s368.666 -155.834 529 -273.501
c160.333 -117.667 299.333 -256.667 417 -417s208.834 -336.666 273.5 -528.999c64.667 -192.333 97 -394.833 97 -607.5s-32.333 -415.167 -97 -607.5s-155.834 -368.666 -273.5 -528.999c-117.667 -160.333 -256.667 -299.333 -417 -417s-336.666 -208.834 -529 -273.501
c-192.333 -64.667 -394.833 -97 -607.5 -97zM1956 -614.999c181.333 0 353.833 27.501 517.5 82.501s313.834 132.667 450.5 233c136.667 100.333 255.167 218.833 355.5 355.5s178 287 233 451s82.5 336.333 82.5 517c0 181.333 -27.5 353.833 -82.5 517.5
s-132.667 313.834 -233 450.501s-218.833 255.167 -355.5 355.5s-286.834 178 -450.5 233c-163.667 55 -336.167 82.5 -517.5 82.5s-354 -27.5 -518 -82.5s-314.167 -132.667 -450.5 -233s-254.666 -218.833 -354.999 -355.5s-178 -286.834 -233 -450.501
s-82.5 -336.167 -82.5 -517.5s27.5 -353.833 82.5 -517.5s132.667 -313.834 233 -450.501s218.666 -255.167 354.999 -355.5s286.5 -178 450.5 -233s336.667 -82.5 518 -82.5z" />
    <glyph glyph-name="uni24B7" unicode="B&#x20dd;" horiz-adv-x="3912" 
d="M1246 0v2048h820c150.667 0 276.334 -22.333 377 -67c100.667 -44.667 176.334 -106.5 227 -185.5c50.667 -79 76 -169.833 76 -272.5c0 -80 -16 -150.167 -48 -210.5s-75.833 -109.666 -131.5 -147.999s-119.167 -65.5 -190.5 -81.5v-20
c78 -3.33301 151.167 -25.333 219.5 -66s123.833 -97.5 166.5 -170.5s64 -159.833 64 -260.5c0 -108.667 -26.833 -205.5 -80.5 -290.5s-132.834 -152.167 -237.5 -201.5c-104.667 -49.333 -233.667 -74 -387 -74h-875zM1679 353.999l353 0.000976562
c120.667 0 208.667 23.167 264 69.5s83 108.166 83 185.499c0 56.667 -13.667 106.667 -41 150s-66.166 77.333 -116.5 102c-50.333 24.667 -110.166 37 -179.5 37h-363v-544zM1679 1191h321c59.333 0 112.166 10.5 158.5 31.5c46.333 21 83 50.833 110 89.5
s40.5 85 40.5 139c0 74 -26.167 133.667 -78.5 179s-126.5 68 -222.5 68h-329v-507zM1956 -900c-212.667 0 -415.167 32.334 -607.5 97.001s-368.666 155.834 -528.999 273.501s-299.333 256.667 -417 417s-208.834 336.666 -273.501 528.999s-97 394.833 -97 607.5
s32.333 415.167 97 607.5s155.834 368.666 273.501 528.999s256.667 299.333 417 417s336.666 208.834 528.999 273.5c192.333 64.667 394.833 97 607.5 97s415.167 -32.333 607.5 -97s368.666 -155.834 529 -273.501c160.333 -117.667 299.333 -256.667 417 -417
s208.834 -336.666 273.5 -528.999c64.667 -192.333 97 -394.833 97 -607.5s-32.333 -415.167 -97 -607.5s-155.834 -368.666 -273.5 -528.999c-117.667 -160.333 -256.667 -299.333 -417 -417s-336.666 -208.834 -529 -273.501c-192.333 -64.667 -394.833 -97 -607.5 -97z
M1956 -614.999c181.333 0 353.833 27.501 517.5 82.501s313.834 132.667 450.5 233c136.667 100.333 255.167 218.833 355.5 355.5s178 287 233 451s82.5 336.333 82.5 517c0 181.333 -27.5 353.833 -82.5 517.5s-132.667 313.834 -233 450.501
s-218.833 255.167 -355.5 355.5s-286.834 178 -450.5 233c-163.667 55 -336.167 82.5 -517.5 82.5s-354 -27.5 -518 -82.5s-314.167 -132.667 -450.5 -233s-254.666 -218.833 -354.999 -355.5s-178 -286.834 -233 -450.501s-82.5 -336.167 -82.5 -517.5
s27.5 -353.833 82.5 -517.5s132.667 -313.834 233 -450.501s218.666 -255.167 354.999 -355.5s286.5 -178 450.5 -233s336.667 -82.5 518 -82.5z" />
    <glyph glyph-name="uni24B8" unicode="C&#x20dd;" horiz-adv-x="3912" 
d="M2878 1331l-438 -0.00292969c-8 56.667 -24.333 107.167 -49 151.5s-56.334 82.166 -95.001 113.499s-83.167 55.333 -133.5 72s-104.833 25 -163.5 25c-106 0 -198.333 -26.167 -277 -78.5s-139.667 -128.333 -183 -228s-65 -220.5 -65 -362.5
c0 -146 21.833 -268.667 65.5 -368s104.834 -174.333 183.501 -225s169.667 -76 273 -76c58 0 111.833 7.66699 161.5 23s93.834 37.833 132.5 67.5c38.667 29.667 70.834 65.834 96.5 108.501c25.667 42.667 43.5 91.334 53.5 146.001l438 -2
c-11.333 -94 -39.5 -184.5 -84.5 -271.5s-105.333 -164.667 -181 -233s-165.667 -122.333 -270 -162s-222.166 -59.5 -353.499 -59.5c-182.667 0 -345.834 41.333 -489.501 124s-257 202.334 -340 359.001s-124.5 346.334 -124.5 569.001c0 223.333 42 413.333 126 570
s198 276.167 342 358.5s306 123.5 486 123.5c118.667 0 228.834 -16.667 330.5 -50c101.667 -33.333 191.834 -81.833 270.5 -145.5c78.667 -63.667 142.834 -141.5 192.5 -233.5c49.667 -92 81.5 -197.333 95.5 -316zM1956 -900.003c-212.667 0 -415.167 32.333 -607.5 97
s-368.666 155.834 -528.999 273.501s-299.333 256.667 -417 417s-208.834 336.666 -273.501 528.999s-97 394.833 -97 607.5s32.333 415.167 97 607.5s155.834 368.666 273.501 528.999s256.667 299.333 417 417s336.666 208.834 528.999 273.5
c192.333 64.667 394.833 97 607.5 97s415.167 -32.333 607.5 -97s368.666 -155.834 529 -273.5c160.333 -117.667 299.333 -256.667 417 -417s208.834 -336.666 273.5 -528.999c64.667 -192.333 97 -394.833 97 -607.5s-32.333 -415.167 -97 -607.5
s-155.834 -368.666 -273.5 -528.999c-117.667 -160.333 -256.667 -299.333 -417 -417s-336.666 -208.834 -529 -273.501c-192.333 -64.667 -394.833 -97 -607.5 -97zM1956 -615.003c181.333 0 353.833 27.501 517.5 82.501s313.834 132.667 450.5 233
c136.667 100.333 255.167 218.833 355.5 355.5s178 287 233 451s82.5 336.333 82.5 517c0 181.333 -27.5 353.833 -82.5 517.5s-132.667 313.834 -233 450.501s-218.833 255.167 -355.5 355.5s-286.834 178 -450.5 233c-163.667 55 -336.167 82.5 -517.5 82.5
s-354 -27.5 -518 -82.5s-314.167 -132.667 -450.5 -233s-254.666 -218.833 -354.999 -355.5s-178 -286.834 -233 -450.501s-82.5 -336.167 -82.5 -517.5s27.5 -353.833 82.5 -517.5s132.667 -313.834 233 -450.501s218.666 -255.167 354.999 -355.5s286.5 -178 450.5 -233
s336.667 -82.5 518 -82.5z" />
    <glyph glyph-name="uni24B9" unicode="D&#x20dd;" horiz-adv-x="3912" 
d="M1987 0l-726 0.000976562v2048h732c206 0 383.333 -40.833 532 -122.5s263.167 -198.834 343.5 -351.501s120.5 -335.334 120.5 -548.001c0 -213.333 -40.167 -396.666 -120.5 -549.999s-195.333 -271 -345 -353s-328.5 -123 -536.5 -123zM1694 371.001h275
c128 0 235.833 22.833 323.5 68.5s153.667 116.667 198 213s66.5 220.833 66.5 373.5c0 151.333 -22.167 275 -66.5 371s-110.166 166.667 -197.5 212c-87.333 45.333 -195 68 -323 68h-276v-1306zM1956 -899.999c-212.667 0 -415.167 32.333 -607.5 97
s-368.666 155.834 -528.999 273.501s-299.333 256.667 -417 417s-208.834 336.666 -273.501 528.999s-97 394.833 -97 607.5s32.333 415.167 97 607.5s155.834 368.666 273.501 528.999s256.667 299.333 417 417s336.666 208.834 528.999 273.5
c192.333 64.667 394.833 97 607.5 97s415.167 -32.333 607.5 -97s368.666 -155.834 529 -273.5c160.333 -117.667 299.333 -256.667 417 -417s208.834 -336.666 273.5 -528.999c64.667 -192.333 97 -394.833 97 -607.5s-32.333 -415.167 -97 -607.5
s-155.834 -368.666 -273.5 -528.999c-117.667 -160.333 -256.667 -299.333 -417 -417s-336.666 -208.834 -529 -273.501c-192.333 -64.667 -394.833 -97 -607.5 -97zM1956 -614.999c181.333 0 353.833 27.501 517.5 82.501s313.834 132.667 450.5 233
c136.667 100.333 255.167 218.833 355.5 355.5s178 287 233 451s82.5 336.333 82.5 517c0 181.333 -27.5 353.833 -82.5 517.5s-132.667 313.834 -233 450.501s-218.833 255.167 -355.5 355.5s-286.834 178 -450.5 233c-163.667 55 -336.167 82.5 -517.5 82.5
s-354 -27.5 -518 -82.5s-314.167 -132.667 -450.5 -233s-254.666 -218.833 -354.999 -355.5s-178 -286.834 -233 -450.501s-82.5 -336.167 -82.5 -517.5s27.5 -353.833 82.5 -517.5s132.667 -313.834 233 -450.501s218.666 -255.167 354.999 -355.5s286.5 -178 450.5 -233
s336.667 -82.5 518 -82.5z" />
    <glyph glyph-name="uni24BA" unicode="E&#x20dd;" horiz-adv-x="3912" 
d="M1262 0v2048h1380v-357h-947v-488h876v-357h-876v-489h951v-357h-1384zM1956 -900c-212.667 0 -415.167 32.334 -607.5 97.001s-368.666 155.834 -528.999 273.501s-299.333 256.667 -417 417s-208.834 336.666 -273.501 528.999s-97 394.833 -97 607.5
s32.333 415.167 97 607.5s155.834 368.666 273.501 528.999s256.667 299.333 417 417s336.666 208.834 528.999 273.5c192.333 64.667 394.833 97 607.5 97s415.167 -32.333 607.5 -97s368.666 -155.834 529 -273.501c160.333 -117.667 299.333 -256.667 417 -417
s208.834 -336.666 273.5 -528.999c64.667 -192.333 97 -394.833 97 -607.5s-32.333 -415.167 -97 -607.5s-155.834 -368.666 -273.5 -528.999c-117.667 -160.333 -256.667 -299.333 -417 -417s-336.666 -208.834 -529 -273.501c-192.333 -64.667 -394.833 -97 -607.5 -97z
M1956 -614.999c181.333 0 353.833 27.501 517.5 82.501s313.834 132.667 450.5 233c136.667 100.333 255.167 218.833 355.5 355.5s178 287 233 451s82.5 336.333 82.5 517c0 181.333 -27.5 353.833 -82.5 517.5s-132.667 313.834 -233 450.501
s-218.833 255.167 -355.5 355.5s-286.834 178 -450.5 233c-163.667 55 -336.167 82.5 -517.5 82.5s-354 -27.5 -518 -82.5s-314.167 -132.667 -450.5 -233s-254.666 -218.833 -354.999 -355.5s-178 -286.834 -233 -450.501s-82.5 -336.167 -82.5 -517.5
s27.5 -353.833 82.5 -517.5s132.667 -313.834 233 -450.501s218.666 -255.167 354.999 -355.5s286.5 -178 450.5 -233s336.667 -82.5 518 -82.5z" />
    <glyph glyph-name="uni24BB" unicode="F&#x20dd;" horiz-adv-x="3912" 
d="M1278 0v2048h1356v-357h-923v-488h833v-357h-833v-846h-433zM1956 -900c-212.667 0 -415.167 32.334 -607.5 97.001s-368.666 155.834 -528.999 273.501s-299.333 256.667 -417 417s-208.834 336.666 -273.501 528.999s-97 394.833 -97 607.5s32.333 415.167 97 607.5
s155.834 368.666 273.501 528.999s256.667 299.333 417 417s336.666 208.834 528.999 273.5c192.333 64.667 394.833 97 607.5 97s415.167 -32.333 607.5 -97s368.666 -155.834 529 -273.501c160.333 -117.667 299.333 -256.667 417 -417s208.834 -336.666 273.5 -528.999
c64.667 -192.333 97 -394.833 97 -607.5s-32.333 -415.167 -97 -607.5s-155.834 -368.666 -273.5 -528.999c-117.667 -160.333 -256.667 -299.333 -417 -417s-336.666 -208.834 -529 -273.501c-192.333 -64.667 -394.833 -97 -607.5 -97zM1956 -614.999
c181.333 0 353.833 27.501 517.5 82.501s313.834 132.667 450.5 233c136.667 100.333 255.167 218.833 355.5 355.5s178 287 233 451s82.5 336.333 82.5 517c0 181.333 -27.5 353.833 -82.5 517.5s-132.667 313.834 -233 450.501s-218.833 255.167 -355.5 355.5
s-286.834 178 -450.5 233c-163.667 55 -336.167 82.5 -517.5 82.5s-354 -27.5 -518 -82.5s-314.167 -132.667 -450.5 -233s-254.666 -218.833 -354.999 -355.5s-178 -286.834 -233 -450.501s-82.5 -336.167 -82.5 -517.5s27.5 -353.833 82.5 -517.5
s132.667 -313.834 233 -450.501s218.666 -255.167 354.999 -355.5s286.5 -178 450.5 -233s336.667 -82.5 518 -82.5z" />
    <glyph glyph-name="uni24BC" unicode="G&#x20dd;" horiz-adv-x="3912" 
d="M2424 1386c-14 48.667 -33.665 91.8311 -58.998 129.498s-56.166 69.667 -92.5 96c-36.333 26.333 -77.666 46.5 -124 60.5c-46.333 14 -97.5 21 -153.5 21c-104.667 0 -196.5 -26 -275.5 -78s-140.5 -127.5 -184.5 -226.5s-66 -219.833 -66 -362.5s21.667 -264 65 -364
s104.666 -176.167 183.999 -228.5s173 -78.5 281 -78.5c98 0 181.833 17.5 251.5 52.5s123 84.5 160 148.5s55.5 139.667 55.5 227l88 -13h-528v326h857v-258c0 -180 -38 -334.5 -114 -463.5s-180.667 -228.333 -314 -298s-286 -104.5 -458 -104.5
c-192 0 -360.667 42.5 -506 127.5s-258.5 206 -339.5 363s-121.5 343.5 -121.5 559.5c0 166 24.167 314.167 72.5 444.5s116.166 240.833 203.499 331.5s189 159.667 305 207s241.667 71 377 71c116 0 224 -16.833 324 -50.5s188.833 -81.167 266.5 -142.5
s141.167 -134.166 190.5 -218.499s81 -177.166 95 -278.499h-440zM1956 -900.003c-212.667 0 -415.167 32.333 -607.5 97s-368.666 155.834 -528.999 273.501s-299.333 256.667 -417 417s-208.834 336.666 -273.501 528.999s-97 394.833 -97 607.5s32.333 415.167 97 607.5
s155.834 368.666 273.501 528.999s256.667 299.333 417 417s336.666 208.834 528.999 273.5c192.333 64.667 394.833 97 607.5 97s415.167 -32.333 607.5 -97s368.666 -155.834 529 -273.5c160.333 -117.667 299.333 -256.667 417 -417s208.834 -336.666 273.5 -528.999
c64.667 -192.333 97 -394.833 97 -607.5s-32.333 -415.167 -97 -607.5s-155.834 -368.666 -273.5 -528.999c-117.667 -160.333 -256.667 -299.333 -417 -417s-336.666 -208.834 -529 -273.501c-192.333 -64.667 -394.833 -97 -607.5 -97zM1956 -615.003
c181.333 0 353.833 27.501 517.5 82.501s313.834 132.667 450.5 233c136.667 100.333 255.167 218.833 355.5 355.5s178 287 233 451s82.5 336.333 82.5 517c0 181.333 -27.5 353.833 -82.5 517.5s-132.667 313.834 -233 450.501s-218.833 255.167 -355.5 355.5
s-286.834 178 -450.5 233c-163.667 55 -336.167 82.5 -517.5 82.5s-354 -27.5 -518 -82.5s-314.167 -132.667 -450.5 -233s-254.666 -218.833 -354.999 -355.5s-178 -286.834 -233 -450.501s-82.5 -336.167 -82.5 -517.5s27.5 -353.833 82.5 -517.5
s132.667 -313.834 233 -450.501s218.666 -255.167 354.999 -355.5s286.5 -178 450.5 -233s336.667 -82.5 518 -82.5z" />
    <glyph glyph-name="uni24BD" unicode="H&#x20dd;" horiz-adv-x="3912" 
d="M1074 0v2048h433v-845h879v845h432v-2048h-432v846h-879v-846h-433zM1956 -900c-212.667 0 -415.167 32.334 -607.5 97.001s-368.666 155.834 -528.999 273.501s-299.333 256.667 -417 417s-208.834 336.666 -273.501 528.999s-97 394.833 -97 607.5
s32.333 415.167 97 607.5s155.834 368.666 273.501 528.999s256.667 299.333 417 417s336.666 208.834 528.999 273.5c192.333 64.667 394.833 97 607.5 97s415.167 -32.333 607.5 -97s368.666 -155.834 529 -273.501c160.333 -117.667 299.333 -256.667 417 -417
s208.834 -336.666 273.5 -528.999c64.667 -192.333 97 -394.833 97 -607.5s-32.333 -415.167 -97 -607.5s-155.834 -368.666 -273.5 -528.999c-117.667 -160.333 -256.667 -299.333 -417 -417s-336.666 -208.834 -529 -273.501c-192.333 -64.667 -394.833 -97 -607.5 -97z
M1956 -614.999c181.333 0 353.833 27.501 517.5 82.501s313.834 132.667 450.5 233c136.667 100.333 255.167 218.833 355.5 355.5s178 287 233 451s82.5 336.333 82.5 517c0 181.333 -27.5 353.833 -82.5 517.5s-132.667 313.834 -233 450.501
s-218.833 255.167 -355.5 355.5s-286.834 178 -450.5 233c-163.667 55 -336.167 82.5 -517.5 82.5s-354 -27.5 -518 -82.5s-314.167 -132.667 -450.5 -233s-254.666 -218.833 -354.999 -355.5s-178 -286.834 -233 -450.501s-82.5 -336.167 -82.5 -517.5
s27.5 -353.833 82.5 -517.5s132.667 -313.834 233 -450.501s218.666 -255.167 354.999 -355.5s286.5 -178 450.5 -233s336.667 -82.5 518 -82.5z" />
    <glyph glyph-name="uni24BE" unicode="I&#x20dd;" horiz-adv-x="3912" 
d="M2172 2048v-2048h-433v2048h433zM1956 -900c-212.667 0 -415.167 32.334 -607.5 97.001s-368.666 155.834 -528.999 273.501s-299.333 256.667 -417 417s-208.834 336.666 -273.501 528.999s-97 394.833 -97 607.5s32.333 415.167 97 607.5
s155.834 368.666 273.501 528.999s256.667 299.333 417 417s336.666 208.834 528.999 273.5c192.333 64.667 394.833 97 607.5 97s415.167 -32.333 607.5 -97s368.666 -155.834 529 -273.501c160.333 -117.667 299.333 -256.667 417 -417s208.834 -336.666 273.5 -528.999
c64.667 -192.333 97 -394.833 97 -607.5s-32.333 -415.167 -97 -607.5s-155.834 -368.666 -273.5 -528.999c-117.667 -160.333 -256.667 -299.333 -417 -417s-336.666 -208.834 -529 -273.501c-192.333 -64.667 -394.833 -97 -607.5 -97zM1956 -614.999
c181.333 0 353.833 27.501 517.5 82.501s313.834 132.667 450.5 233c136.667 100.333 255.167 218.833 355.5 355.5s178 287 233 451s82.5 336.333 82.5 517c0 181.333 -27.5 353.833 -82.5 517.5s-132.667 313.834 -233 450.501s-218.833 255.167 -355.5 355.5
s-286.834 178 -450.5 233c-163.667 55 -336.167 82.5 -517.5 82.5s-354 -27.5 -518 -82.5s-314.167 -132.667 -450.5 -233s-254.666 -218.833 -354.999 -355.5s-178 -286.834 -233 -450.501s-82.5 -336.167 -82.5 -517.5s27.5 -353.833 82.5 -517.5
s132.667 -313.834 233 -450.501s218.666 -255.167 354.999 -355.5s286.5 -178 450.5 -233s336.667 -82.5 518 -82.5z" />
    <glyph glyph-name="uni24BF" unicode="J&#x20dd;" horiz-adv-x="3912" 
d="M2152 2048l428 -0.00195312v-1428c0 -132 -29.5 -246.667 -88.5 -344s-140.833 -172.333 -245.5 -225s-226.334 -79 -365.001 -79c-123.333 0 -235.166 21.833 -335.499 65.5s-179.833 110.334 -238.5 200.001s-87.667 202.5 -87 338.5h431
c1.33301 -54 12.5 -100.167 33.5 -138.5s50 -67.666 87 -87.999s80.833 -30.5 131.5 -30.5c53.333 0 98.5 11.5 135.5 34.5s65.167 56.833 84.5 101.5s29 99.667 29 165v1428zM1956 -900.002c-212.667 0 -415.167 32.334 -607.5 97.001s-368.666 155.834 -528.999 273.501
s-299.333 256.667 -417 417s-208.834 336.666 -273.501 528.999s-97 394.833 -97 607.5s32.333 415.167 97 607.5s155.834 368.666 273.501 528.999s256.667 299.333 417 417s336.666 208.834 528.999 273.5c192.333 64.667 394.833 97 607.5 97s415.167 -32.333 607.5 -97
s368.666 -155.834 529 -273.501c160.333 -117.667 299.333 -256.667 417 -417s208.834 -336.666 273.5 -528.999c64.667 -192.333 97 -394.833 97 -607.5s-32.333 -415.167 -97 -607.5s-155.834 -368.666 -273.5 -528.999c-117.667 -160.333 -256.667 -299.333 -417 -417
s-336.666 -208.834 -529 -273.501c-192.333 -64.667 -394.833 -97 -607.5 -97zM1956 -615.001c181.333 0 353.833 27.501 517.5 82.501s313.834 132.667 450.5 233c136.667 100.333 255.167 218.833 355.5 355.5s178 287 233 451s82.5 336.333 82.5 517
c0 181.333 -27.5 353.833 -82.5 517.5s-132.667 313.834 -233 450.501s-218.833 255.167 -355.5 355.5s-286.834 178 -450.5 233c-163.667 55 -336.167 82.5 -517.5 82.5s-354 -27.5 -518 -82.5s-314.167 -132.667 -450.5 -233s-254.666 -218.833 -354.999 -355.5
s-178 -286.834 -233 -450.501s-82.5 -336.167 -82.5 -517.5s27.5 -353.833 82.5 -517.5s132.667 -313.834 233 -450.501s218.666 -255.167 354.999 -355.5s286.5 -178 450.5 -233s336.667 -82.5 518 -82.5z" />
    <glyph glyph-name="uni24C0" unicode="K&#x20dd;" horiz-adv-x="3912" 
d="M1146 0v2048h433v-903h27l737 903h519l-760 -917l769 -1131h-518l-561 842l-213 -260v-582h-433zM1956 -900c-212.667 0 -415.167 32.334 -607.5 97.001s-368.666 155.834 -528.999 273.501s-299.333 256.667 -417 417s-208.834 336.666 -273.501 528.999
s-97 394.833 -97 607.5s32.333 415.167 97 607.5s155.834 368.666 273.501 528.999s256.667 299.333 417 417s336.666 208.834 528.999 273.5c192.333 64.667 394.833 97 607.5 97s415.167 -32.333 607.5 -97s368.666 -155.834 529 -273.501
c160.333 -117.667 299.333 -256.667 417 -417s208.834 -336.666 273.5 -528.999c64.667 -192.333 97 -394.833 97 -607.5s-32.333 -415.167 -97 -607.5s-155.834 -368.666 -273.5 -528.999c-117.667 -160.333 -256.667 -299.333 -417 -417s-336.666 -208.834 -529 -273.501
c-192.333 -64.667 -394.833 -97 -607.5 -97zM1956 -614.999c181.333 0 353.833 27.501 517.5 82.501s313.834 132.667 450.5 233c136.667 100.333 255.167 218.833 355.5 355.5s178 287 233 451s82.5 336.333 82.5 517c0 181.333 -27.5 353.833 -82.5 517.5
s-132.667 313.834 -233 450.501s-218.833 255.167 -355.5 355.5s-286.834 178 -450.5 233c-163.667 55 -336.167 82.5 -517.5 82.5s-354 -27.5 -518 -82.5s-314.167 -132.667 -450.5 -233s-254.666 -218.833 -354.999 -355.5s-178 -286.834 -233 -450.501
s-82.5 -336.167 -82.5 -517.5s27.5 -353.833 82.5 -517.5s132.667 -313.834 233 -450.501s218.666 -255.167 354.999 -355.5s286.5 -178 450.5 -233s336.667 -82.5 518 -82.5z" />
    <glyph glyph-name="uni24C1" unicode="L&#x20dd;" horiz-adv-x="3912" 
d="M1348 0v2048h433v-1691h878v-357h-1311zM1956 -900c-212.667 0 -415.167 32.334 -607.5 97.001s-368.666 155.834 -528.999 273.501s-299.333 256.667 -417 417s-208.834 336.666 -273.501 528.999s-97 394.833 -97 607.5s32.333 415.167 97 607.5
s155.834 368.666 273.501 528.999s256.667 299.333 417 417s336.666 208.834 528.999 273.5c192.333 64.667 394.833 97 607.5 97s415.167 -32.333 607.5 -97s368.666 -155.834 529 -273.501c160.333 -117.667 299.333 -256.667 417 -417s208.834 -336.666 273.5 -528.999
c64.667 -192.333 97 -394.833 97 -607.5s-32.333 -415.167 -97 -607.5s-155.834 -368.666 -273.5 -528.999c-117.667 -160.333 -256.667 -299.333 -417 -417s-336.666 -208.834 -529 -273.501c-192.333 -64.667 -394.833 -97 -607.5 -97zM1956 -614.999
c181.333 0 353.833 27.501 517.5 82.501s313.834 132.667 450.5 233c136.667 100.333 255.167 218.833 355.5 355.5s178 287 233 451s82.5 336.333 82.5 517c0 181.333 -27.5 353.833 -82.5 517.5s-132.667 313.834 -233 450.501s-218.833 255.167 -355.5 355.5
s-286.834 178 -450.5 233c-163.667 55 -336.167 82.5 -517.5 82.5s-354 -27.5 -518 -82.5s-314.167 -132.667 -450.5 -233s-254.666 -218.833 -354.999 -355.5s-178 -286.834 -233 -450.501s-82.5 -336.167 -82.5 -517.5s27.5 -353.833 82.5 -517.5
s132.667 -313.834 233 -450.501s218.666 -255.167 354.999 -355.5s286.5 -178 450.5 -233s336.667 -82.5 518 -82.5z" />
    <glyph glyph-name="uni24C2" unicode="M&#x20dd;" horiz-adv-x="3912" 
d="M846 2048h534l564 -1376h24l564 1376h534v-2048h-420v1333h-17l-530 -1323h-286l-530 1328h-17v-1338h-420v2048zM1956 -900c-212.667 0 -415.167 32.334 -607.5 97.001s-368.666 155.834 -528.999 273.501s-299.333 256.667 -417 417s-208.834 336.666 -273.501 528.999
s-97 394.833 -97 607.5s32.333 415.167 97 607.5s155.834 368.666 273.501 528.999s256.667 299.333 417 417s336.666 208.834 528.999 273.5c192.333 64.667 394.833 97 607.5 97s415.167 -32.333 607.5 -97s368.666 -155.834 529 -273.501
c160.333 -117.667 299.333 -256.667 417 -417s208.834 -336.666 273.5 -528.999c64.667 -192.333 97 -394.833 97 -607.5s-32.333 -415.167 -97 -607.5s-155.834 -368.666 -273.5 -528.999c-117.667 -160.333 -256.667 -299.333 -417 -417s-336.666 -208.834 -529 -273.501
c-192.333 -64.667 -394.833 -97 -607.5 -97zM1956 -614.999c181.333 0 353.833 27.501 517.5 82.501s313.834 132.667 450.5 233c136.667 100.333 255.167 218.833 355.5 355.5s178 287 233 451s82.5 336.333 82.5 517c0 181.333 -27.5 353.833 -82.5 517.5
s-132.667 313.834 -233 450.501s-218.833 255.167 -355.5 355.5s-286.834 178 -450.5 233c-163.667 55 -336.167 82.5 -517.5 82.5s-354 -27.5 -518 -82.5s-314.167 -132.667 -450.5 -233s-254.666 -218.833 -354.999 -355.5s-178 -286.834 -233 -450.501
s-82.5 -336.167 -82.5 -517.5s27.5 -353.833 82.5 -517.5s132.667 -313.834 233 -450.501s218.666 -255.167 354.999 -355.5s286.5 -178 450.5 -233s336.667 -82.5 518 -82.5z" />
    <glyph glyph-name="uni24C3" unicode="N&#x20dd;" horiz-adv-x="3912" 
d="M2812 2048v-2048h-374l-891 1289h-15v-1289h-433v2048h380l884 -1288h18v1288h431zM1956 -900c-212.667 0 -415.167 32.334 -607.5 97.001s-368.666 155.834 -528.999 273.501s-299.333 256.667 -417 417s-208.834 336.666 -273.501 528.999s-97 394.833 -97 607.5
s32.333 415.167 97 607.5s155.834 368.666 273.501 528.999s256.667 299.333 417 417s336.666 208.834 528.999 273.5c192.333 64.667 394.833 97 607.5 97s415.167 -32.333 607.5 -97s368.666 -155.834 529 -273.501c160.333 -117.667 299.333 -256.667 417 -417
s208.834 -336.666 273.5 -528.999c64.667 -192.333 97 -394.833 97 -607.5s-32.333 -415.167 -97 -607.5s-155.834 -368.666 -273.5 -528.999c-117.667 -160.333 -256.667 -299.333 -417 -417s-336.666 -208.834 -529 -273.501c-192.333 -64.667 -394.833 -97 -607.5 -97z
M1956 -614.999c181.333 0 353.833 27.501 517.5 82.501s313.834 132.667 450.5 233c136.667 100.333 255.167 218.833 355.5 355.5s178 287 233 451s82.5 336.333 82.5 517c0 181.333 -27.5 353.833 -82.5 517.5s-132.667 313.834 -233 450.501
s-218.833 255.167 -355.5 355.5s-286.834 178 -450.5 233c-163.667 55 -336.167 82.5 -517.5 82.5s-354 -27.5 -518 -82.5s-314.167 -132.667 -450.5 -233s-254.666 -218.833 -354.999 -355.5s-178 -286.834 -233 -450.501s-82.5 -336.167 -82.5 -517.5
s27.5 -353.833 82.5 -517.5s132.667 -313.834 233 -450.501s218.666 -255.167 354.999 -355.5s286.5 -178 450.5 -233s336.667 -82.5 518 -82.5z" />
    <glyph glyph-name="uni24C4" unicode="O&#x20dd;" horiz-adv-x="3912" 
d="M2915 1024c0 -223.333 -42.167 -413.335 -126.5 -570.002s-199 -276.167 -344 -358.5s-307.833 -123.5 -488.5 -123.5c-182 0 -345.333 41.333 -490 124s-259 202.334 -343 359.001s-126 346.334 -126 569.001c0 223.333 42 413.333 126 570s198.333 276.167 343 358.5
s308 123.5 490 123.5c180.667 0 343.5 -41.167 488.5 -123.5s259.667 -201.833 344 -358.5s126.5 -346.667 126.5 -570zM2476 1024c0 144.667 -21.5 266.667 -64.5 366s-103.5 174.666 -181.5 225.999s-169.333 77 -274 77s-196 -25.667 -274 -77
s-138.5 -126.666 -181.5 -225.999s-64.5 -221.333 -64.5 -366s21.5 -266.667 64.5 -366s103.5 -174.666 181.5 -225.999s169.333 -77 274 -77s196 25.667 274 77s138.5 126.666 181.5 225.999s64.5 221.333 64.5 366zM1956 -900.002
c-212.667 0 -415.167 32.334 -607.5 97.001s-368.666 155.834 -528.999 273.501s-299.333 256.667 -417 417s-208.834 336.666 -273.501 528.999s-97 394.833 -97 607.5s32.333 415.167 97 607.5s155.834 368.666 273.501 528.999s256.667 299.333 417 417
s336.666 208.834 528.999 273.5c192.333 64.667 394.833 97 607.5 97s415.167 -32.333 607.5 -97s368.666 -155.834 529 -273.501c160.333 -117.667 299.333 -256.667 417 -417s208.834 -336.666 273.5 -528.999c64.667 -192.333 97 -394.833 97 -607.5
s-32.333 -415.167 -97 -607.5s-155.834 -368.666 -273.5 -528.999c-117.667 -160.333 -256.667 -299.333 -417 -417s-336.666 -208.834 -529 -273.501c-192.333 -64.667 -394.833 -97 -607.5 -97zM1956 -615.001c181.333 0 353.833 27.501 517.5 82.501
s313.834 132.667 450.5 233c136.667 100.333 255.167 218.833 355.5 355.5s178 287 233 451s82.5 336.333 82.5 517c0 181.333 -27.5 353.833 -82.5 517.5s-132.667 313.834 -233 450.501s-218.833 255.167 -355.5 355.5s-286.834 178 -450.5 233
c-163.667 55 -336.167 82.5 -517.5 82.5s-354 -27.5 -518 -82.5s-314.167 -132.667 -450.5 -233s-254.666 -218.833 -354.999 -355.5s-178 -286.834 -233 -450.501s-82.5 -336.167 -82.5 -517.5s27.5 -353.833 82.5 -517.5s132.667 -313.834 233 -450.501
s218.666 -255.167 354.999 -355.5s286.5 -178 450.5 -233s336.667 -82.5 518 -82.5z" />
    <glyph glyph-name="uni24C5" unicode="P&#x20dd;" horiz-adv-x="3912" 
d="M1273 0v2048h808c155.333 0 287.666 -29.5 397 -88.5c109.333 -59 192.833 -140.667 250.5 -245s86.5 -224.5 86.5 -360.5s-29.333 -256 -88 -360s-143.5 -185 -254.5 -243s-245.167 -87 -402.5 -87h-515v347h445c83.333 0 152.166 14.5 206.5 43.5
c54.333 29 95 69.333 122 121s40.5 111.167 40.5 178.5c0 68 -13.5 127.5 -40.5 178.5s-67.833 90.667 -122.5 119s-124 42.5 -208 42.5h-292v-1694h-433zM1956 -900c-212.667 0 -415.167 32.334 -607.5 97.001s-368.666 155.834 -528.999 273.501
s-299.333 256.667 -417 417s-208.834 336.666 -273.501 528.999s-97 394.833 -97 607.5s32.333 415.167 97 607.5s155.834 368.666 273.501 528.999s256.667 299.333 417 417s336.666 208.834 528.999 273.5c192.333 64.667 394.833 97 607.5 97s415.167 -32.333 607.5 -97
s368.666 -155.834 529 -273.501c160.333 -117.667 299.333 -256.667 417 -417s208.834 -336.666 273.5 -528.999c64.667 -192.333 97 -394.833 97 -607.5s-32.333 -415.167 -97 -607.5s-155.834 -368.666 -273.5 -528.999c-117.667 -160.333 -256.667 -299.333 -417 -417
s-336.666 -208.834 -529 -273.501c-192.333 -64.667 -394.833 -97 -607.5 -97zM1956 -614.999c181.333 0 353.833 27.501 517.5 82.501s313.834 132.667 450.5 233c136.667 100.333 255.167 218.833 355.5 355.5s178 287 233 451s82.5 336.333 82.5 517
c0 181.333 -27.5 353.833 -82.5 517.5s-132.667 313.834 -233 450.501s-218.833 255.167 -355.5 355.5s-286.834 178 -450.5 233c-163.667 55 -336.167 82.5 -517.5 82.5s-354 -27.5 -518 -82.5s-314.167 -132.667 -450.5 -233s-254.666 -218.833 -354.999 -355.5
s-178 -286.834 -233 -450.501s-82.5 -336.167 -82.5 -517.5s27.5 -353.833 82.5 -517.5s132.667 -313.834 233 -450.501s218.666 -255.167 354.999 -355.5s286.5 -178 450.5 -233s336.667 -82.5 518 -82.5z" />
    <glyph glyph-name="uni24C6" unicode="Q&#x20dd;" horiz-adv-x="3912" 
d="M1805 712h368l185 -238l182 -212l343 -430h-404l-236 290l-121 172zM2914 1024c0 -223.333 -42.167 -413.335 -126.5 -570.002s-199 -276.167 -344 -358.5s-307.833 -123.5 -488.5 -123.5c-182 0 -345.333 41.333 -490 124s-259 202.334 -343 359.001
s-126 346.334 -126 569.001c0 223.333 42 413.333 126 570s198.333 276.167 343 358.5s308 123.5 490 123.5c180.667 0 343.5 -41.167 488.5 -123.5s259.667 -201.833 344 -358.5s126.5 -346.667 126.5 -570zM2475 1024c0 144.667 -21.5 266.667 -64.5 366
s-103.5 174.666 -181.5 225.999s-169.333 77 -274 77s-196 -25.667 -274 -77s-138.5 -126.666 -181.5 -225.999s-64.5 -221.333 -64.5 -366s21.5 -266.667 64.5 -366s103.5 -174.666 181.5 -225.999s169.333 -77 274 -77s196 25.667 274 77s138.5 126.666 181.5 225.999
s64.5 221.333 64.5 366zM1956 -900.002c-212.667 0 -415.167 32.334 -607.5 97.001s-368.666 155.834 -528.999 273.501s-299.333 256.667 -417 417s-208.834 336.666 -273.501 528.999s-97 394.833 -97 607.5s32.333 415.167 97 607.5s155.834 368.666 273.501 528.999
s256.667 299.333 417 417s336.666 208.834 528.999 273.5c192.333 64.667 394.833 97 607.5 97s415.167 -32.333 607.5 -97s368.666 -155.834 529 -273.501c160.333 -117.667 299.333 -256.667 417 -417s208.834 -336.666 273.5 -528.999
c64.667 -192.333 97 -394.833 97 -607.5s-32.333 -415.167 -97 -607.5s-155.834 -368.666 -273.5 -528.999c-117.667 -160.333 -256.667 -299.333 -417 -417s-336.666 -208.834 -529 -273.501c-192.333 -64.667 -394.833 -97 -607.5 -97zM1956 -615.001
c181.333 0 353.833 27.501 517.5 82.501s313.834 132.667 450.5 233c136.667 100.333 255.167 218.833 355.5 355.5s178 287 233 451s82.5 336.333 82.5 517c0 181.333 -27.5 353.833 -82.5 517.5s-132.667 313.834 -233 450.501s-218.833 255.167 -355.5 355.5
s-286.834 178 -450.5 233c-163.667 55 -336.167 82.5 -517.5 82.5s-354 -27.5 -518 -82.5s-314.167 -132.667 -450.5 -233s-254.666 -218.833 -354.999 -355.5s-178 -286.834 -233 -450.501s-82.5 -336.167 -82.5 -517.5s27.5 -353.833 82.5 -517.5
s132.667 -313.834 233 -450.501s218.666 -255.167 354.999 -355.5s286.5 -178 450.5 -233s336.667 -82.5 518 -82.5z" />
    <glyph glyph-name="uni24C7" unicode="R&#x20dd;" horiz-adv-x="3912" 
d="M1220 0l-0.00195312 2048h808c154.667 0 286.834 -27.5 396.5 -82.5c109.667 -55 193.334 -132.667 251.001 -233s86.5 -218.166 86.5 -353.499c0 -136 -29.333 -252.833 -88 -350.5s-143.5 -172.5 -254.5 -224.5s-245.167 -78 -402.5 -78h-541v348h471
c82.667 0 151.334 11.333 206.001 34s95.5 56.667 122.5 102s40.5 101.666 40.5 168.999c0 68 -13.5 125.333 -40.5 172s-68 82.167 -123 106.5s-124.167 36.5 -207.5 36.5h-292v-1694h-433zM2326 932l509 -932h-478l-498 932h467zM1956 -900
c-212.667 0 -415.167 32.334 -607.5 97.001s-368.666 155.834 -528.999 273.501s-299.333 256.667 -417 417s-208.834 336.666 -273.501 528.999s-97 394.833 -97 607.5s32.333 415.167 97 607.5s155.834 368.666 273.501 528.999s256.667 299.333 417 417
s336.666 208.834 528.999 273.5c192.333 64.667 394.833 97 607.5 97s415.167 -32.333 607.5 -97s368.666 -155.834 529 -273.501c160.333 -117.667 299.333 -256.667 417 -417s208.834 -336.666 273.5 -528.999c64.667 -192.333 97 -394.833 97 -607.5
s-32.333 -415.167 -97 -607.5s-155.834 -368.666 -273.5 -528.999c-117.667 -160.333 -256.667 -299.333 -417 -417s-336.666 -208.834 -529 -273.501c-192.333 -64.667 -394.833 -97 -607.5 -97zM1956 -614.999c181.333 0 353.833 27.501 517.5 82.501
s313.834 132.667 450.5 233c136.667 100.333 255.167 218.833 355.5 355.5s178 287 233 451s82.5 336.333 82.5 517c0 181.333 -27.5 353.833 -82.5 517.5s-132.667 313.834 -233 450.501s-218.833 255.167 -355.5 355.5s-286.834 178 -450.5 233
c-163.667 55 -336.167 82.5 -517.5 82.5s-354 -27.5 -518 -82.5s-314.167 -132.667 -450.5 -233s-254.666 -218.833 -354.999 -355.5s-178 -286.834 -233 -450.501s-82.5 -336.167 -82.5 -517.5s27.5 -353.833 82.5 -517.5s132.667 -313.834 233 -450.501
s218.666 -255.167 354.999 -355.5s286.5 -178 450.5 -233s336.667 -82.5 518 -82.5z" />
    <glyph glyph-name="uni24C8" unicode="S&#x20dd;" horiz-adv-x="3912" 
d="M2323 1459c-8 80.667 -42.3311 143.335 -102.998 188.002s-143 67 -247 67c-70.667 0 -130.334 -9.83301 -179.001 -29.5s-85.834 -46.834 -111.501 -81.501s-38.5 -74 -38.5 -118c-1.33301 -36.667 6.5 -68.667 23.5 -96s40.5 -50.833 70.5 -70.5
s64.667 -36.667 104 -51s81.333 -26.5 126 -36.5l184 -44c89.333 -20 171.333 -46.667 246 -80s139.334 -74.333 194 -123c54.667 -48.667 97.167 -106 127.5 -172s45.833 -141.667 46.5 -227c-0.666992 -125.333 -32.5 -233.833 -95.5 -325.5s-153.667 -162.667 -272 -213
s-260.833 -75.5 -427.5 -75.5c-165.333 0 -309.166 25.333 -431.499 76s-217.666 125.834 -285.999 225.501s-104.166 223.167 -107.499 370.5h419c4.66699 -68.667 24.5 -125.834 59.5 -171.501s82 -80 141 -103s125.833 -34.5 200.5 -34.5
c73.333 0 137.166 10.667 191.499 32s96.5 51 126.5 89s45 81.667 45 131c0 46 -13.5 84.667 -40.5 116s-66.333 58 -118 80s-114.834 42 -189.501 60l-223 56c-172.667 42 -309 107.667 -409 197s-149.667 209.666 -149 360.999c-0.666992 124 32.5 232.333 99.5 325
s159.167 165 276.5 217s250.666 78 399.999 78c152 0 284.833 -26 398.5 -78s202.167 -124.333 265.5 -217s96 -200 98 -322h-415zM1956 -899.999c-212.667 0 -415.167 32.333 -607.5 97s-368.666 155.834 -528.999 273.501s-299.333 256.667 -417 417
s-208.834 336.666 -273.501 528.999s-97 394.833 -97 607.5s32.333 415.167 97 607.5s155.834 368.666 273.501 528.999s256.667 299.333 417 417s336.666 208.834 528.999 273.5c192.333 64.667 394.833 97 607.5 97s415.167 -32.333 607.5 -97
s368.666 -155.834 529 -273.5c160.333 -117.667 299.333 -256.667 417 -417s208.834 -336.666 273.5 -528.999c64.667 -192.333 97 -394.833 97 -607.5s-32.333 -415.167 -97 -607.5s-155.834 -368.666 -273.5 -528.999c-117.667 -160.333 -256.667 -299.333 -417 -417
s-336.666 -208.834 -529 -273.501c-192.333 -64.667 -394.833 -97 -607.5 -97zM1956 -614.999c181.333 0 353.833 27.501 517.5 82.501s313.834 132.667 450.5 233c136.667 100.333 255.167 218.833 355.5 355.5s178 287 233 451s82.5 336.333 82.5 517
c0 181.333 -27.5 353.833 -82.5 517.5s-132.667 313.834 -233 450.501s-218.833 255.167 -355.5 355.5s-286.834 178 -450.5 233c-163.667 55 -336.167 82.5 -517.5 82.5s-354 -27.5 -518 -82.5s-314.167 -132.667 -450.5 -233s-254.666 -218.833 -354.999 -355.5
s-178 -286.834 -233 -450.501s-82.5 -336.167 -82.5 -517.5s27.5 -353.833 82.5 -517.5s132.667 -313.834 233 -450.501s218.666 -255.167 354.999 -355.5s286.5 -178 450.5 -233s336.667 -82.5 518 -82.5z" />
    <glyph glyph-name="uni24C9" unicode="T&#x20dd;" horiz-adv-x="3912" 
d="M1115 1691v357h1682v-357h-627v-1691h-428v1691h-627zM1956 -900c-212.667 0 -415.167 32.334 -607.5 97.001s-368.666 155.834 -528.999 273.501s-299.333 256.667 -417 417s-208.834 336.666 -273.501 528.999s-97 394.833 -97 607.5s32.333 415.167 97 607.5
s155.834 368.666 273.501 528.999s256.667 299.333 417 417s336.666 208.834 528.999 273.5c192.333 64.667 394.833 97 607.5 97s415.167 -32.333 607.5 -97s368.666 -155.834 529 -273.501c160.333 -117.667 299.333 -256.667 417 -417s208.834 -336.666 273.5 -528.999
c64.667 -192.333 97 -394.833 97 -607.5s-32.333 -415.167 -97 -607.5s-155.834 -368.666 -273.5 -528.999c-117.667 -160.333 -256.667 -299.333 -417 -417s-336.666 -208.834 -529 -273.501c-192.333 -64.667 -394.833 -97 -607.5 -97zM1956 -614.999
c181.333 0 353.833 27.501 517.5 82.501s313.834 132.667 450.5 233c136.667 100.333 255.167 218.833 355.5 355.5s178 287 233 451s82.5 336.333 82.5 517c0 181.333 -27.5 353.833 -82.5 517.5s-132.667 313.834 -233 450.501s-218.833 255.167 -355.5 355.5
s-286.834 178 -450.5 233c-163.667 55 -336.167 82.5 -517.5 82.5s-354 -27.5 -518 -82.5s-314.167 -132.667 -450.5 -233s-254.666 -218.833 -354.999 -355.5s-178 -286.834 -233 -450.501s-82.5 -336.167 -82.5 -517.5s27.5 -353.833 82.5 -517.5
s132.667 -313.834 233 -450.501s218.666 -255.167 354.999 -355.5s286.5 -178 450.5 -233s336.667 -82.5 518 -82.5z" />
    <glyph glyph-name="uni24CA" unicode="U&#x20dd;" horiz-adv-x="3912" 
d="M2372 2048h433v-1330c0 -149.333 -35.5 -280 -106.5 -392s-170.167 -199.167 -297.5 -261.5s-275.666 -93.5 -445 -93.5c-170 0 -318.667 31.167 -446 93.5s-226.333 149.5 -297 261.5s-106 242.667 -106 392v1330h433v-1293c0 -78 17.167 -147.333 51.5 -208
s82.833 -108.334 145.5 -143.001s135.667 -52 219 -52c84 0 157.167 17.333 219.5 52s110.666 82.334 145 143.001c34.333 60.667 51.5 130 51.5 208v1293zM1956 -900c-212.667 0 -415.167 32.334 -607.5 97.001s-368.666 155.834 -528.999 273.501
s-299.333 256.667 -417 417s-208.834 336.666 -273.501 528.999s-97 394.833 -97 607.5s32.333 415.167 97 607.5s155.834 368.666 273.501 528.999s256.667 299.333 417 417s336.666 208.834 528.999 273.5c192.333 64.667 394.833 97 607.5 97s415.167 -32.333 607.5 -97
s368.666 -155.834 529 -273.501c160.333 -117.667 299.333 -256.667 417 -417s208.834 -336.666 273.5 -528.999c64.667 -192.333 97 -394.833 97 -607.5s-32.333 -415.167 -97 -607.5s-155.834 -368.666 -273.5 -528.999c-117.667 -160.333 -256.667 -299.333 -417 -417
s-336.666 -208.834 -529 -273.501c-192.333 -64.667 -394.833 -97 -607.5 -97zM1956 -614.999c181.333 0 353.833 27.501 517.5 82.501s313.834 132.667 450.5 233c136.667 100.333 255.167 218.833 355.5 355.5s178 287 233 451s82.5 336.333 82.5 517
c0 181.333 -27.5 353.833 -82.5 517.5s-132.667 313.834 -233 450.501s-218.833 255.167 -355.5 355.5s-286.834 178 -450.5 233c-163.667 55 -336.167 82.5 -517.5 82.5s-354 -27.5 -518 -82.5s-314.167 -132.667 -450.5 -233s-254.666 -218.833 -354.999 -355.5
s-178 -286.834 -233 -450.501s-82.5 -336.167 -82.5 -517.5s27.5 -353.833 82.5 -517.5s132.667 -313.834 233 -450.501s218.666 -255.167 354.999 -355.5s286.5 -178 450.5 -233s336.667 -82.5 518 -82.5z" />
    <glyph glyph-name="uni24CB" unicode="V&#x20dd;" horiz-adv-x="3912" 
d="M1451 2048l495 -1556h19l496 1556h480l-706 -2048h-558l-707 2048h481zM1956 -900c-212.667 0 -415.167 32.334 -607.5 97.001s-368.666 155.834 -528.999 273.501s-299.333 256.667 -417 417s-208.834 336.666 -273.501 528.999s-97 394.833 -97 607.5
s32.333 415.167 97 607.5s155.834 368.666 273.501 528.999s256.667 299.333 417 417s336.666 208.834 528.999 273.5c192.333 64.667 394.833 97 607.5 97s415.167 -32.333 607.5 -97s368.666 -155.834 529 -273.501c160.333 -117.667 299.333 -256.667 417 -417
s208.834 -336.666 273.5 -528.999c64.667 -192.333 97 -394.833 97 -607.5s-32.333 -415.167 -97 -607.5s-155.834 -368.666 -273.5 -528.999c-117.667 -160.333 -256.667 -299.333 -417 -417s-336.666 -208.834 -529 -273.501c-192.333 -64.667 -394.833 -97 -607.5 -97z
M1956 -614.999c181.333 0 353.833 27.501 517.5 82.501s313.834 132.667 450.5 233c136.667 100.333 255.167 218.833 355.5 355.5s178 287 233 451s82.5 336.333 82.5 517c0 181.333 -27.5 353.833 -82.5 517.5s-132.667 313.834 -233 450.501
s-218.833 255.167 -355.5 355.5s-286.834 178 -450.5 233c-163.667 55 -336.167 82.5 -517.5 82.5s-354 -27.5 -518 -82.5s-314.167 -132.667 -450.5 -233s-254.666 -218.833 -354.999 -355.5s-178 -286.834 -233 -450.501s-82.5 -336.167 -82.5 -517.5
s27.5 -353.833 82.5 -517.5s132.667 -313.834 233 -450.501s218.666 -255.167 354.999 -355.5s286.5 -178 450.5 -233s336.667 -82.5 518 -82.5z" />
    <glyph glyph-name="uni24CC" unicode="W&#x20dd;" horiz-adv-x="3912" 
d="M1137 0l-586 2048h473l339 -1423h17l374 1423h405l373 -1426h18l339 1426h473l-586 -2048h-422l-390 1339h-16l-389 -1339h-422zM1956 -900c-212.667 0 -415.167 32.334 -607.5 97.001s-368.666 155.834 -528.999 273.501s-299.333 256.667 -417 417
s-208.834 336.666 -273.501 528.999s-97 394.833 -97 607.5s32.333 415.167 97 607.5s155.834 368.666 273.501 528.999s256.667 299.333 417 417s336.666 208.834 528.999 273.5c192.333 64.667 394.833 97 607.5 97s415.167 -32.333 607.5 -97
s368.666 -155.834 529 -273.501c160.333 -117.667 299.333 -256.667 417 -417s208.834 -336.666 273.5 -528.999c64.667 -192.333 97 -394.833 97 -607.5s-32.333 -415.167 -97 -607.5s-155.834 -368.666 -273.5 -528.999c-117.667 -160.333 -256.667 -299.333 -417 -417
s-336.666 -208.834 -529 -273.501c-192.333 -64.667 -394.833 -97 -607.5 -97zM1956 -614.999c181.333 0 353.833 27.501 517.5 82.501s313.834 132.667 450.5 233c136.667 100.333 255.167 218.833 355.5 355.5s178 287 233 451s82.5 336.333 82.5 517
c0 181.333 -27.5 353.833 -82.5 517.5s-132.667 313.834 -233 450.501s-218.833 255.167 -355.5 355.5s-286.834 178 -450.5 233c-163.667 55 -336.167 82.5 -517.5 82.5s-354 -27.5 -518 -82.5s-314.167 -132.667 -450.5 -233s-254.666 -218.833 -354.999 -355.5
s-178 -286.834 -233 -450.501s-82.5 -336.167 -82.5 -517.5s27.5 -353.833 82.5 -517.5s132.667 -313.834 233 -450.501s218.666 -255.167 354.999 -355.5s286.5 -178 450.5 -233s336.667 -82.5 518 -82.5z" />
    <glyph glyph-name="uni24CD" unicode="X&#x20dd;" horiz-adv-x="3912" 
d="M1535 2048l413 -698h16l415 698h489l-625 -1024l639 -1024h-498l-420 699h-16l-420 -699h-496l641 1024l-629 1024h491zM1956 -900c-212.667 0 -415.167 32.334 -607.5 97.001s-368.666 155.834 -528.999 273.501s-299.333 256.667 -417 417
s-208.834 336.666 -273.501 528.999s-97 394.833 -97 607.5s32.333 415.167 97 607.5s155.834 368.666 273.501 528.999s256.667 299.333 417 417s336.666 208.834 528.999 273.5c192.333 64.667 394.833 97 607.5 97s415.167 -32.333 607.5 -97
s368.666 -155.834 529 -273.501c160.333 -117.667 299.333 -256.667 417 -417s208.834 -336.666 273.5 -528.999c64.667 -192.333 97 -394.833 97 -607.5s-32.333 -415.167 -97 -607.5s-155.834 -368.666 -273.5 -528.999c-117.667 -160.333 -256.667 -299.333 -417 -417
s-336.666 -208.834 -529 -273.501c-192.333 -64.667 -394.833 -97 -607.5 -97zM1956 -614.999c181.333 0 353.833 27.501 517.5 82.501s313.834 132.667 450.5 233c136.667 100.333 255.167 218.833 355.5 355.5s178 287 233 451s82.5 336.333 82.5 517
c0 181.333 -27.5 353.833 -82.5 517.5s-132.667 313.834 -233 450.501s-218.833 255.167 -355.5 355.5s-286.834 178 -450.5 233c-163.667 55 -336.167 82.5 -517.5 82.5s-354 -27.5 -518 -82.5s-314.167 -132.667 -450.5 -233s-254.666 -218.833 -354.999 -355.5
s-178 -286.834 -233 -450.501s-82.5 -336.167 -82.5 -517.5s27.5 -353.833 82.5 -517.5s132.667 -313.834 233 -450.501s218.666 -255.167 354.999 -355.5s286.5 -178 450.5 -233s336.667 -82.5 518 -82.5z" />
    <glyph glyph-name="uni24CE" unicode="Y&#x20dd;" horiz-adv-x="3912" 
d="M994 2048h485l467 -882h20l467 882h485l-747 -1324v-724h-430v724zM1956 -900c-212.667 0 -415.167 32.334 -607.5 97.001s-368.666 155.834 -528.999 273.501s-299.333 256.667 -417 417s-208.834 336.666 -273.501 528.999s-97 394.833 -97 607.5
s32.333 415.167 97 607.5s155.834 368.666 273.501 528.999s256.667 299.333 417 417s336.666 208.834 528.999 273.5c192.333 64.667 394.833 97 607.5 97s415.167 -32.333 607.5 -97s368.666 -155.834 529 -273.501c160.333 -117.667 299.333 -256.667 417 -417
s208.834 -336.666 273.5 -528.999c64.667 -192.333 97 -394.833 97 -607.5s-32.333 -415.167 -97 -607.5s-155.834 -368.666 -273.5 -528.999c-117.667 -160.333 -256.667 -299.333 -417 -417s-336.666 -208.834 -529 -273.501c-192.333 -64.667 -394.833 -97 -607.5 -97z
M1956 -614.999c181.333 0 353.833 27.501 517.5 82.501s313.834 132.667 450.5 233c136.667 100.333 255.167 218.833 355.5 355.5s178 287 233 451s82.5 336.333 82.5 517c0 181.333 -27.5 353.833 -82.5 517.5s-132.667 313.834 -233 450.501
s-218.833 255.167 -355.5 355.5s-286.834 178 -450.5 233c-163.667 55 -336.167 82.5 -517.5 82.5s-354 -27.5 -518 -82.5s-314.167 -132.667 -450.5 -233s-254.666 -218.833 -354.999 -355.5s-178 -286.834 -233 -450.501s-82.5 -336.167 -82.5 -517.5
s27.5 -353.833 82.5 -517.5s132.667 -313.834 233 -450.501s218.666 -255.167 354.999 -355.5s286.5 -178 450.5 -233s336.667 -82.5 518 -82.5z" />
    <glyph glyph-name="uni24CF" unicode="Z&#x20dd;" horiz-adv-x="3912" 
d="M1173 0v257l1022 1434h-1024v357h1568v-257l-1023 -1434h1025v-357h-1568zM1956 -900c-212.667 0 -415.167 32.334 -607.5 97.001s-368.666 155.834 -528.999 273.501s-299.333 256.667 -417 417s-208.834 336.666 -273.501 528.999s-97 394.833 -97 607.5
s32.333 415.167 97 607.5s155.834 368.666 273.501 528.999s256.667 299.333 417 417s336.666 208.834 528.999 273.5c192.333 64.667 394.833 97 607.5 97s415.167 -32.333 607.5 -97s368.666 -155.834 529 -273.501c160.333 -117.667 299.333 -256.667 417 -417
s208.834 -336.666 273.5 -528.999c64.667 -192.333 97 -394.833 97 -607.5s-32.333 -415.167 -97 -607.5s-155.834 -368.666 -273.5 -528.999c-117.667 -160.333 -256.667 -299.333 -417 -417s-336.666 -208.834 -529 -273.501c-192.333 -64.667 -394.833 -97 -607.5 -97z
M1956 -614.999c181.333 0 353.833 27.501 517.5 82.501s313.834 132.667 450.5 233c136.667 100.333 255.167 218.833 355.5 355.5s178 287 233 451s82.5 336.333 82.5 517c0 181.333 -27.5 353.833 -82.5 517.5s-132.667 313.834 -233 450.501
s-218.833 255.167 -355.5 355.5s-286.834 178 -450.5 233c-163.667 55 -336.167 82.5 -517.5 82.5s-354 -27.5 -518 -82.5s-314.167 -132.667 -450.5 -233s-254.666 -218.833 -354.999 -355.5s-178 -286.834 -233 -450.501s-82.5 -336.167 -82.5 -517.5
s27.5 -353.833 82.5 -517.5s132.667 -313.834 233 -450.501s218.666 -255.167 354.999 -355.5s286.5 -178 450.5 -233s336.667 -82.5 518 -82.5z" />
    <glyph glyph-name="uni24EA" unicode="&#x30;&#x20dd;" horiz-adv-x="3912" 
d="M1956 -45c-172 0.666992 -319.834 43.002 -443.501 127.002s-218.667 205.667 -285 365s-99.166 351 -98.499 575c0 223.333 33.167 413.666 99.5 570.999s161.333 277.166 285 359.499s271.167 123.5 442.5 123.5s318.833 -41.333 442.5 -124
s218.834 -202.5 285.5 -359.5c66.667 -157 99.667 -347.167 99 -570.5c0 -224.667 -33.167 -416.667 -99.5 -576s-161.166 -281 -284.5 -365c-123.333 -84 -271 -126 -443 -126zM1956 314.002c117.333 0 211.001 59.002 281.001 177.002s104.667 295 104 531
c0 155.333 -15.833 284.666 -47.5 387.999s-76.334 181 -134.001 233s-125.5 78 -203.5 78c-116.667 0 -210 -58.333 -280 -175s-105.333 -291.334 -106 -524.001c0 -157.333 15.833 -288.5 47.5 -393.5s76.5 -183.667 134.5 -236s126 -78.5 204 -78.5zM1956 -899.996
c-212.667 0 -415.167 32.334 -607.5 97.001s-368.666 155.834 -528.999 273.501s-299.333 256.667 -417 417s-208.834 336.666 -273.501 528.999s-97 394.833 -97 607.5s32.333 415.167 97 607.5s155.834 368.666 273.501 528.999s256.667 299.333 417 417
s336.666 208.834 528.999 273.5c192.333 64.667 394.833 97 607.5 97s415.167 -32.333 607.5 -97s368.666 -155.834 529 -273.501c160.333 -117.667 299.333 -256.667 417 -417s208.834 -336.666 273.5 -528.999c64.667 -192.333 97 -394.833 97 -607.5
s-32.333 -415.167 -97 -607.5s-155.834 -368.666 -273.5 -528.999c-117.667 -160.333 -256.667 -299.333 -417 -417s-336.666 -208.834 -529 -273.501c-192.333 -64.667 -394.833 -97 -607.5 -97zM1956 -614.995c181.333 0 353.833 27.501 517.5 82.501
s313.834 132.667 450.5 233c136.667 100.333 255.167 218.833 355.5 355.5s178 287 233 451s82.5 336.333 82.5 517c0 181.333 -27.5 353.833 -82.5 517.5s-132.667 313.834 -233 450.501s-218.833 255.167 -355.5 355.5s-286.834 178 -450.5 233
c-163.667 55 -336.167 82.5 -517.5 82.5s-354 -27.5 -518 -82.5s-314.167 -132.667 -450.5 -233s-254.666 -218.833 -354.999 -355.5s-178 -286.834 -233 -450.501s-82.5 -336.167 -82.5 -517.5s27.5 -353.833 82.5 -517.5s132.667 -313.834 233 -450.501
s218.666 -255.167 354.999 -355.5s286.5 -178 450.5 -233s336.667 -82.5 518 -82.5z" />
    <glyph glyph-name="uni2A38" unicode="&#xf7;&#x20dd;" horiz-adv-x="3912" 
d="M2656 1194v-339h-1400v339h1400zM1956 227c-67.333 0 -124.665 23.667 -171.998 71s-71 104.666 -71 171.999c0 65.333 23.667 121.333 71 168s104.666 70 171.999 70c65.333 0 121.333 -23.333 167.999 -70c46.667 -46.667 70 -102.667 70 -168
c0 -67.333 -23.333 -124.666 -70 -171.999s-102.667 -71 -168 -71zM1956 1340c-44.667 0 -85.334 10.998 -122.001 32.998s-66 51.333 -88 88s-33 77.334 -33 122.001c0 66 23.833 122.167 71.5 168.5s104.834 69.5 171.501 69.5c66 0 122.167 -23.167 168.5 -69.5
s69.5 -102.5 69.5 -168.5c0 -67.333 -23.167 -124.666 -69.5 -171.999s-102.5 -71 -168.5 -71zM1956 -900.002c-212.667 0 -415.168 32.334 -607.501 97.001s-368.666 155.834 -528.999 273.501s-299.333 256.667 -417 417s-208.834 336.666 -273.501 528.999
s-97 394.833 -97 607.5s32.333 415.167 97 607.5s155.834 368.666 273.501 528.999s256.667 299.333 417 417s336.666 208.834 528.999 273.5c192.333 64.667 394.833 97 607.5 97s415.167 -32.333 607.5 -97s368.666 -155.834 529 -273.501
c160.333 -117.667 299.333 -256.667 417 -417s208.834 -336.666 273.5 -528.999c64.667 -192.333 97 -394.833 97 -607.5s-32.333 -415.167 -97 -607.5s-155.834 -368.666 -273.5 -528.999c-117.667 -160.333 -256.667 -299.333 -417 -417
s-336.666 -208.834 -528.999 -273.501s-394.833 -97 -607.5 -97zM1956 -615.001c181.333 0 353.833 27.501 517.5 82.501s313.834 132.667 450.5 233c136.667 100.333 255.167 218.833 355.5 355.5s178 287 233 451s82.5 336.333 82.5 517
c0 181.333 -27.5 353.833 -82.5 517.5s-132.667 313.834 -233 450.501s-218.833 255.167 -355.5 355.5s-286.834 178 -450.5 233c-163.667 55 -336.167 82.5 -517.5 82.5s-354 -27.5 -518 -82.5s-314.167 -132.667 -450.5 -233s-254.666 -218.833 -354.999 -355.5
s-178 -286.834 -233 -450.501s-82.5 -336.167 -82.5 -517.5s27.5 -353.833 82.5 -517.5s132.667 -313.834 233 -450.501s218.666 -255.167 354.999 -355.5s286.5 -178 450.5 -233s336.667 -82.5 518 -82.5z" />
    <glyph glyph-name="uniE12B" unicode="&#x20dd;&#xe06b;" horiz-adv-x="3912" 
d="M2257 1829l164 -85l-774 -1522l-156 95zM1956 -42c-172 0 -319.834 42.165 -443.501 126.498s-218.667 206 -285 365s-99.166 350.5 -98.499 574.5c0 224 33.167 414.5 99.5 571.5s161.333 276.667 285 359s271.167 123.5 442.5 123.5s318.833 -41.167 442.5 -123.5
s218.834 -202.166 285.5 -359.499c66.667 -157.333 99.667 -347.666 99 -570.999c0 -224.667 -33.167 -416.667 -99.5 -576s-161.166 -280.833 -284.5 -364.5c-123.333 -83.667 -271 -125.5 -443 -125.5zM1956 316.998c117.333 0 211.001 58.835 281.001 176.502
s104.667 294.5 104 530.5c0 155.333 -15.833 284.666 -47.5 387.999s-76.334 181 -134.001 233s-125.5 78 -203.5 78c-116.667 0 -210 -58.333 -280 -175s-105.333 -291.334 -106 -524.001c0 -156.667 15.833 -287.5 47.5 -392.5s76.5 -183.667 134.5 -236
s126 -78.5 204 -78.5zM1956 -900c-212.667 0 -415.167 32.334 -607.5 97.001s-368.666 155.834 -528.999 273.501s-299.333 256.667 -417 417s-208.834 336.666 -273.501 528.999s-97 394.833 -97 607.5s32.333 415.167 97 607.5s155.834 368.666 273.501 528.999
s256.667 299.333 417 417s336.666 208.834 528.999 273.5c192.333 64.667 394.833 97 607.5 97s415.167 -32.333 607.5 -97s368.666 -155.834 529 -273.501c160.333 -117.667 299.333 -256.667 417 -417s208.834 -336.666 273.5 -528.999
c64.667 -192.333 97 -394.833 97 -607.5s-32.333 -415.167 -97 -607.5s-155.834 -368.666 -273.5 -528.999c-117.667 -160.333 -256.667 -299.333 -417 -417s-336.666 -208.834 -529 -273.501c-192.333 -64.667 -394.833 -97 -607.5 -97zM1956 -614.999
c181.333 0 353.833 27.501 517.5 82.501s313.834 132.667 450.5 233c136.667 100.333 255.167 218.833 355.5 355.5s178 287 233 451s82.5 336.333 82.5 517c0 181.333 -27.5 353.833 -82.5 517.5s-132.667 313.834 -233 450.501s-218.833 255.167 -355.5 355.5
s-286.834 178 -450.5 233c-163.667 55 -336.167 82.5 -517.5 82.5s-354 -27.5 -518 -82.5s-314.167 -132.667 -450.5 -233s-254.666 -218.833 -354.999 -355.5s-178 -286.834 -233 -450.501s-82.5 -336.167 -82.5 -517.5s27.5 -353.833 82.5 -517.5
s132.667 -313.834 233 -450.501s218.666 -255.167 354.999 -355.5s286.5 -178 450.5 -233s336.667 -82.5 518 -82.5z" />
    <glyph glyph-name="uniE12C" unicode="&#x20dd;&#xe06c;" horiz-adv-x="3912" 
d="M2256 2048l0.00195312 -2048h-432v1518h-19c-14.667 -22.667 -40.5 -45.667 -77.5 -69s-84 -43 -141 -59s-123.167 -24 -198.5 -24v344c66 0 125.833 11.5 179.5 34.5s100.167 52.167 139.5 87.5s69.666 72.333 90.999 111s32.666 73.667 33.999 105h424zM1956 -900
c-212.667 0 -415.167 32.334 -607.5 97.001s-368.666 155.834 -528.999 273.501s-299.333 256.667 -417 417s-208.834 336.666 -273.501 528.999s-97 394.833 -97 607.5s32.333 415.167 97 607.5s155.834 368.666 273.501 528.999s256.667 299.333 417 417
s336.666 208.834 528.999 273.5c192.333 64.667 394.833 97 607.5 97s415.167 -32.333 607.5 -97s368.666 -155.834 529 -273.501c160.333 -117.667 299.333 -256.667 417 -417s208.834 -336.666 273.5 -528.999c64.667 -192.333 97 -394.833 97 -607.5
s-32.333 -415.167 -97 -607.5s-155.834 -368.666 -273.5 -528.999c-117.667 -160.333 -256.667 -299.333 -417 -417s-336.666 -208.834 -529 -273.501c-192.333 -64.667 -394.833 -97 -607.5 -97zM1956 -614.999c181.333 0 353.833 27.501 517.5 82.501
s313.834 132.667 450.5 233c136.667 100.333 255.167 218.833 355.5 355.5s178 287 233 451s82.5 336.333 82.5 517c0 181.333 -27.5 353.833 -82.5 517.5s-132.667 313.834 -233 450.501s-218.833 255.167 -355.5 355.5s-286.834 178 -450.5 233
c-163.667 55 -336.167 82.5 -517.5 82.5s-354 -27.5 -518 -82.5s-314.167 -132.667 -450.5 -233s-254.666 -218.833 -354.999 -355.5s-178 -286.834 -233 -450.501s-82.5 -336.167 -82.5 -517.5s27.5 -353.833 82.5 -517.5s132.667 -313.834 233 -450.501
s218.666 -255.167 354.999 -355.5s286.5 -178 450.5 -233s336.667 -82.5 518 -82.5z" />
    <glyph glyph-name="uniE12D" unicode="&#x20dd;&#xe06d;" horiz-adv-x="3912" 
d="M1172 579h436.999c4 -51.333 21.5 -95.833 52.5 -133.5s71.833 -66.5 122.5 -86.5s106.667 -30 168 -30c66.667 0 125.167 11.333 175.501 34c50.333 22.667 89.833 55.334 118.5 98.001s43 93 43 151c0 56.667 -14.333 107.167 -43 151.5s-71.667 79.333 -129 105
s-128.333 38.5 -213 38.5h-221v301l454 472v14h-862v354h1394v-312l-550 -556v-16c108 -10.667 201.167 -34 279.5 -70s142.5 -80.833 192.5 -134.5s87.333 -112.834 112 -177.501s37 -131 37 -199c0 -120.667 -34.5 -227 -103.5 -319s-162.833 -163.667 -281.5 -215
s-253.334 -77 -404 -77c-150 0 -282.833 25.333 -398.5 76s-207 121.5 -274 212.5s-102.5 197.167 -106.5 318.5zM1956 -900c-212.667 0 -415.168 32.334 -607.501 97.001s-368.666 155.834 -528.999 273.501s-299.333 256.667 -417 417s-208.834 336.666 -273.501 528.999
s-97 394.833 -97 607.5s32.333 415.167 97 607.5s155.834 368.666 273.501 528.999s256.667 299.333 417 417s336.666 208.834 528.999 273.5c192.333 64.667 394.833 97 607.5 97s415.167 -32.333 607.5 -97s368.666 -155.834 529 -273.501
c160.333 -117.667 299.333 -256.667 417 -417s208.834 -336.666 273.5 -528.999c64.667 -192.333 97 -394.833 97 -607.5s-32.333 -415.167 -97 -607.5s-155.834 -368.666 -273.5 -528.999c-117.667 -160.333 -256.667 -299.333 -417 -417
s-336.666 -208.834 -528.999 -273.501s-394.833 -97 -607.5 -97zM1956 -614.999c181.333 0 353.833 27.501 517.5 82.501s313.834 132.667 450.5 233c136.667 100.333 255.167 218.833 355.5 355.5s178 287 233 451s82.5 336.333 82.5 517
c0 181.333 -27.5 353.833 -82.5 517.5s-132.667 313.834 -233 450.501s-218.833 255.167 -355.5 355.5s-286.834 178 -450.5 233c-163.667 55 -336.167 82.5 -517.5 82.5s-354 -27.5 -518 -82.5s-314.167 -132.667 -450.5 -233s-254.666 -218.833 -354.999 -355.5
s-178 -286.834 -233 -450.501s-82.5 -336.167 -82.5 -517.5s27.5 -353.833 82.5 -517.5s132.667 -313.834 233 -450.501s218.666 -255.167 354.999 -355.5s286.5 -178 450.5 -233s336.667 -82.5 518 -82.5z" />
    <glyph glyph-name="uniE12E" unicode="&#x20dd;&#xe06e;" horiz-adv-x="3912" 
d="M1083 360v341l765 1347h417l-747 -1325v-16h1216v-347h-1651zM2066 0v461l12 154v665h395v-1280h-407zM1956 -900c-212.667 0 -415.167 32.334 -607.5 97.001s-368.666 155.834 -528.999 273.501s-299.333 256.667 -417 417s-208.834 336.666 -273.501 528.999
s-97 394.833 -97 607.5s32.333 415.167 97 607.5s155.834 368.666 273.501 528.999s256.667 299.333 417 417s336.666 208.834 528.999 273.5c192.333 64.667 394.833 97 607.5 97s415.167 -32.333 607.5 -97s368.666 -155.834 529 -273.501
c160.333 -117.667 299.333 -256.667 417 -417s208.834 -336.666 273.5 -528.999c64.667 -192.333 97 -394.833 97 -607.5s-32.333 -415.167 -97 -607.5s-155.834 -368.666 -273.5 -528.999c-117.667 -160.333 -256.667 -299.333 -417 -417s-336.666 -208.834 -529 -273.501
c-192.333 -64.667 -394.833 -97 -607.5 -97zM1956 -614.999c181.333 0 353.833 27.501 517.5 82.501s313.834 132.667 450.5 233c136.667 100.333 255.167 218.833 355.5 355.5s178 287 233 451s82.5 336.333 82.5 517c0 181.333 -27.5 353.833 -82.5 517.5
s-132.667 313.834 -233 450.501s-218.833 255.167 -355.5 355.5s-286.834 178 -450.5 233c-163.667 55 -336.167 82.5 -517.5 82.5s-354 -27.5 -518 -82.5s-314.167 -132.667 -450.5 -233s-254.666 -218.833 -354.999 -355.5s-178 -286.834 -233 -450.501
s-82.5 -336.167 -82.5 -517.5s27.5 -353.833 82.5 -517.5s132.667 -313.834 233 -450.501s218.666 -255.167 354.999 -355.5s286.5 -178 450.5 -233s336.667 -82.5 518 -82.5z" />
    <glyph glyph-name="uniE12F" unicode="&#x20dd;&#xe06f;" horiz-adv-x="3912" 
d="M1214 665c0 72 9.50098 143.667 28.501 215s47.833 145 86.5 221s87.667 157.667 147 245l474 702h436l-497 -728c25.333 5.33301 51.5 10.166 78.5 14.499s54.5 6.5 82.5 6.5c126 0 237.667 -28.333 335 -85s173.833 -135 229.5 -235s83.5 -215.667 83.5 -347
c0 -140.667 -31.667 -263.667 -95 -369s-150.333 -187.166 -261 -245.499s-237 -87.5 -379 -87.5c-136.667 0 -261.834 27.333 -375.501 82s-204.5 133.667 -272.5 237s-101.667 228 -101 374zM1637 661c0 -68.667 13.668 -129.334 41.001 -182.001s65.333 -94 114 -124
s105 -45 169 -45c63.333 0 119.166 15 167.499 45s86 71.333 113 124s40.5 112.667 40.5 180c0 68.667 -13.833 129.167 -41.5 181.5s-65.667 93.333 -114 123s-103.5 44.5 -165.5 44.5c-64 0 -120.333 -14.833 -169 -44.5s-86.667 -70.667 -114 -123
s-41 -112.166 -41 -179.499zM1956 -900c-212.667 0 -415.167 32.334 -607.5 97.001s-368.666 155.834 -528.999 273.501s-299.333 256.667 -417 417s-208.834 336.666 -273.501 528.999s-97 394.833 -97 607.5s32.333 415.167 97 607.5s155.834 368.666 273.501 528.999
s256.667 299.333 417 417s336.666 208.834 528.999 273.5c192.333 64.667 394.833 97 607.5 97s415.167 -32.333 607.5 -97s368.666 -155.834 529 -273.501c160.333 -117.667 299.333 -256.667 417 -417s208.834 -336.666 273.5 -528.999
c64.667 -192.333 97 -394.833 97 -607.5s-32.333 -415.167 -97 -607.5s-155.834 -368.666 -273.5 -528.999c-117.667 -160.333 -256.667 -299.333 -417 -417s-336.666 -208.834 -529 -273.501c-192.333 -64.667 -394.833 -97 -607.5 -97zM1956 -614.999
c181.333 0 353.833 27.501 517.5 82.501s313.834 132.667 450.5 233c136.667 100.333 255.167 218.833 355.5 355.5s178 287 233 451s82.5 336.333 82.5 517c0 181.333 -27.5 353.833 -82.5 517.5s-132.667 313.834 -233 450.501s-218.833 255.167 -355.5 355.5
s-286.834 178 -450.5 233c-163.667 55 -336.167 82.5 -517.5 82.5s-354 -27.5 -518 -82.5s-314.167 -132.667 -450.5 -233s-254.666 -218.833 -354.999 -355.5s-178 -286.834 -233 -450.501s-82.5 -336.167 -82.5 -517.5s27.5 -353.833 82.5 -517.5
s132.667 -313.834 233 -450.501s218.666 -255.167 354.999 -355.5s286.5 -178 450.5 -233s336.667 -82.5 518 -82.5z" />
    <glyph glyph-name="uniE130" unicode="&#x20dd;&#xe070;" horiz-adv-x="3912" 
d="M1214 1374c0 140.667 31.668 263.667 95.001 369s150.166 187.166 260.499 245.499s236.833 87.5 379.5 87.5c136 0 260.833 -27.167 374.5 -81.5s204.667 -133.166 273 -236.499s102.5 -228.333 102.5 -375c-0.666992 -72 -10.667 -143.667 -30 -215
s-48.333 -145 -87 -221s-87.334 -157.667 -146.001 -245l-474 -702h-435l496 730c-25.333 -6.66699 -51.5 -12.167 -78.5 -16.5s-54.5 -6.5 -82.5 -6.5c-126.667 0 -238.667 28.333 -336 85s-173.666 135 -228.999 235s-83 215.667 -83 347zM1630 1389
c0 -68.667 13.668 -129.168 41.001 -181.501s65.166 -93.333 113.499 -123s103.833 -44.5 166.5 -44.5c63.333 0 119.333 14.833 167.999 44.5c48.667 29.667 86.834 70.5 114.5 122.5c27.667 52 41.5 112 41.5 180c0 68.667 -13.667 129.334 -41 182.001
s-65.5 94 -114.5 124s-105.167 45 -168.5 45c-62.667 0 -118.167 -15 -166.5 -45s-86.166 -71.333 -113.499 -124s-41 -112.667 -41 -180zM1956 -900.001c-212.667 0 -415.167 32.333 -607.5 97s-368.666 155.834 -528.999 273.501s-299.333 256.667 -417 417
s-208.834 336.666 -273.501 528.999s-97 394.833 -97 607.5s32.333 415.167 97 607.5s155.834 368.666 273.501 528.999s256.667 299.333 417 417s336.666 208.834 528.999 273.5c192.333 64.667 394.833 97 607.5 97s415.167 -32.333 607.5 -97
s368.666 -155.834 529 -273.5c160.333 -117.667 299.333 -256.667 417 -417s208.834 -336.666 273.5 -528.999c64.667 -192.333 97 -394.833 97 -607.5s-32.333 -415.167 -97 -607.5s-155.834 -368.666 -273.5 -528.999c-117.667 -160.333 -256.667 -299.333 -417 -417
s-336.666 -208.834 -529 -273.501c-192.333 -64.667 -394.833 -97 -607.5 -97zM1956 -615.001c181.333 0 353.833 27.501 517.5 82.501s313.834 132.667 450.5 233c136.667 100.333 255.167 218.833 355.5 355.5s178 287 233 451s82.5 336.333 82.5 517
c0 181.333 -27.5 353.833 -82.5 517.5s-132.667 313.834 -233 450.501s-218.833 255.167 -355.5 355.5s-286.834 178 -450.5 233c-163.667 55 -336.167 82.5 -517.5 82.5s-354 -27.5 -518 -82.5s-314.167 -132.667 -450.5 -233s-254.666 -218.833 -354.999 -355.5
s-178 -286.834 -233 -450.501s-82.5 -336.167 -82.5 -517.5s27.5 -353.833 82.5 -517.5s132.667 -313.834 233 -450.501s218.666 -255.167 354.999 -355.5s286.5 -178 450.5 -233s336.667 -82.5 518 -82.5z" />
    <glyph glyph-name="uniE131" unicode="&#x21;&#x20dd;" horiz-adv-x="3912" 
d="M2178 2048l-39 -1434h-366l-40 1434h445zM1956 -26c-66 0 -122.667 23.5 -170 70.5s-70.666 103.5 -69.999 169.5c-0.666992 65.333 22.666 121.333 69.999 168s104 70 170 70c63.333 0 119 -23.333 167 -70s72.333 -102.667 73 -168
c-0.666992 -44 -12.167 -84.167 -34.5 -120.5s-51.5 -65.333 -87.5 -87s-75.333 -32.5 -118 -32.5zM1956 -900c-212.667 0 -415.167 32.334 -607.5 97.001s-368.666 155.834 -528.999 273.501s-299.333 256.667 -417 417s-208.834 336.666 -273.501 528.999
s-97 394.833 -97 607.5s32.333 415.167 97 607.5s155.834 368.666 273.501 528.999s256.667 299.333 417 417s336.666 208.834 528.999 273.5c192.333 64.667 394.833 97 607.5 97s415.167 -32.333 607.5 -97s368.666 -155.834 529 -273.501
c160.333 -117.667 299.333 -256.667 417 -417s208.834 -336.666 273.5 -528.999c64.667 -192.333 97 -394.833 97 -607.5s-32.333 -415.167 -97 -607.5s-155.834 -368.666 -273.5 -528.999c-117.667 -160.333 -256.667 -299.333 -417 -417s-336.666 -208.834 -529 -273.501
c-192.333 -64.667 -394.833 -97 -607.5 -97zM1956 -614.999c181.333 0 353.833 27.501 517.5 82.501s313.834 132.667 450.5 233c136.667 100.333 255.167 218.833 355.5 355.5s178 287 233 451s82.5 336.333 82.5 517c0 181.333 -27.5 353.833 -82.5 517.5
s-132.667 313.834 -233 450.501s-218.833 255.167 -355.5 355.5s-286.834 178 -450.5 233c-163.667 55 -336.167 82.5 -517.5 82.5s-354 -27.5 -518 -82.5s-314.167 -132.667 -450.5 -233s-254.666 -218.833 -354.999 -355.5s-178 -286.834 -233 -450.501
s-82.5 -336.167 -82.5 -517.5s27.5 -353.833 82.5 -517.5s132.667 -313.834 233 -450.501s218.666 -255.167 354.999 -355.5s286.5 -178 450.5 -233s336.667 -82.5 518 -82.5z" />
    <glyph glyph-name="uniE132" unicode="&#x3f;&#x20dd;" horiz-adv-x="3912" 
d="M1739 614l0.00292969 33.9971c0.666992 116.667 11.167 209.667 31.5 279s50.166 125.333 89.499 168s86.666 81.334 141.999 116.001c41.333 26.667 78.333 54.334 111 83.001s58.667 60.5 78 95.5s29 74.167 29 117.5c0 46 -11 86.333 -33 121
s-51.5 61.334 -88.5 80.001s-77.833 28 -122.5 28c-43.333 0 -84.333 -9.5 -123 -28.5s-70.334 -47 -95.001 -84s-38 -82.833 -40 -137.5h-408c3.33301 133.333 35.333 243.5 96 330.5s141 152 241 195s210.333 64.5 331 64.5c132.667 0 250 -21.833 352 -65.5
s182 -106.834 240 -189.501s87 -182.334 87 -299.001c0 -78 -12.833 -147.167 -38.5 -207.5s-61.5 -113.666 -107.5 -159.999s-100.333 -88.166 -163 -125.499c-52.667 -31.333 -95.834 -64 -129.5 -98c-33.667 -34 -58.667 -73.333 -75 -118s-24.833 -99.667 -25.5 -165
v-34h-379zM1937 -26.0029c-66.667 0 -123.5 23.5 -170.5 70.5s-70.167 103.5 -69.5 169.5c-0.666992 65.333 22.5 121.333 69.5 168s103.833 70 170.5 70c63.333 0 119 -23.333 167 -70s72.333 -102.667 73 -168c-0.666992 -44 -12.167 -84.167 -34.5 -120.5
s-51.5 -65.333 -87.5 -87s-75.333 -32.5 -118 -32.5zM1956 -900.003c-212.667 0 -415.168 32.333 -607.501 97s-368.666 155.834 -528.999 273.501s-299.333 256.667 -417 417s-208.834 336.666 -273.501 528.999s-97 394.833 -97 607.5s32.333 415.167 97 607.5
s155.834 368.666 273.501 528.999s256.667 299.333 417 417s336.666 208.834 528.999 273.5c192.333 64.667 394.833 97 607.5 97s415.167 -32.333 607.5 -97s368.666 -155.834 529 -273.5c160.333 -117.667 299.333 -256.667 417 -417s208.834 -336.666 273.5 -528.999
c64.667 -192.333 97 -394.833 97 -607.5s-32.333 -415.167 -97 -607.5s-155.834 -368.666 -273.5 -528.999c-117.667 -160.333 -256.667 -299.333 -417 -417s-336.666 -208.834 -528.999 -273.501s-394.833 -97 -607.5 -97zM1956 -615.003
c181.333 0 353.833 27.501 517.5 82.501s313.834 132.667 450.5 233c136.667 100.333 255.167 218.833 355.5 355.5s178 287 233 451s82.5 336.333 82.5 517c0 181.333 -27.5 353.833 -82.5 517.5s-132.667 313.834 -233 450.501s-218.833 255.167 -355.5 355.5
s-286.834 178 -450.5 233c-163.667 55 -336.167 82.5 -517.5 82.5s-354 -27.5 -518 -82.5s-314.167 -132.667 -450.5 -233s-254.666 -218.833 -354.999 -355.5s-178 -286.834 -233 -450.501s-82.5 -336.167 -82.5 -517.5s27.5 -353.833 82.5 -517.5
s132.667 -313.834 233 -450.501s218.666 -255.167 354.999 -355.5s286.5 -178 450.5 -233s336.667 -82.5 518 -82.5z" />
    <glyph glyph-name="uniE133" unicode="&#x23;&#x20dd;" horiz-adv-x="3912" 
d="M1988 0l336 2048h320l-336 -2048h-320zM1071 508l53 320h1600l-53 -320h-1600zM1268 0l336 2048h320l-336 -2048h-320zM1188 1220l54 320h1600l-54 -320h-1600zM1956 -900c-212.667 0 -415.167 32.334 -607.5 97.001s-368.666 155.834 -528.999 273.501
s-299.333 256.667 -417 417s-208.834 336.666 -273.501 528.999s-97 394.833 -97 607.5s32.333 415.167 97 607.5s155.834 368.666 273.501 528.999s256.667 299.333 417 417s336.666 208.834 528.999 273.5c192.333 64.667 394.833 97 607.5 97s415.167 -32.333 607.5 -97
s368.666 -155.834 529 -273.501c160.333 -117.667 299.333 -256.667 417 -417s208.834 -336.666 273.5 -528.999c64.667 -192.333 97 -394.833 97 -607.5s-32.333 -415.167 -97 -607.5s-155.834 -368.666 -273.5 -528.999c-117.667 -160.333 -256.667 -299.333 -417 -417
s-336.666 -208.834 -529 -273.501c-192.333 -64.667 -394.833 -97 -607.5 -97zM1956 -614.999c181.333 0 353.833 27.501 517.5 82.501s313.834 132.667 450.5 233c136.667 100.333 255.167 218.833 355.5 355.5s178 287 233 451s82.5 336.333 82.5 517
c0 181.333 -27.5 353.833 -82.5 517.5s-132.667 313.834 -233 450.501s-218.833 255.167 -355.5 355.5s-286.834 178 -450.5 233c-163.667 55 -336.167 82.5 -517.5 82.5s-354 -27.5 -518 -82.5s-314.167 -132.667 -450.5 -233s-254.666 -218.833 -354.999 -355.5
s-178 -286.834 -233 -450.501s-82.5 -336.167 -82.5 -517.5s27.5 -353.833 82.5 -517.5s132.667 -313.834 233 -450.501s218.666 -255.167 354.999 -355.5s286.5 -178 450.5 -233s336.667 -82.5 518 -82.5z" />
    <glyph glyph-name="uniE134" unicode="&#x2d;&#x20dd;" horiz-adv-x="3912" 
d="M2423 1193v-338h-934v338h934zM1956 -900c-212.667 0 -415.167 32.334 -607.5 97.001s-368.666 155.834 -528.999 273.501s-299.333 256.667 -417 417s-208.834 336.666 -273.501 528.999s-97 394.833 -97 607.5s32.333 415.167 97 607.5
s155.834 368.666 273.501 528.999s256.667 299.333 417 417s336.666 208.834 528.999 273.5c192.333 64.667 394.833 97 607.5 97s415.167 -32.333 607.5 -97s368.666 -155.834 529 -273.501c160.333 -117.667 299.333 -256.667 417 -417s208.834 -336.666 273.5 -528.999
c64.667 -192.333 97 -394.833 97 -607.5s-32.333 -415.167 -97 -607.5s-155.834 -368.666 -273.5 -528.999c-117.667 -160.333 -256.667 -299.333 -417 -417s-336.666 -208.834 -529 -273.501c-192.333 -64.667 -394.833 -97 -607.5 -97zM1956 -614.999
c181.333 0 353.833 27.501 517.5 82.501s313.834 132.667 450.5 233c136.667 100.333 255.167 218.833 355.5 355.5s178 287 233 451s82.5 336.333 82.5 517c0 181.333 -27.5 353.833 -82.5 517.5s-132.667 313.834 -233 450.501s-218.833 255.167 -355.5 355.5
s-286.834 178 -450.5 233c-163.667 55 -336.167 82.5 -517.5 82.5s-354 -27.5 -518 -82.5s-314.167 -132.667 -450.5 -233s-254.666 -218.833 -354.999 -355.5s-178 -286.834 -233 -450.501s-82.5 -336.167 -82.5 -517.5s27.5 -353.833 82.5 -517.5
s132.667 -313.834 233 -450.501s218.666 -255.167 354.999 -355.5s286.5 -178 450.5 -233s336.667 -82.5 518 -82.5z" />
    <glyph glyph-name="uniE135" unicode="&#x3c;&#x20dd;" horiz-adv-x="3912" 
d="M1212 835v352l1408 620v-405l-964 -387l13 21v-50l-13 21l964 -387v-405zM1956 -900c-212.667 0 -415.167 32.334 -607.5 97.001s-368.666 155.834 -528.999 273.501s-299.333 256.667 -417 417s-208.834 336.666 -273.501 528.999s-97 394.833 -97 607.5
s32.333 415.167 97 607.5s155.834 368.666 273.501 528.999s256.667 299.333 417 417s336.666 208.834 528.999 273.5c192.333 64.667 394.833 97 607.5 97s415.167 -32.333 607.5 -97s368.666 -155.834 529 -273.501c160.333 -117.667 299.333 -256.667 417 -417
s208.834 -336.666 273.5 -528.999c64.667 -192.333 97 -394.833 97 -607.5s-32.333 -415.167 -97 -607.5s-155.834 -368.666 -273.5 -528.999c-117.667 -160.333 -256.667 -299.333 -417 -417s-336.666 -208.834 -529 -273.501c-192.333 -64.667 -394.833 -97 -607.5 -97z
M1956 -614.999c181.333 0 353.833 27.501 517.5 82.501s313.834 132.667 450.5 233c136.667 100.333 255.167 218.833 355.5 355.5s178 287 233 451s82.5 336.333 82.5 517c0 181.333 -27.5 353.833 -82.5 517.5s-132.667 313.834 -233 450.501
s-218.833 255.167 -355.5 355.5s-286.834 178 -450.5 233c-163.667 55 -336.167 82.5 -517.5 82.5s-354 -27.5 -518 -82.5s-314.167 -132.667 -450.5 -233s-254.666 -218.833 -354.999 -355.5s-178 -286.834 -233 -450.501s-82.5 -336.167 -82.5 -517.5
s27.5 -353.833 82.5 -517.5s132.667 -313.834 233 -450.501s218.666 -255.167 354.999 -355.5s286.5 -178 450.5 -233s336.667 -82.5 518 -82.5z" />
    <glyph glyph-name="uniE136" unicode="&#x3e;&#x20dd;" horiz-adv-x="3912" 
d="M2700 835l-1408 -620v405l964 387l-13 -21v50l13 -21l-964 387v405l1408 -620v-352zM1956 -900c-212.667 0 -415.167 32.334 -607.5 97.001s-368.666 155.834 -528.999 273.501s-299.333 256.667 -417 417s-208.834 336.666 -273.501 528.999s-97 394.833 -97 607.5
s32.333 415.167 97 607.5s155.834 368.666 273.501 528.999s256.667 299.333 417 417s336.666 208.834 528.999 273.5c192.333 64.667 394.833 97 607.5 97s415.167 -32.333 607.5 -97s368.666 -155.834 529 -273.501c160.333 -117.667 299.333 -256.667 417 -417
s208.834 -336.666 273.5 -528.999c64.667 -192.333 97 -394.833 97 -607.5s-32.333 -415.167 -97 -607.5s-155.834 -368.666 -273.5 -528.999c-117.667 -160.333 -256.667 -299.333 -417 -417s-336.666 -208.834 -529 -273.501c-192.333 -64.667 -394.833 -97 -607.5 -97z
M1956 -614.999c181.333 0 353.833 27.501 517.5 82.501s313.834 132.667 450.5 233c136.667 100.333 255.167 218.833 355.5 355.5s178 287 233 451s82.5 336.333 82.5 517c0 181.333 -27.5 353.833 -82.5 517.5s-132.667 313.834 -233 450.501
s-218.833 255.167 -355.5 355.5s-286.834 178 -450.5 233c-163.667 55 -336.167 82.5 -517.5 82.5s-354 -27.5 -518 -82.5s-314.167 -132.667 -450.5 -233s-254.666 -218.833 -354.999 -355.5s-178 -286.834 -233 -450.501s-82.5 -336.167 -82.5 -517.5
s27.5 -353.833 82.5 -517.5s132.667 -313.834 233 -450.501s218.666 -255.167 354.999 -355.5s286.5 -178 450.5 -233s336.667 -82.5 518 -82.5z" />
    <glyph glyph-name="uniE137" unicode="&#x3d;&#x20dd;" horiz-adv-x="3912" 
d="M1265 1179v355h1381v-355h-1381zM1265 515v355h1381v-355h-1381zM1956 -900c-212.667 0 -415.167 32.334 -607.5 97.001s-368.666 155.834 -528.999 273.501s-299.333 256.667 -417 417s-208.834 336.666 -273.501 528.999s-97 394.833 -97 607.5
s32.333 415.167 97 607.5s155.834 368.666 273.501 528.999s256.667 299.333 417 417s336.666 208.834 528.999 273.5c192.333 64.667 394.833 97 607.5 97s415.167 -32.333 607.5 -97s368.666 -155.834 529 -273.501c160.333 -117.667 299.333 -256.667 417 -417
s208.834 -336.666 273.5 -528.999c64.667 -192.333 97 -394.833 97 -607.5s-32.333 -415.167 -97 -607.5s-155.834 -368.666 -273.5 -528.999c-117.667 -160.333 -256.667 -299.333 -417 -417s-336.666 -208.834 -529 -273.501c-192.333 -64.667 -394.833 -97 -607.5 -97z
M1956 -614.999c181.333 0 353.833 27.501 517.5 82.501s313.834 132.667 450.5 233c136.667 100.333 255.167 218.833 355.5 355.5s178 287 233 451s82.5 336.333 82.5 517c0 181.333 -27.5 353.833 -82.5 517.5s-132.667 313.834 -233 450.501
s-218.833 255.167 -355.5 355.5s-286.834 178 -450.5 233c-163.667 55 -336.167 82.5 -517.5 82.5s-354 -27.5 -518 -82.5s-314.167 -132.667 -450.5 -233s-254.666 -218.833 -354.999 -355.5s-178 -286.834 -233 -450.501s-82.5 -336.167 -82.5 -517.5
s27.5 -353.833 82.5 -517.5s132.667 -313.834 233 -450.501s218.666 -255.167 354.999 -355.5s286.5 -178 450.5 -233s336.667 -82.5 518 -82.5z" />
    <glyph glyph-name="uniE138" unicode="&#x20dd;&#x2191;" horiz-adv-x="3912" 
d="M1789 0v1429l-533 -535l-234 232l936 934l934 -934l-230 -232l-535 535v-1429h-338zM1956 -900c-212.667 0 -415.167 32.334 -607.5 97.001s-368.666 155.834 -528.999 273.501s-299.333 256.667 -417 417s-208.834 336.666 -273.501 528.999s-97 394.833 -97 607.5
s32.333 415.167 97 607.5s155.834 368.666 273.501 528.999s256.667 299.333 417 417s336.666 208.834 528.999 273.5c192.333 64.667 394.833 97 607.5 97s415.167 -32.333 607.5 -97s368.666 -155.834 529 -273.501c160.333 -117.667 299.333 -256.667 417 -417
s208.834 -336.666 273.5 -528.999c64.667 -192.333 97 -394.833 97 -607.5s-32.333 -415.167 -97 -607.5s-155.834 -368.666 -273.5 -528.999c-117.667 -160.333 -256.667 -299.333 -417 -417s-336.666 -208.834 -529 -273.501c-192.333 -64.667 -394.833 -97 -607.5 -97z
M1956 -614.999c181.333 0 353.833 27.501 517.5 82.501s313.834 132.667 450.5 233c136.667 100.333 255.167 218.833 355.5 355.5s178 287 233 451s82.5 336.333 82.5 517c0 181.333 -27.5 353.833 -82.5 517.5s-132.667 313.834 -233 450.501
s-218.833 255.167 -355.5 355.5s-286.834 178 -450.5 233c-163.667 55 -336.167 82.5 -517.5 82.5s-354 -27.5 -518 -82.5s-314.167 -132.667 -450.5 -233s-254.666 -218.833 -354.999 -355.5s-178 -286.834 -233 -450.501s-82.5 -336.167 -82.5 -517.5
s27.5 -353.833 82.5 -517.5s132.667 -313.834 233 -450.501s218.666 -255.167 354.999 -355.5s286.5 -178 450.5 -233s336.667 -82.5 518 -82.5z" />
    <glyph glyph-name="uniE139" unicode="&#x20dd;&#x2193;" horiz-adv-x="3912" 
d="M2125 2048v-1429l533 535l234 -232l-936 -934l-934 934l230 232l535 -535v1429h338zM1956 -900c-212.667 0 -415.167 32.334 -607.5 97.001s-368.666 155.834 -528.999 273.501s-299.333 256.667 -417 417s-208.834 336.666 -273.501 528.999s-97 394.833 -97 607.5
s32.333 415.167 97 607.5s155.834 368.666 273.501 528.999s256.667 299.333 417 417s336.666 208.834 528.999 273.5c192.333 64.667 394.833 97 607.5 97s415.167 -32.333 607.5 -97s368.666 -155.834 529 -273.501c160.333 -117.667 299.333 -256.667 417 -417
s208.834 -336.666 273.5 -528.999c64.667 -192.333 97 -394.833 97 -607.5s-32.333 -415.167 -97 -607.5s-155.834 -368.666 -273.5 -528.999c-117.667 -160.333 -256.667 -299.333 -417 -417s-336.666 -208.834 -529 -273.501c-192.333 -64.667 -394.833 -97 -607.5 -97z
M1956 -614.999c181.333 0 353.833 27.501 517.5 82.501s313.834 132.667 450.5 233c136.667 100.333 255.167 218.833 355.5 355.5s178 287 233 451s82.5 336.333 82.5 517c0 181.333 -27.5 353.833 -82.5 517.5s-132.667 313.834 -233 450.501
s-218.833 255.167 -355.5 355.5s-286.834 178 -450.5 233c-163.667 55 -336.167 82.5 -517.5 82.5s-354 -27.5 -518 -82.5s-314.167 -132.667 -450.5 -233s-254.666 -218.833 -354.999 -355.5s-178 -286.834 -233 -450.501s-82.5 -336.167 -82.5 -517.5
s27.5 -353.833 82.5 -517.5s132.667 -313.834 233 -450.501s218.666 -255.167 354.999 -355.5s286.5 -178 450.5 -233s336.667 -82.5 518 -82.5z" />
    <glyph glyph-name="uniE13A" unicode="&#x20dd;&#x2190;" horiz-adv-x="3912" 
d="M1936 16l-1008 1008l1008 1008l232 -230l-609 -609h1427v-338h-1427l609 -608zM1956 -900c-212.667 0 -415.167 32.334 -607.5 97.001s-368.666 155.834 -528.999 273.501s-299.333 256.667 -417 417s-208.834 336.666 -273.501 528.999s-97 394.833 -97 607.5
s32.333 415.167 97 607.5s155.834 368.666 273.501 528.999s256.667 299.333 417 417s336.666 208.834 528.999 273.5c192.333 64.667 394.833 97 607.5 97s415.167 -32.333 607.5 -97s368.666 -155.834 529 -273.501c160.333 -117.667 299.333 -256.667 417 -417
s208.834 -336.666 273.5 -528.999c64.667 -192.333 97 -394.833 97 -607.5s-32.333 -415.167 -97 -607.5s-155.834 -368.666 -273.5 -528.999c-117.667 -160.333 -256.667 -299.333 -417 -417s-336.666 -208.834 -529 -273.501c-192.333 -64.667 -394.833 -97 -607.5 -97z
M1956 -614.999c181.333 0 353.833 27.501 517.5 82.501s313.834 132.667 450.5 233c136.667 100.333 255.167 218.833 355.5 355.5s178 287 233 451s82.5 336.333 82.5 517c0 181.333 -27.5 353.833 -82.5 517.5s-132.667 313.834 -233 450.501
s-218.833 255.167 -355.5 355.5s-286.834 178 -450.5 233c-163.667 55 -336.167 82.5 -517.5 82.5s-354 -27.5 -518 -82.5s-314.167 -132.667 -450.5 -233s-254.666 -218.833 -354.999 -355.5s-178 -286.834 -233 -450.501s-82.5 -336.167 -82.5 -517.5
s27.5 -353.833 82.5 -517.5s132.667 -313.834 233 -450.501s218.666 -255.167 354.999 -355.5s286.5 -178 450.5 -233s336.667 -82.5 518 -82.5z" />
    <glyph glyph-name="uniE13B" unicode="&#x20dd;&#x2192;" horiz-adv-x="3912" 
d="M1978 16l-232 230l609 609h-1427v338h1427l-609 608l232 231l1008 -1008zM1956 -900c-212.667 0 -415.167 32.334 -607.5 97.001s-368.666 155.834 -528.999 273.501s-299.333 256.667 -417 417s-208.834 336.666 -273.501 528.999s-97 394.833 -97 607.5
s32.333 415.167 97 607.5s155.834 368.666 273.501 528.999s256.667 299.333 417 417s336.666 208.834 528.999 273.5c192.333 64.667 394.833 97 607.5 97s415.167 -32.333 607.5 -97s368.666 -155.834 529 -273.501c160.333 -117.667 299.333 -256.667 417 -417
s208.834 -336.666 273.5 -528.999c64.667 -192.333 97 -394.833 97 -607.5s-32.333 -415.167 -97 -607.5s-155.834 -368.666 -273.5 -528.999c-117.667 -160.333 -256.667 -299.333 -417 -417s-336.666 -208.834 -529 -273.501c-192.333 -64.667 -394.833 -97 -607.5 -97z
M1956 -614.999c181.333 0 353.833 27.501 517.5 82.501s313.834 132.667 450.5 233c136.667 100.333 255.167 218.833 355.5 355.5s178 287 233 451s82.5 336.333 82.5 517c0 181.333 -27.5 353.833 -82.5 517.5s-132.667 313.834 -233 450.501
s-218.833 255.167 -355.5 355.5s-286.834 178 -450.5 233c-163.667 55 -336.167 82.5 -517.5 82.5s-354 -27.5 -518 -82.5s-314.167 -132.667 -450.5 -233s-254.666 -218.833 -354.999 -355.5s-178 -286.834 -233 -450.501s-82.5 -336.167 -82.5 -517.5
s27.5 -353.833 82.5 -517.5s132.667 -313.834 233 -450.501s218.666 -255.167 354.999 -355.5s286.5 -178 450.5 -233s336.667 -82.5 518 -82.5z" />
    <glyph glyph-name="uniE13C" unicode="&#x20dd;&#x2713;" horiz-adv-x="3912" 
d="M968 968l282 283l463 -455l1027 1023l284 -283l-1311 -1304zM1956 -900c-212.667 0 -415.167 32.334 -607.5 97.001s-368.666 155.834 -528.999 273.501s-299.333 256.667 -417 417s-208.834 336.666 -273.501 528.999s-97 394.833 -97 607.5s32.333 415.167 97 607.5
s155.834 368.666 273.501 528.999s256.667 299.333 417 417s336.666 208.834 528.999 273.5c192.333 64.667 394.833 97 607.5 97s415.167 -32.333 607.5 -97s368.666 -155.834 529 -273.501c160.333 -117.667 299.333 -256.667 417 -417s208.834 -336.666 273.5 -528.999
c64.667 -192.333 97 -394.833 97 -607.5s-32.333 -415.167 -97 -607.5s-155.834 -368.666 -273.5 -528.999c-117.667 -160.333 -256.667 -299.333 -417 -417s-336.666 -208.834 -529 -273.501c-192.333 -64.667 -394.833 -97 -607.5 -97zM1956 -614.999
c181.333 0 353.833 27.501 517.5 82.501s313.834 132.667 450.5 233c136.667 100.333 255.167 218.833 355.5 355.5s178 287 233 451s82.5 336.333 82.5 517c0 181.333 -27.5 353.833 -82.5 517.5s-132.667 313.834 -233 450.501s-218.833 255.167 -355.5 355.5
s-286.834 178 -450.5 233c-163.667 55 -336.167 82.5 -517.5 82.5s-354 -27.5 -518 -82.5s-314.167 -132.667 -450.5 -233s-254.666 -218.833 -354.999 -355.5s-178 -286.834 -233 -450.501s-82.5 -336.167 -82.5 -517.5s27.5 -353.833 82.5 -517.5
s132.667 -313.834 233 -450.501s218.666 -255.167 354.999 -355.5s286.5 -178 450.5 -233s336.667 -82.5 518 -82.5z" />
    <glyph glyph-name="uniE13D" unicode="&#x20dd;&#x2717;" horiz-adv-x="3912" 
d="M1451 238l-283 283l1295 1289l283 -283zM2461 238l-1295 1289l283 283l1295 -1289zM1956 -900c-212.667 0 -415.167 32.334 -607.5 97.001s-368.666 155.834 -528.999 273.501s-299.333 256.667 -417 417s-208.834 336.666 -273.501 528.999s-97 394.833 -97 607.5
s32.333 415.167 97 607.5s155.834 368.666 273.501 528.999s256.667 299.333 417 417s336.666 208.834 528.999 273.5c192.333 64.667 394.833 97 607.5 97s415.167 -32.333 607.5 -97s368.666 -155.834 529 -273.501c160.333 -117.667 299.333 -256.667 417 -417
s208.834 -336.666 273.5 -528.999c64.667 -192.333 97 -394.833 97 -607.5s-32.333 -415.167 -97 -607.5s-155.834 -368.666 -273.5 -528.999c-117.667 -160.333 -256.667 -299.333 -417 -417s-336.666 -208.834 -529 -273.501c-192.333 -64.667 -394.833 -97 -607.5 -97z
M1956 -614.999c181.333 0 353.833 27.501 517.5 82.501s313.834 132.667 450.5 233c136.667 100.333 255.167 218.833 355.5 355.5s178 287 233 451s82.5 336.333 82.5 517c0 181.333 -27.5 353.833 -82.5 517.5s-132.667 313.834 -233 450.501
s-218.833 255.167 -355.5 355.5s-286.834 178 -450.5 233c-163.667 55 -336.167 82.5 -517.5 82.5s-354 -27.5 -518 -82.5s-314.167 -132.667 -450.5 -233s-254.666 -218.833 -354.999 -355.5s-178 -286.834 -233 -450.501s-82.5 -336.167 -82.5 -517.5
s27.5 -353.833 82.5 -517.5s132.667 -313.834 233 -450.501s218.666 -255.167 354.999 -355.5s286.5 -178 450.5 -233s336.667 -82.5 518 -82.5z" />
    <glyph glyph-name="uniE13E" unicode="&#x30;&#x20de;" horiz-adv-x="3912" 
d="M1956 -45c-172 0.666992 -319.834 43.002 -443.501 127.002s-218.667 205.667 -285 365s-99.166 351 -98.499 575c0 223.333 33.167 413.666 99.5 570.999s161.333 277.166 285 359.499s271.167 123.5 442.5 123.5s318.833 -41.333 442.5 -124
s218.834 -202.5 285.5 -359.5c66.667 -157 99.667 -347.167 99 -570.5c0 -224.667 -33.167 -416.667 -99.5 -576s-161.166 -281 -284.5 -365c-123.333 -84 -271 -126 -443 -126zM1956 314.002c117.333 0 211.001 59.002 281.001 177.002s104.667 295 104 531
c0 155.333 -15.833 284.666 -47.5 387.999s-76.334 181 -134.001 233s-125.5 78 -203.5 78c-116.667 0 -210 -58.333 -280 -175s-105.333 -291.334 -106 -524.001c0 -157.333 15.833 -288.5 47.5 -393.5s76.5 -183.667 134.5 -236s126 -78.5 204 -78.5zM444 -831.996
c-112 0 -197.333 29.333 -256 88s-88 144 -88 256v3024c0 112 29.333 197.333 88 256s144 88 256 88h3024c112 0 197.333 -29.333 256 -88s88 -144 88 -256v-3024c0 -112 -29.333 -197.333 -88 -256s-144 -88 -256 -88h-3024zM425 -546.996h3061
c12.667 0 22.667 3.83301 30 11.5s11 17.5 11 29.5v3060c0 12.667 -3.66699 22.667 -11 30s-17.333 11 -30 11h-3061c-11.333 0 -20.833 -3.66699 -28.5 -11s-11.5 -17.333 -11.5 -30v-3060c0 -12 3.83301 -21.833 11.5 -29.5s17.167 -11.5 28.5 -11.5z" />
    <glyph glyph-name="uniE13F" unicode="&#x31;&#x20de;" horiz-adv-x="3912" 
d="M2224 2048v-2048h-433v1637h-12l-469 -294v384l507 321h407zM444 -832c-112 0 -197.333 29.333 -256 88s-88 144 -88 256v3024c0 112 29.333 197.333 88 256s144 88 256 88h3024c112 0 197.333 -29.333 256 -88s88 -144 88 -256v-3024c0 -112 -29.333 -197.333 -88 -256
s-144 -88 -256 -88h-3024zM425 -547h3061c12.667 0 22.667 3.83301 30 11.5s11 17.5 11 29.5v3060c0 12.667 -3.66699 22.667 -11 30s-17.333 11 -30 11h-3061c-11.333 0 -20.833 -3.66699 -28.5 -11s-11.5 -17.333 -11.5 -30v-3060c0 -12 3.83301 -21.833 11.5 -29.5
s17.167 -11.5 28.5 -11.5z" />
    <glyph glyph-name="uniE140" unicode="&#x32;&#x20de;" horiz-adv-x="3912" 
d="M1238 0v311.996l729 675c62 60 114.167 114 156.5 162s74.5 95.167 96.5 141.5s33 96.5 33 150.5c0 60 -13.667 111.833 -41 155.5s-64.666 77.334 -111.999 101.001s-101 35.5 -161 35.5c-62.667 0 -117.334 -12.667 -164.001 -38s-82.667 -61.666 -108 -108.999
s-38 -103.666 -38 -168.999h-411c0 134 30.333 250.333 91 349s145.667 175 255 229s235.333 81 378 81c146.667 0 274.5 -25.833 383.5 -77.5s193.833 -123.167 254.5 -214.5s91 -196 91 -314c0 -77.333 -15.167 -153.666 -45.5 -228.999s-84.166 -158.833 -161.5 -250.5
c-77.333 -91.667 -186.333 -201.5 -327 -329.5l-299 -293v-14h860v-354h-1460zM444 -832.004c-112 0 -197.333 29.333 -256 88s-88 144 -88 256v3024c0 112 29.333 197.333 88 256s144 88 256 88h3024c112 0 197.333 -29.333 256 -88s88 -144 88 -256v-3024
c0 -112 -29.333 -197.333 -88 -256s-144 -88 -256 -88h-3024zM425 -547.004h3061c12.667 0 22.667 3.83301 30 11.5s11 17.5 11 29.5v3060c0 12.667 -3.66699 22.667 -11 30s-17.333 11 -30 11h-3061c-11.333 0 -20.833 -3.66699 -28.5 -11s-11.5 -17.333 -11.5 -30v-3060
c0 -12 3.83301 -21.833 11.5 -29.5s17.167 -11.5 28.5 -11.5z" />
    <glyph glyph-name="uniE141" unicode="&#x33;&#x20de;" horiz-adv-x="3912" 
d="M1945 -28c-149.333 0 -282.167 25.8379 -398.5 77.5049s-208 123 -275 214s-101.5 196.167 -103.5 315.5h436c2.66699 -50 19.167 -93.833 49.5 -131.5s70.833 -66.834 121.5 -87.501s107.667 -31 171 -31c66 0 124.333 11.667 175 35s90.334 55.666 119 96.999
c28.667 41.333 43 89 43 143c0 54.667 -15.167 103.167 -45.5 145.5s-73.666 75.5 -129.999 99.5s-123.166 36 -200.499 36h-191v318h191c65.333 0 123.166 11.333 173.499 34s89.5 54.167 117.5 94.5s42 87.5 42 141.5c0 51.333 -12.167 96.5 -36.5 135.5
s-58.333 69.5 -102 91.5s-94.5 33 -152.5 33c-58.667 0 -112.334 -10.5 -161.001 -31.5s-87.667 -50.833 -117 -89.5s-45 -84 -47 -136h-415c2 118 35.667 222 101 312s153.5 160.5 264.5 211.5s236.5 76.5 376.5 76.5c141.333 0 265 -25.667 371 -77
s188.5 -120.5 247.5 -207.5s88.167 -184.5 87.5 -292.5c0.666992 -114.667 -34.833 -210.334 -106.5 -287.001s-164.834 -125.334 -279.5 -146.001v-16c150.667 -19.333 265.5 -71.5 344.5 -156.5s118.167 -191.167 117.5 -318.5
c0.666992 -116.667 -32.833 -220.334 -100.5 -311.001s-160.834 -162 -279.5 -214c-118.667 -52 -254.667 -78 -408 -78zM443.999 -831.995c-112 0 -197.333 29.333 -256 88s-88 144 -88 256v3024c0 112 29.333 197.333 88 256s144 88 256 88h3024
c112 0 197.333 -29.333 256 -88s88 -144 88 -256v-3024c0 -112 -29.333 -197.333 -88 -256s-144 -88 -256 -88h-3024zM424.999 -546.995h3061c12.667 0 22.667 3.83301 30 11.5s11 17.5 11 29.5v3060c0 12.667 -3.66699 22.667 -11 30s-17.333 11 -30 11h-3061
c-11.333 0 -20.833 -3.66699 -28.5 -11s-11.5 -17.333 -11.5 -30v-3060c0 -12 3.83301 -21.833 11.5 -29.5s17.167 -11.5 28.5 -11.5z" />
    <glyph glyph-name="uniE142" unicode="&#x34;&#x20de;" horiz-adv-x="3912" 
d="M1075 360v341l855 1347h294v-472h-174l-539 -853v-16h1215v-347h-1651zM2058 0v464l8 151v1433h406v-2048h-414zM444 -832c-112 0 -197.333 29.333 -256 88s-88 144 -88 256v3024c0 112 29.333 197.333 88 256s144 88 256 88h3024c112 0 197.333 -29.333 256 -88
s88 -144 88 -256v-3024c0 -112 -29.333 -197.333 -88 -256s-144 -88 -256 -88h-3024zM425 -547h3061c12.667 0 22.667 3.83301 30 11.5s11 17.5 11 29.5v3060c0 12.667 -3.66699 22.667 -11 30s-17.333 11 -30 11h-3061c-11.333 0 -20.833 -3.66699 -28.5 -11
s-11.5 -17.333 -11.5 -30v-3060c0 -12 3.83301 -21.833 11.5 -29.5s17.167 -11.5 28.5 -11.5z" />
    <glyph glyph-name="uniE143" unicode="&#x35;&#x20de;" horiz-adv-x="3912" 
d="M1944 -28c-141.333 0 -267.168 25.999 -377.501 77.999s-197.833 123.667 -262.5 215s-98.334 196 -101.001 314h420c4.66699 -79.333 38 -143.666 100 -192.999s135.667 -74 221 -74c68 0 128.167 15.167 180.5 45.5s93.333 72.666 123 126.999s44.5 116.833 44.5 187.5
c0 72 -15.167 135.333 -45.5 190s-72.166 97.334 -125.499 128.001s-114.333 46.334 -183 47.001c-60 0 -118.167 -12.333 -174.5 -37s-100.166 -58.334 -131.499 -101.001l-385 69l97 1080h1252v-354h-895l-53 -513h12c36 50.667 90.333 92.667 163 126s154 50 244 50
c123.333 0 233.333 -29 330 -87s173 -137.5 229 -238.5s83.667 -217.167 83 -348.5c0.666992 -138 -31.166 -260.5 -95.5 -367.5c-64.333 -107 -154 -191 -269 -252s-248.5 -91.5 -400.5 -91.5zM443.998 -832.001c-112 0 -197.333 29.333 -256 88s-88 144 -88 256v3024
c0 112 29.333 197.333 88 256s144 88 256 88h3024c112 0 197.333 -29.333 256 -88s88 -144 88 -256v-3024c0 -112 -29.333 -197.333 -88 -256s-144 -88 -256 -88h-3024zM424.998 -547.001h3061c12.667 0 22.667 3.83301 30 11.5s11 17.5 11 29.5v3060
c0 12.667 -3.66699 22.667 -11 30s-17.333 11 -30 11h-3061c-11.333 0 -20.833 -3.66699 -28.5 -11s-11.5 -17.333 -11.5 -30v-3060c0 -12 3.83301 -21.833 11.5 -29.5s17.167 -11.5 28.5 -11.5z" />
    <glyph glyph-name="uniE144" unicode="&#x36;&#x20de;" horiz-adv-x="3912" 
d="M1962 -28c-105.333 0.666992 -206.833 18.332 -304.5 52.999s-185 91 -262 169s-138 181.333 -183 310s-67.833 286.667 -68.5 474c0.666992 173.333 20.5 328.333 59.5 465s95 252.5 168 347.5s160.5 167.333 262.5 217s216.333 74.5 343 74.5
c136.667 0 257.334 -26.667 362 -80c104.667 -53.333 188.834 -125.666 252.5 -216.999c63.667 -91.333 102.167 -194.333 115.5 -309h-427c-16.667 74.667 -51.667 132.5 -105 173.5s-119.333 61.5 -198 61.5c-133.333 0 -234.5 -58.167 -303.5 -174.5
s-104.167 -275.833 -105.5 -478.5h14c30.667 60.667 72.167 112.5 124.5 155.5s112 76 179 99s137.833 34.5 212.5 34.5c121.333 0 229.333 -28.5 324 -85.5s169.334 -135.167 224 -234.5c54.667 -99.333 82 -213 82 -341c0 -138.667 -32.167 -262 -96.5 -370
s-154 -192.5 -269 -253.5s-248.5 -91.167 -400.5 -90.5zM1960 311.998c66.667 0 126.334 16.001 179.001 48.001s94 75.333 124 130s45 116 45 184s-14.833 129 -44.5 183s-70.5 97 -122.5 129s-111.333 48 -178 48c-50 0 -96.167 -9.33301 -138.5 -28
s-79.333 -44.667 -111 -78s-56.5 -71.833 -74.5 -115.5s-27 -90.167 -27 -139.5c0 -66 15.167 -126.333 45.5 -181s71.666 -98.334 123.999 -131.001s111.833 -49 178.5 -49zM444 -832.001c-112 0 -197.333 29.333 -256 88s-88 144 -88 256v3024
c0 112 29.333 197.333 88 256s144 88 256 88h3024c112 0 197.333 -29.333 256 -88s88 -144 88 -256v-3024c0 -112 -29.333 -197.333 -88 -256s-144 -88 -256 -88h-3024zM425 -547.001h3061c12.667 0 22.667 3.83301 30 11.5s11 17.5 11 29.5v3060
c0 12.667 -3.66699 22.667 -11 30s-17.333 11 -30 11h-3061c-11.333 0 -20.833 -3.66699 -28.5 -11s-11.5 -17.333 -11.5 -30v-3060c0 -12 3.83301 -21.833 11.5 -29.5s17.167 -11.5 28.5 -11.5z" />
    <glyph glyph-name="uniE145" unicode="&#x37;&#x20de;" horiz-adv-x="3912" 
d="M1417 0l849 1680v14h-989v354h1437v-359l-850 -1689h-447zM444 -832c-112 0 -197.333 29.333 -256 88s-88 144 -88 256v3024c0 112 29.333 197.333 88 256s144 88 256 88h3024c112 0 197.333 -29.333 256 -88s88 -144 88 -256v-3024c0 -112 -29.333 -197.333 -88 -256
s-144 -88 -256 -88h-3024zM425 -547h3061c12.667 0 22.667 3.83301 30 11.5s11 17.5 11 29.5v3060c0 12.667 -3.66699 22.667 -11 30s-17.333 11 -30 11h-3061c-11.333 0 -20.833 -3.66699 -28.5 -11s-11.5 -17.333 -11.5 -30v-3060c0 -12 3.83301 -21.833 11.5 -29.5
s17.167 -11.5 28.5 -11.5z" />
    <glyph glyph-name="uniE146" unicode="&#x38;&#x20de;" horiz-adv-x="3912" 
d="M1956 -28c-154 0 -290.832 25.167 -410.499 75.5s-213.5 119.166 -281.5 206.499s-102 186.333 -102 297c0 85.333 19.5 163.833 58.5 235.5s92.167 131.334 159.5 179.001s142.666 78.167 225.999 91.5v14c-109.333 22 -198 75.167 -266 159.5s-102 182.5 -102 294.5
c0 106 31 200.5 93 283.5s147.167 148.333 255.5 196s231.5 71.5 369.5 71.5s261.167 -24 369.5 -72s193.5 -113.5 255.5 -196.5s93.333 -177.167 94 -282.5c-0.666992 -112.667 -35.334 -211 -104 -295c-68.667 -84 -156.667 -137 -264 -159v-14
c82 -13.333 156.5 -43.833 223.5 -91.5s120.333 -107.334 160 -179.001s59.834 -150.167 60.5 -235.5c-0.666992 -110.667 -35 -209.667 -103 -297s-161.833 -156.166 -281.5 -206.499s-256.5 -75.5 -410.5 -75.5zM1956 290c68.667 0 128.667 12.5 180 37.5
s91.5 59.667 120.5 104s43.5 95.5 43.5 153.5c0 59.333 -15 111.833 -45 157.5s-70.667 81.667 -122 108s-110.333 39.5 -177 39.5c-66 0 -125 -13.167 -177 -39.5s-92.833 -62.333 -122.5 -108s-44.5 -98.167 -44.5 -157.5c0 -58 14.333 -109.167 43 -153.5
s69 -79 121 -104s112 -37.5 180 -37.5zM1956 1205c57.333 0 108.333 11.667 153 35s79.667 55.666 105 96.999s38 89 38 143c0 53.333 -12.667 100.166 -38 140.499s-60 72 -104 95s-95.333 34.5 -154 34.5c-58 0 -109.333 -11.5 -154 -34.5s-79.5 -54.667 -104.5 -95
s-37.5 -87.166 -37.5 -140.499c0 -54 12.667 -101.667 38 -143s60.333 -73.666 105 -96.999s95.667 -35 153 -35zM444.001 -832c-112 0 -197.333 29.333 -256 88s-88 144 -88 256v3024c0 112 29.333 197.333 88 256s144 88 256 88h3024c112 0 197.333 -29.333 256 -88
s88 -144 88 -256v-3024c0 -112 -29.333 -197.333 -88 -256s-144 -88 -256 -88h-3024zM425.001 -547h3061c12.667 0 22.667 3.83301 30 11.5s11 17.5 11 29.5v3060c0 12.667 -3.66699 22.667 -11 30s-17.333 11 -30 11h-3061c-11.333 0 -20.833 -3.66699 -28.5 -11
s-11.5 -17.333 -11.5 -30v-3060c0 -12 3.83301 -21.833 11.5 -29.5s17.167 -11.5 28.5 -11.5z" />
    <glyph glyph-name="uniE147" unicode="&#x39;&#x20de;" horiz-adv-x="3912" 
d="M1938 2082c105.333 0 206.836 -17.5049 304.502 -52.5049c97.667 -35 185 -91.5 262 -169.5s138 -181.167 183 -309.5s67.833 -286.166 68.5 -473.499c-0.666992 -174 -20.5 -329.167 -59.5 -465.5s-94.833 -252.166 -167.5 -347.499s-160.167 -167.833 -262.5 -217.5
s-216.833 -74.5 -343.5 -74.5c-136.667 0 -257.334 26.5 -362.001 79.5s-188.834 125.333 -252.501 217s-102.167 194.834 -115.5 309.501h427c16.667 -74.667 51.667 -132.5 105 -173.5s119.333 -61.5 198 -61.5c133.333 0 234.666 58.167 304 174.5
c69.333 116.333 104.333 275.833 105 478.5h-14c-30.667 -60 -72 -111.5 -124 -154.5s-111.5 -76.167 -178.5 -99.5s-138.167 -35 -213.5 -35c-120.667 0 -228.5 28.333 -323.5 85s-169.833 134.834 -224.5 234.501s-81.667 213.5 -81 341.5
c-0.666992 138.667 31 261.834 95 369.501s153.5 192.167 268.5 253.5s248.833 91.666 401.5 91zM1941 1742c-67.333 0 -127.169 -16 -179.502 -48s-93.666 -75.333 -123.999 -130s-45.166 -116 -44.499 -184c-0.666992 -68 13.833 -129 43.5 -183
s70.5 -96.833 122.5 -128.5s111.333 -47.5 178 -47.5c50 0 96.167 9.33301 138.5 28s79.333 44.5 111 77.5s56.5 71.333 74.5 115s27.333 90.5 28 140.5c-0.666992 66 -16 126.333 -46 181s-71.333 98.167 -124 130.5s-112 48.5 -178 48.5zM444 -832.005
c-112 0 -197.333 29.333 -256 88s-88 144 -88 256v3024c0 112 29.333 197.333 88 256s144 88 256 88h3024c112 0 197.333 -29.333 256 -88s88 -144 88 -256v-3024c0 -112 -29.333 -197.333 -88 -256s-144 -88 -256 -88h-3024zM425 -547.005h3061
c12.667 0 22.667 3.83301 30 11.5s11 17.5 11 29.5v3060c0 12.667 -3.66699 22.667 -11 30s-17.333 11 -30 11h-3061c-11.333 0 -20.833 -3.66699 -28.5 -11s-11.5 -17.333 -11.5 -30v-3060c0 -12 3.83301 -21.833 11.5 -29.5s17.167 -11.5 28.5 -11.5z" />
    <glyph glyph-name="uniE148" unicode="&#x20de;&#xe06b;" horiz-adv-x="3912" 
d="M2257 1829l164 -85l-774 -1522l-156 95zM1956 -42c-172 0 -319.834 42.165 -443.501 126.498s-218.667 206 -285 365s-99.166 350.5 -98.499 574.5c0 224 33.167 414.5 99.5 571.5s161.333 276.667 285 359s271.167 123.5 442.5 123.5s318.833 -41.167 442.5 -123.5
s218.834 -202.166 285.5 -359.499c66.667 -157.333 99.667 -347.666 99 -570.999c0 -224.667 -33.167 -416.667 -99.5 -576s-161.166 -280.833 -284.5 -364.5c-123.333 -83.667 -271 -125.5 -443 -125.5zM1956 316.998c117.333 0 211.001 58.835 281.001 176.502
s104.667 294.5 104 530.5c0 155.333 -15.833 284.666 -47.5 387.999s-76.334 181 -134.001 233s-125.5 78 -203.5 78c-116.667 0 -210 -58.333 -280 -175s-105.333 -291.334 -106 -524.001c0 -156.667 15.833 -287.5 47.5 -392.5s76.5 -183.667 134.5 -236
s126 -78.5 204 -78.5zM444 -832c-112 0 -197.333 29.333 -256 88s-88 144 -88 256v3024c0 112 29.333 197.333 88 256s144 88 256 88h3024c112 0 197.333 -29.333 256 -88s88 -144 88 -256v-3024c0 -112 -29.333 -197.333 -88 -256s-144 -88 -256 -88h-3024zM425 -547h3061
c12.667 0 22.667 3.83301 30 11.5s11 17.5 11 29.5v3060c0 12.667 -3.66699 22.667 -11 30s-17.333 11 -30 11h-3061c-11.333 0 -20.833 -3.66699 -28.5 -11s-11.5 -17.333 -11.5 -30v-3060c0 -12 3.83301 -21.833 11.5 -29.5s17.167 -11.5 28.5 -11.5z" />
    <glyph glyph-name="uniE149" unicode="&#x20de;&#xe06c;" horiz-adv-x="3912" 
d="M2256 2048l0.00195312 -2048h-432v1518h-19c-14.667 -22.667 -40.5 -45.667 -77.5 -69s-84 -43 -141 -59s-123.167 -24 -198.5 -24v344c66 0 125.833 11.5 179.5 34.5s100.167 52.167 139.5 87.5s69.666 72.333 90.999 111s32.666 73.667 33.999 105h424zM444.002 -832
c-112 0 -197.333 29.333 -256 88s-88 144 -88 256v3024c0 112 29.333 197.333 88 256s144 88 256 88h3024c112 0 197.333 -29.333 256 -88s88 -144 88 -256v-3024c0 -112 -29.333 -197.333 -88 -256s-144 -88 -256 -88h-3024zM425.002 -547h3061
c12.667 0 22.667 3.83301 30 11.5s11 17.5 11 29.5v3060c0 12.667 -3.66699 22.667 -11 30s-17.333 11 -30 11h-3061c-11.333 0 -20.833 -3.66699 -28.5 -11s-11.5 -17.333 -11.5 -30v-3060c0 -12 3.83301 -21.833 11.5 -29.5s17.167 -11.5 28.5 -11.5z" />
    <glyph glyph-name="uniE14A" unicode="&#x20de;&#xe06d;" horiz-adv-x="3912" 
d="M1160 579h436.999c4 -51.333 21.5 -95.833 52.5 -133.5s71.833 -66.5 122.5 -86.5s106.667 -30 168 -30c66.667 0 125.167 11.333 175.501 34c50.333 22.667 89.833 55.334 118.5 98.001s43 93 43 151c0 56.667 -14.333 107.167 -43 151.5s-71.667 79.333 -129 105
s-128.333 38.5 -213 38.5h-221v301l454 472v14h-862v354h1394v-312l-550 -556v-16c108 -10.667 201.167 -34 279.5 -70s142.5 -80.833 192.5 -134.5s87.333 -112.834 112 -177.501s37 -131 37 -199c0 -120.667 -34.5 -227 -103.5 -319s-162.833 -163.667 -281.5 -215
s-253.334 -77 -404 -77c-150 0 -282.833 25.333 -398.5 76s-207 121.5 -274 212.5s-102.5 197.167 -106.5 318.5zM443.999 -832c-112 0 -197.333 29.333 -256 88s-88 144 -88 256v3024c0 112 29.333 197.333 88 256s144 88 256 88h3024c112 0 197.333 -29.333 256 -88
s88 -144 88 -256v-3024c0 -112 -29.333 -197.333 -88 -256s-144 -88 -256 -88h-3024zM424.999 -547h3061c12.667 0 22.667 3.83301 30 11.5s11 17.5 11 29.5v3060c0 12.667 -3.66699 22.667 -11 30s-17.333 11 -30 11h-3061c-11.333 0 -20.833 -3.66699 -28.5 -11
s-11.5 -17.333 -11.5 -30v-3060c0 -12 3.83301 -21.833 11.5 -29.5s17.167 -11.5 28.5 -11.5z" />
    <glyph glyph-name="uniE14B" unicode="&#x20de;&#xe06e;" horiz-adv-x="3912" 
d="M1083 360v341l765 1347h417l-747 -1325v-16h1216v-347h-1651zM2066 0v461l12 154v665h395v-1280h-407zM444 -832c-112 0 -197.333 29.333 -256 88s-88 144 -88 256v3024c0 112 29.333 197.333 88 256s144 88 256 88h3024c112 0 197.333 -29.333 256 -88s88 -144 88 -256
v-3024c0 -112 -29.333 -197.333 -88 -256s-144 -88 -256 -88h-3024zM425 -547h3061c12.667 0 22.667 3.83301 30 11.5s11 17.5 11 29.5v3060c0 12.667 -3.66699 22.667 -11 30s-17.333 11 -30 11h-3061c-11.333 0 -20.833 -3.66699 -28.5 -11s-11.5 -17.333 -11.5 -30v-3060
c0 -12 3.83301 -21.833 11.5 -29.5s17.167 -11.5 28.5 -11.5z" />
    <glyph glyph-name="uniE14C" unicode="&#x20de;&#xe06f;" horiz-adv-x="3912" 
d="M1214 665c0 72 9.50098 143.667 28.501 215s47.833 145 86.5 221s87.667 157.667 147 245l474 702h436l-497 -728c25.333 5.33301 51.5 10.166 78.5 14.499s54.5 6.5 82.5 6.5c126 0 237.667 -28.333 335 -85s173.833 -135 229.5 -235s83.5 -215.667 83.5 -347
c0 -140.667 -31.667 -263.667 -95 -369s-150.333 -187.166 -261 -245.499s-237 -87.5 -379 -87.5c-136.667 0 -261.834 27.333 -375.501 82s-204.5 133.667 -272.5 237s-101.667 228 -101 374zM1637 661c0 -68.667 13.668 -129.334 41.001 -182.001s65.333 -94 114 -124
s105 -45 169 -45c63.333 0 119.166 15 167.499 45s86 71.333 113 124s40.5 112.667 40.5 180c0 68.667 -13.833 129.167 -41.5 181.5s-65.667 93.333 -114 123s-103.5 44.5 -165.5 44.5c-64 0 -120.333 -14.833 -169 -44.5s-86.667 -70.667 -114 -123
s-41 -112.166 -41 -179.499zM444.002 -832c-112 0 -197.333 29.333 -256 88s-88 144 -88 256v3024c0 112 29.333 197.333 88 256s144 88 256 88h3024c112 0 197.333 -29.333 256 -88s88 -144 88 -256v-3024c0 -112 -29.333 -197.333 -88 -256s-144 -88 -256 -88h-3024z
M425.002 -547h3061c12.667 0 22.667 3.83301 30 11.5s11 17.5 11 29.5v3060c0 12.667 -3.66699 22.667 -11 30s-17.333 11 -30 11h-3061c-11.333 0 -20.833 -3.66699 -28.5 -11s-11.5 -17.333 -11.5 -30v-3060c0 -12 3.83301 -21.833 11.5 -29.5s17.167 -11.5 28.5 -11.5z
" />
    <glyph glyph-name="uniE14D" unicode="&#x20de;&#xe070;" horiz-adv-x="3912" 
d="M1214 1374c0 140.667 31.668 263.667 95.001 369s150.166 187.166 260.499 245.499s236.833 87.5 379.5 87.5c136 0 260.833 -27.167 374.5 -81.5s204.667 -133.166 273 -236.499s102.5 -228.333 102.5 -375c-0.666992 -72 -10.667 -143.667 -30 -215
s-48.333 -145 -87 -221s-87.334 -157.667 -146.001 -245l-474 -702h-435l496 730c-25.333 -6.66699 -51.5 -12.167 -78.5 -16.5s-54.5 -6.5 -82.5 -6.5c-126.667 0 -238.667 28.333 -336 85s-173.666 135 -228.999 235s-83 215.667 -83 347zM1630 1389
c0 -68.667 13.668 -129.168 41.001 -181.501s65.166 -93.333 113.499 -123s103.833 -44.5 166.5 -44.5c63.333 0 119.333 14.833 167.999 44.5c48.667 29.667 86.834 70.5 114.5 122.5c27.667 52 41.5 112 41.5 180c0 68.667 -13.667 129.334 -41 182.001
s-65.5 94 -114.5 124s-105.167 45 -168.5 45c-62.667 0 -118.167 -15 -166.5 -45s-86.166 -71.333 -113.499 -124s-41 -112.667 -41 -180zM444.002 -832.001c-112 0 -197.333 29.333 -256 88s-88 144 -88 256v3024c0 112 29.333 197.333 88 256s144 88 256 88h3024
c112 0 197.333 -29.333 256 -88s88 -144 88 -256v-3024c0 -112 -29.333 -197.333 -88 -256s-144 -88 -256 -88h-3024zM425.002 -547.001h3061c12.667 0 22.667 3.83301 30 11.5s11 17.5 11 29.5v3060c0 12.667 -3.66699 22.667 -11 30s-17.333 11 -30 11h-3061
c-11.333 0 -20.833 -3.66699 -28.5 -11s-11.5 -17.333 -11.5 -30v-3060c0 -12 3.83301 -21.833 11.5 -29.5s17.167 -11.5 28.5 -11.5z" />
    <glyph glyph-name="uniE14E" unicode="&#x21;&#x20de;" horiz-adv-x="3912" 
d="M2178 2048l-39 -1434h-366l-40 1434h445zM1956 -26c-66 0 -122.667 23.5 -170 70.5s-70.666 103.5 -69.999 169.5c-0.666992 65.333 22.666 121.333 69.999 168s104 70 170 70c63.333 0 119 -23.333 167 -70s72.333 -102.667 73 -168
c-0.666992 -44 -12.167 -84.167 -34.5 -120.5s-51.5 -65.333 -87.5 -87s-75.333 -32.5 -118 -32.5zM444 -832c-112 0 -197.333 29.333 -256 88s-88 144 -88 256v3024c0 112 29.333 197.333 88 256s144 88 256 88h3024c112 0 197.333 -29.333 256 -88s88 -144 88 -256v-3024
c0 -112 -29.333 -197.333 -88 -256s-144 -88 -256 -88h-3024zM425 -547h3061c12.667 0 22.667 3.83301 30 11.5s11 17.5 11 29.5v3060c0 12.667 -3.66699 22.667 -11 30s-17.333 11 -30 11h-3061c-11.333 0 -20.833 -3.66699 -28.5 -11s-11.5 -17.333 -11.5 -30v-3060
c0 -12 3.83301 -21.833 11.5 -29.5s17.167 -11.5 28.5 -11.5z" />
    <glyph glyph-name="uniE14F" unicode="&#x3f;&#x20de;" horiz-adv-x="3912" 
d="M1739 614l0.00292969 33.9971c0.666992 116.667 11.167 209.667 31.5 279s50.166 125.333 89.499 168s86.666 81.334 141.999 116.001c41.333 26.667 78.333 54.334 111 83.001s58.667 60.5 78 95.5s29 74.167 29 117.5c0 46 -11 86.333 -33 121
s-51.5 61.334 -88.5 80.001s-77.833 28 -122.5 28c-43.333 0 -84.333 -9.5 -123 -28.5s-70.334 -47 -95.001 -84s-38 -82.833 -40 -137.5h-408c3.33301 133.333 35.333 243.5 96 330.5s141 152 241 195s210.333 64.5 331 64.5c132.667 0 250 -21.833 352 -65.5
s182 -106.834 240 -189.501s87 -182.334 87 -299.001c0 -78 -12.833 -147.167 -38.5 -207.5s-61.5 -113.666 -107.5 -159.999s-100.333 -88.166 -163 -125.499c-52.667 -31.333 -95.834 -64 -129.5 -98c-33.667 -34 -58.667 -73.333 -75 -118s-24.833 -99.667 -25.5 -165
v-34h-379zM1937 -26.0029c-66.667 0 -123.5 23.5 -170.5 70.5s-70.167 103.5 -69.5 169.5c-0.666992 65.333 22.5 121.333 69.5 168s103.833 70 170.5 70c63.333 0 119 -23.333 167 -70s72.333 -102.667 73 -168c-0.666992 -44 -12.167 -84.167 -34.5 -120.5
s-51.5 -65.333 -87.5 -87s-75.333 -32.5 -118 -32.5zM444.003 -832.003c-112 0 -197.333 29.333 -256 88s-88 144 -88 256v3024c0 112 29.333 197.333 88 256s144 88 256 88h3024c112 0 197.333 -29.333 256 -88s88 -144 88 -256v-3024c0 -112 -29.333 -197.333 -88 -256
s-144 -88 -256 -88h-3024zM425.003 -547.003h3061c12.667 0 22.667 3.83301 30 11.5s11 17.5 11 29.5v3060c0 12.667 -3.66699 22.667 -11 30s-17.333 11 -30 11h-3061c-11.333 0 -20.833 -3.66699 -28.5 -11s-11.5 -17.333 -11.5 -30v-3060
c0 -12 3.83301 -21.833 11.5 -29.5s17.167 -11.5 28.5 -11.5z" />
    <glyph glyph-name="uniE150" unicode="&#x23;&#x20de;" horiz-adv-x="3912" 
d="M1988 0l336 2048h320l-336 -2048h-320zM1071 508l53 320h1600l-53 -320h-1600zM1268 0l336 2048h320l-336 -2048h-320zM1188 1220l54 320h1600l-54 -320h-1600zM444 -832c-112 0 -197.333 29.333 -256 88s-88 144 -88 256v3024c0 112 29.333 197.333 88 256
s144 88 256 88h3024c112 0 197.333 -29.333 256 -88s88 -144 88 -256v-3024c0 -112 -29.333 -197.333 -88 -256s-144 -88 -256 -88h-3024zM425 -547h3061c12.667 0 22.667 3.83301 30 11.5s11 17.5 11 29.5v3060c0 12.667 -3.66699 22.667 -11 30s-17.333 11 -30 11h-3061
c-11.333 0 -20.833 -3.66699 -28.5 -11s-11.5 -17.333 -11.5 -30v-3060c0 -12 3.83301 -21.833 11.5 -29.5s17.167 -11.5 28.5 -11.5z" />
    <glyph glyph-name="uniE151" unicode="&#x2d;&#x20de;" horiz-adv-x="3912" 
d="M2423 1193v-338h-934v338h934zM444 -832c-112 0 -197.333 29.333 -256 88s-88 144 -88 256v3024c0 112 29.333 197.333 88 256s144 88 256 88h3024c112 0 197.333 -29.333 256 -88s88 -144 88 -256v-3024c0 -112 -29.333 -197.333 -88 -256s-144 -88 -256 -88h-3024z
M425 -547h3061c12.667 0 22.667 3.83301 30 11.5s11 17.5 11 29.5v3060c0 12.667 -3.66699 22.667 -11 30s-17.333 11 -30 11h-3061c-11.333 0 -20.833 -3.66699 -28.5 -11s-11.5 -17.333 -11.5 -30v-3060c0 -12 3.83301 -21.833 11.5 -29.5s17.167 -11.5 28.5 -11.5z" />
    <glyph glyph-name="uniE152" unicode="&#x3c;&#x20de;" horiz-adv-x="3912" 
d="M1212 835v352l1408 620v-405l-964 -387l13 21v-50l-13 21l964 -387v-405zM444 -832c-112 0 -197.333 29.333 -256 88s-88 144 -88 256v3024c0 112 29.333 197.333 88 256s144 88 256 88h3024c112 0 197.333 -29.333 256 -88s88 -144 88 -256v-3024
c0 -112 -29.333 -197.333 -88 -256s-144 -88 -256 -88h-3024zM425 -547h3061c12.667 0 22.667 3.83301 30 11.5s11 17.5 11 29.5v3060c0 12.667 -3.66699 22.667 -11 30s-17.333 11 -30 11h-3061c-11.333 0 -20.833 -3.66699 -28.5 -11s-11.5 -17.333 -11.5 -30v-3060
c0 -12 3.83301 -21.833 11.5 -29.5s17.167 -11.5 28.5 -11.5z" />
    <glyph glyph-name="uniE153" unicode="&#x3e;&#x20de;" horiz-adv-x="3912" 
d="M2700 835l-1408 -620v405l964 387l-13 -21v50l13 -21l-964 387v405l1408 -620v-352zM444 -832c-112 0 -197.333 29.333 -256 88s-88 144 -88 256v3024c0 112 29.333 197.333 88 256s144 88 256 88h3024c112 0 197.333 -29.333 256 -88s88 -144 88 -256v-3024
c0 -112 -29.333 -197.333 -88 -256s-144 -88 -256 -88h-3024zM425 -547h3061c12.667 0 22.667 3.83301 30 11.5s11 17.5 11 29.5v3060c0 12.667 -3.66699 22.667 -11 30s-17.333 11 -30 11h-3061c-11.333 0 -20.833 -3.66699 -28.5 -11s-11.5 -17.333 -11.5 -30v-3060
c0 -12 3.83301 -21.833 11.5 -29.5s17.167 -11.5 28.5 -11.5z" />
    <glyph glyph-name="uniE154" unicode="&#x3d;&#x20de;" horiz-adv-x="3912" 
d="M1265 1179v355h1381v-355h-1381zM1265 515v355h1381v-355h-1381zM444 -832c-112 0 -197.333 29.333 -256 88s-88 144 -88 256v3024c0 112 29.333 197.333 88 256s144 88 256 88h3024c112 0 197.333 -29.333 256 -88s88 -144 88 -256v-3024
c0 -112 -29.333 -197.333 -88 -256s-144 -88 -256 -88h-3024zM425 -547h3061c12.667 0 22.667 3.83301 30 11.5s11 17.5 11 29.5v3060c0 12.667 -3.66699 22.667 -11 30s-17.333 11 -30 11h-3061c-11.333 0 -20.833 -3.66699 -28.5 -11s-11.5 -17.333 -11.5 -30v-3060
c0 -12 3.83301 -21.833 11.5 -29.5s17.167 -11.5 28.5 -11.5z" />
    <glyph glyph-name="uniE155" unicode="&#x2b;&#x20de;" horiz-adv-x="3912" 
d="M1777 312v1416h358v-1416h-358zM1248 841v358h1416v-358h-1416zM444 -832c-112 0 -197.333 29.333 -256 88s-88 144 -88 256v3024c0 112 29.333 197.333 88 256s144 88 256 88h3024c112 0 197.333 -29.333 256 -88s88 -144 88 -256v-3024
c0 -112 -29.333 -197.333 -88 -256s-144 -88 -256 -88h-3024zM425 -547h3061c12.667 0 22.667 3.83301 30 11.5s11 17.5 11 29.5v3060c0 12.667 -3.66699 22.667 -11 30s-17.333 11 -30 11h-3061c-11.333 0 -20.833 -3.66699 -28.5 -11s-11.5 -17.333 -11.5 -30v-3060
c0 -12 3.83301 -21.833 11.5 -29.5s17.167 -11.5 28.5 -11.5z" />
    <glyph glyph-name="uniE156" unicode="&#x20de;&#x2212;" horiz-adv-x="3912" 
d="M2656 1203v-358h-1400v358h1400zM444 -832c-112 0 -197.333 29.333 -256 88s-88 144 -88 256v3024c0 112 29.333 197.333 88 256s144 88 256 88h3024c112 0 197.333 -29.333 256 -88s88 -144 88 -256v-3024c0 -112 -29.333 -197.333 -88 -256s-144 -88 -256 -88h-3024z
M425 -547h3061c12.667 0 22.667 3.83301 30 11.5s11 17.5 11 29.5v3060c0 12.667 -3.66699 22.667 -11 30s-17.333 11 -30 11h-3061c-11.333 0 -20.833 -3.66699 -28.5 -11s-11.5 -17.333 -11.5 -30v-3060c0 -12 3.83301 -21.833 11.5 -29.5s17.167 -11.5 28.5 -11.5z" />
    <glyph glyph-name="uniE157" unicode="&#xd7;&#x20de;" horiz-adv-x="3912" 
d="M2422 284l-1195 1193l262 265l1196 -1195zM1489 284l-262 263l1195 1195l263 -265zM444 -832c-112 0 -197.333 29.333 -256 88s-88 144 -88 256v3024c0 112 29.333 197.333 88 256s144 88 256 88h3024c112 0 197.333 -29.333 256 -88s88 -144 88 -256v-3024
c0 -112 -29.333 -197.333 -88 -256s-144 -88 -256 -88h-3024zM425 -547h3061c12.667 0 22.667 3.83301 30 11.5s11 17.5 11 29.5v3060c0 12.667 -3.66699 22.667 -11 30s-17.333 11 -30 11h-3061c-11.333 0 -20.833 -3.66699 -28.5 -11s-11.5 -17.333 -11.5 -30v-3060
c0 -12 3.83301 -21.833 11.5 -29.5s17.167 -11.5 28.5 -11.5z" />
    <glyph glyph-name="uniE158" unicode="&#xf7;&#x20de;" horiz-adv-x="3912" 
d="M2656 1194v-339h-1400v339h1400zM1956 227c-67.333 0 -124.665 23.667 -171.998 71s-71 104.666 -71 171.999c0 65.333 23.667 121.333 71 168s104.666 70 171.999 70c65.333 0 121.333 -23.333 167.999 -70c46.667 -46.667 70 -102.667 70 -168
c0 -67.333 -23.333 -124.666 -70 -171.999s-102.667 -71 -168 -71zM1956 1340c-44.667 0 -85.334 10.998 -122.001 32.998s-66 51.333 -88 88s-33 77.334 -33 122.001c0 66 23.833 122.167 71.5 168.5s104.834 69.5 171.501 69.5c66 0 122.167 -23.167 168.5 -69.5
s69.5 -102.5 69.5 -168.5c0 -67.333 -23.167 -124.666 -69.5 -171.999s-102.5 -71 -168.5 -71zM444.001 -832.002c-112 0 -197.333 29.333 -256 88s-88 144 -88 256v3024c0 112 29.333 197.333 88 256s144 88 256 88h3024c112 0 197.333 -29.333 256 -88s88 -144 88 -256
v-3024c0 -112 -29.333 -197.333 -88 -256s-144 -88 -256 -88h-3024zM425.001 -547.002h3061c12.667 0 22.667 3.83301 30 11.5s11 17.5 11 29.5v3060c0 12.667 -3.66699 22.667 -11 30s-17.333 11 -30 11h-3061c-11.333 0 -20.833 -3.66699 -28.5 -11
s-11.5 -17.333 -11.5 -30v-3060c0 -12 3.83301 -21.833 11.5 -29.5s17.167 -11.5 28.5 -11.5z" />
    <glyph glyph-name="uniE159" unicode="&#x20de;&#x2191;" horiz-adv-x="3912" 
d="M1789 0v1429l-533 -535l-234 232l936 934l934 -934l-230 -232l-535 535v-1429h-338zM444 -832c-112 0 -197.333 29.333 -256 88s-88 144 -88 256v3024c0 112 29.333 197.333 88 256s144 88 256 88h3024c112 0 197.333 -29.333 256 -88s88 -144 88 -256v-3024
c0 -112 -29.333 -197.333 -88 -256s-144 -88 -256 -88h-3024zM425 -547h3061c12.667 0 22.667 3.83301 30 11.5s11 17.5 11 29.5v3060c0 12.667 -3.66699 22.667 -11 30s-17.333 11 -30 11h-3061c-11.333 0 -20.833 -3.66699 -28.5 -11s-11.5 -17.333 -11.5 -30v-3060
c0 -12 3.83301 -21.833 11.5 -29.5s17.167 -11.5 28.5 -11.5z" />
    <glyph glyph-name="uniE15A" unicode="&#x20de;&#x2193;" horiz-adv-x="3912" 
d="M2125 2048v-1429l533 535l234 -232l-936 -934l-934 934l230 232l535 -535v1429h338zM444 -832c-112 0 -197.333 29.333 -256 88s-88 144 -88 256v3024c0 112 29.333 197.333 88 256s144 88 256 88h3024c112 0 197.333 -29.333 256 -88s88 -144 88 -256v-3024
c0 -112 -29.333 -197.333 -88 -256s-144 -88 -256 -88h-3024zM425 -547h3061c12.667 0 22.667 3.83301 30 11.5s11 17.5 11 29.5v3060c0 12.667 -3.66699 22.667 -11 30s-17.333 11 -30 11h-3061c-11.333 0 -20.833 -3.66699 -28.5 -11s-11.5 -17.333 -11.5 -30v-3060
c0 -12 3.83301 -21.833 11.5 -29.5s17.167 -11.5 28.5 -11.5z" />
    <glyph glyph-name="uniE15B" unicode="&#x20de;&#x2190;" horiz-adv-x="3912" 
d="M1936 16l-1008 1008l1008 1008l232 -230l-609 -609h1427v-338h-1427l609 -608zM444 -832c-112 0 -197.333 29.333 -256 88s-88 144 -88 256v3024c0 112 29.333 197.333 88 256s144 88 256 88h3024c112 0 197.333 -29.333 256 -88s88 -144 88 -256v-3024
c0 -112 -29.333 -197.333 -88 -256s-144 -88 -256 -88h-3024zM425 -547h3061c12.667 0 22.667 3.83301 30 11.5s11 17.5 11 29.5v3060c0 12.667 -3.66699 22.667 -11 30s-17.333 11 -30 11h-3061c-11.333 0 -20.833 -3.66699 -28.5 -11s-11.5 -17.333 -11.5 -30v-3060
c0 -12 3.83301 -21.833 11.5 -29.5s17.167 -11.5 28.5 -11.5z" />
    <glyph glyph-name="uniE15C" unicode="&#x20de;&#x2192;" horiz-adv-x="3912" 
d="M1978 16l-232 230l609 609h-1427v338h1427l-609 608l232 231l1008 -1008zM444 -832c-112 0 -197.333 29.333 -256 88s-88 144 -88 256v3024c0 112 29.333 197.333 88 256s144 88 256 88h3024c112 0 197.333 -29.333 256 -88s88 -144 88 -256v-3024
c0 -112 -29.333 -197.333 -88 -256s-144 -88 -256 -88h-3024zM425 -547h3061c12.667 0 22.667 3.83301 30 11.5s11 17.5 11 29.5v3060c0 12.667 -3.66699 22.667 -11 30s-17.333 11 -30 11h-3061c-11.333 0 -20.833 -3.66699 -28.5 -11s-11.5 -17.333 -11.5 -30v-3060
c0 -12 3.83301 -21.833 11.5 -29.5s17.167 -11.5 28.5 -11.5z" />
    <glyph glyph-name="uniE15D" unicode="&#x20de;&#x2713;" horiz-adv-x="3912" 
d="M968 963l282 283l463 -455l1027 1023l284 -283l-1311 -1304zM444 -832c-112 0 -197.333 29.333 -256 88s-88 144 -88 256v3024c0 112 29.333 197.333 88 256s144 88 256 88h3024c112 0 197.333 -29.333 256 -88s88 -144 88 -256v-3024c0 -112 -29.333 -197.333 -88 -256
s-144 -88 -256 -88h-3024zM425 -547h3061c12.667 0 22.667 3.83301 30 11.5s11 17.5 11 29.5v3060c0 12.667 -3.66699 22.667 -11 30s-17.333 11 -30 11h-3061c-11.333 0 -20.833 -3.66699 -28.5 -11s-11.5 -17.333 -11.5 -30v-3060c0 -12 3.83301 -21.833 11.5 -29.5
s17.167 -11.5 28.5 -11.5z" />
    <glyph glyph-name="uniE15E" unicode="&#x20de;&#x2717;" horiz-adv-x="3912" 
d="M1451 238l-283 283l1295 1289l283 -283zM2461 238l-1295 1289l283 283l1295 -1289zM444 -832c-112 0 -197.333 29.333 -256 88s-88 144 -88 256v3024c0 112 29.333 197.333 88 256s144 88 256 88h3024c112 0 197.333 -29.333 256 -88s88 -144 88 -256v-3024
c0 -112 -29.333 -197.333 -88 -256s-144 -88 -256 -88h-3024zM425 -547h3061c12.667 0 22.667 3.83301 30 11.5s11 17.5 11 29.5v3060c0 12.667 -3.66699 22.667 -11 30s-17.333 11 -30 11h-3061c-11.333 0 -20.833 -3.66699 -28.5 -11s-11.5 -17.333 -11.5 -30v-3060
c0 -12 3.83301 -21.833 11.5 -29.5s17.167 -11.5 28.5 -11.5z" />
    <glyph glyph-name="u1F130" unicode="A&#x20de;" horiz-adv-x="3912" 
d="M1434 0h-464l707 2048h558l706 -2048h-464l-513 1580h-16zM1405 805h1096v-338h-1096v338zM444 -832c-112 0 -197.333 29.333 -256 88s-88 144 -88 256v3024c0 112 29.333 197.333 88 256s144 88 256 88h3024c112 0 197.333 -29.333 256 -88s88 -144 88 -256v-3024
c0 -112 -29.333 -197.333 -88 -256s-144 -88 -256 -88h-3024zM425 -547h3061c12.667 0 22.667 3.83301 30 11.5s11 17.5 11 29.5v3060c0 12.667 -3.66699 22.667 -11 30s-17.333 11 -30 11h-3061c-11.333 0 -20.833 -3.66699 -28.5 -11s-11.5 -17.333 -11.5 -30v-3060
c0 -12 3.83301 -21.833 11.5 -29.5s17.167 -11.5 28.5 -11.5z" />
    <glyph glyph-name="u1F131" unicode="B&#x20de;" horiz-adv-x="3912" 
d="M1205 0v2048h820c150.667 0 276.334 -22.333 377 -67c100.667 -44.667 176.334 -106.5 227 -185.5c50.667 -79 76 -169.833 76 -272.5c0 -80 -16 -150.167 -48 -210.5s-75.833 -109.666 -131.5 -147.999s-119.167 -65.5 -190.5 -81.5v-20
c78 -3.33301 151.167 -25.333 219.5 -66s123.833 -97.5 166.5 -170.5s64 -159.833 64 -260.5c0 -108.667 -26.833 -205.5 -80.5 -290.5s-132.834 -152.167 -237.5 -201.5c-104.667 -49.333 -233.667 -74 -387 -74h-875zM1638 353.999l353 0.000976562
c120.667 0 208.667 23.167 264 69.5s83 108.166 83 185.499c0 56.667 -13.667 106.667 -41 150s-66.166 77.333 -116.5 102c-50.333 24.667 -110.166 37 -179.5 37h-363v-544zM1638 1191h321.001c59.333 0 112.166 10.5 158.499 31.5s83 50.833 110 89.5s40.5 85 40.5 139
c0 74 -26.167 133.667 -78.5 179s-126.5 68 -222.5 68h-329v-507zM444.001 -832c-112 0 -197.333 29.333 -256 88s-88 144 -88 256v3024c0 112 29.333 197.333 88 256s144 88 256 88h3024c112 0 197.333 -29.333 256 -88s88 -144 88 -256v-3024
c0 -112 -29.333 -197.333 -88 -256s-144 -88 -256 -88h-3024zM425.001 -547h3061c12.667 0 22.667 3.83301 30 11.5s11 17.5 11 29.5v3060c0 12.667 -3.66699 22.667 -11 30s-17.333 11 -30 11h-3061c-11.333 0 -20.833 -3.66699 -28.5 -11s-11.5 -17.333 -11.5 -30v-3060
c0 -12 3.83301 -21.833 11.5 -29.5s17.167 -11.5 28.5 -11.5z" />
    <glyph glyph-name="u1F132" unicode="C&#x20de;" horiz-adv-x="3912" 
d="M2878 1331l-438 -0.00292969c-8 56.667 -24.333 107.167 -49 151.5s-56.334 82.166 -95.001 113.499s-83.167 55.333 -133.5 72s-104.833 25 -163.5 25c-106 0 -198.333 -26.167 -277 -78.5s-139.667 -128.333 -183 -228s-65 -220.5 -65 -362.5
c0 -146 21.833 -268.667 65.5 -368s104.834 -174.333 183.501 -225s169.667 -76 273 -76c58 0 111.833 7.66699 161.5 23s93.834 37.833 132.5 67.5c38.667 29.667 70.834 65.834 96.5 108.501c25.667 42.667 43.5 91.334 53.5 146.001l438 -2
c-11.333 -94 -39.5 -184.5 -84.5 -271.5s-105.333 -164.667 -181 -233s-165.667 -122.333 -270 -162s-222.166 -59.5 -353.499 -59.5c-182.667 0 -345.834 41.333 -489.501 124s-257 202.334 -340 359.001s-124.5 346.334 -124.5 569.001c0 223.333 42 413.333 126 570
s198 276.167 342 358.5s306 123.5 486 123.5c118.667 0 228.834 -16.667 330.5 -50c101.667 -33.333 191.834 -81.833 270.5 -145.5c78.667 -63.667 142.834 -141.5 192.5 -233.5c49.667 -92 81.5 -197.333 95.5 -316zM444 -832.003c-112 0 -197.333 29.333 -256 88
s-88 144 -88 256v3024c0 112 29.333 197.333 88 256s144 88 256 88h3024c112 0 197.333 -29.333 256 -88s88 -144 88 -256v-3024c0 -112 -29.333 -197.333 -88 -256s-144 -88 -256 -88h-3024zM425 -547.003h3061c12.667 0 22.667 3.83301 30 11.5s11 17.5 11 29.5v3060
c0 12.667 -3.66699 22.667 -11 30s-17.333 11 -30 11h-3061c-11.333 0 -20.833 -3.66699 -28.5 -11s-11.5 -17.333 -11.5 -30v-3060c0 -12 3.83301 -21.833 11.5 -29.5s17.167 -11.5 28.5 -11.5z" />
    <glyph glyph-name="u1F133" unicode="D&#x20de;" horiz-adv-x="3912" 
d="M1854 0l-726 0.000976562v2048h732c206 0 383.333 -40.833 532 -122.5s263.167 -198.834 343.5 -351.501s120.5 -335.334 120.5 -548.001c0 -213.333 -40.167 -396.666 -120.5 -549.999s-195.333 -271 -345 -353s-328.5 -123 -536.5 -123zM1561 371.001h275
c128 0 235.833 22.833 323.5 68.5s153.667 116.667 198 213s66.5 220.833 66.5 373.5c0 151.333 -22.167 275 -66.5 371s-110.166 166.667 -197.5 212c-87.333 45.333 -195 68 -323 68h-276v-1306zM444 -831.999c-112 0 -197.333 29.333 -256 88s-88 144 -88 256v3024
c0 112 29.333 197.333 88 256s144 88 256 88h3024c112 0 197.333 -29.333 256 -88s88 -144 88 -256v-3024c0 -112 -29.333 -197.333 -88 -256s-144 -88 -256 -88h-3024zM425 -546.999h3061c12.667 0 22.667 3.83301 30 11.5s11 17.5 11 29.5v3060
c0 12.667 -3.66699 22.667 -11 30s-17.333 11 -30 11h-3061c-11.333 0 -20.833 -3.66699 -28.5 -11s-11.5 -17.333 -11.5 -30v-3060c0 -12 3.83301 -21.833 11.5 -29.5s17.167 -11.5 28.5 -11.5z" />
    <glyph glyph-name="u1F134" unicode="E&#x20de;" horiz-adv-x="3912" 
d="M1262 0v2048h1380v-357h-947v-488h876v-357h-876v-489h951v-357h-1384zM444 -832c-112 0 -197.333 29.333 -256 88s-88 144 -88 256v3024c0 112 29.333 197.333 88 256s144 88 256 88h3024c112 0 197.333 -29.333 256 -88s88 -144 88 -256v-3024
c0 -112 -29.333 -197.333 -88 -256s-144 -88 -256 -88h-3024zM425 -547h3061c12.667 0 22.667 3.83301 30 11.5s11 17.5 11 29.5v3060c0 12.667 -3.66699 22.667 -11 30s-17.333 11 -30 11h-3061c-11.333 0 -20.833 -3.66699 -28.5 -11s-11.5 -17.333 -11.5 -30v-3060
c0 -12 3.83301 -21.833 11.5 -29.5s17.167 -11.5 28.5 -11.5z" />
    <glyph glyph-name="u1F135" unicode="F&#x20de;" horiz-adv-x="3912" 
d="M1298 0v2048h1356v-357h-923v-488h833v-357h-833v-846h-433zM444 -832c-112 0 -197.333 29.333 -256 88s-88 144 -88 256v3024c0 112 29.333 197.333 88 256s144 88 256 88h3024c112 0 197.333 -29.333 256 -88s88 -144 88 -256v-3024c0 -112 -29.333 -197.333 -88 -256
s-144 -88 -256 -88h-3024zM425 -547h3061c12.667 0 22.667 3.83301 30 11.5s11 17.5 11 29.5v3060c0 12.667 -3.66699 22.667 -11 30s-17.333 11 -30 11h-3061c-11.333 0 -20.833 -3.66699 -28.5 -11s-11.5 -17.333 -11.5 -30v-3060c0 -12 3.83301 -21.833 11.5 -29.5
s17.167 -11.5 28.5 -11.5z" />
    <glyph glyph-name="u1F136" unicode="G&#x20de;" horiz-adv-x="3912" 
d="M2424 1386c-14 48.667 -33.665 91.8311 -58.998 129.498s-56.166 69.667 -92.5 96c-36.333 26.333 -77.666 46.5 -124 60.5c-46.333 14 -97.5 21 -153.5 21c-104.667 0 -196.5 -26 -275.5 -78s-140.5 -127.5 -184.5 -226.5s-66 -219.833 -66 -362.5s21.667 -264 65 -364
s104.666 -176.167 183.999 -228.5s173 -78.5 281 -78.5c98 0 181.833 17.5 251.5 52.5s123 84.5 160 148.5s55.5 139.667 55.5 227l88 -13h-528v326h857v-258c0 -180 -38 -334.5 -114 -463.5s-180.667 -228.333 -314 -298s-286 -104.5 -458 -104.5
c-192 0 -360.667 42.5 -506 127.5s-258.5 206 -339.5 363s-121.5 343.5 -121.5 559.5c0 166 24.167 314.167 72.5 444.5s116.166 240.833 203.499 331.5s189 159.667 305 207s241.667 71 377 71c116 0 224 -16.833 324 -50.5s188.833 -81.167 266.5 -142.5
s141.167 -134.166 190.5 -218.499s81 -177.166 95 -278.499h-440zM444.002 -832.003c-112 0 -197.333 29.333 -256 88s-88 144 -88 256v3024c0 112 29.333 197.333 88 256s144 88 256 88h3024c112 0 197.333 -29.333 256 -88s88 -144 88 -256v-3024
c0 -112 -29.333 -197.333 -88 -256s-144 -88 -256 -88h-3024zM425.002 -547.003h3061c12.667 0 22.667 3.83301 30 11.5s11 17.5 11 29.5v3060c0 12.667 -3.66699 22.667 -11 30s-17.333 11 -30 11h-3061c-11.333 0 -20.833 -3.66699 -28.5 -11s-11.5 -17.333 -11.5 -30
v-3060c0 -12 3.83301 -21.833 11.5 -29.5s17.167 -11.5 28.5 -11.5z" />
    <glyph glyph-name="u1F137" unicode="H&#x20de;" horiz-adv-x="3912" 
d="M1084 0v2048h433v-845h879v845h432v-2048h-432v846h-879v-846h-433zM444 -832c-112 0 -197.333 29.333 -256 88s-88 144 -88 256v3024c0 112 29.333 197.333 88 256s144 88 256 88h3024c112 0 197.333 -29.333 256 -88s88 -144 88 -256v-3024
c0 -112 -29.333 -197.333 -88 -256s-144 -88 -256 -88h-3024zM425 -547h3061c12.667 0 22.667 3.83301 30 11.5s11 17.5 11 29.5v3060c0 12.667 -3.66699 22.667 -11 30s-17.333 11 -30 11h-3061c-11.333 0 -20.833 -3.66699 -28.5 -11s-11.5 -17.333 -11.5 -30v-3060
c0 -12 3.83301 -21.833 11.5 -29.5s17.167 -11.5 28.5 -11.5z" />
    <glyph glyph-name="u1F138" unicode="I&#x20de;" horiz-adv-x="3912" 
d="M2172 2048v-2048h-433v2048h433zM444 -832c-112 0 -197.333 29.333 -256 88s-88 144 -88 256v3024c0 112 29.333 197.333 88 256s144 88 256 88h3024c112 0 197.333 -29.333 256 -88s88 -144 88 -256v-3024c0 -112 -29.333 -197.333 -88 -256s-144 -88 -256 -88h-3024z
M425 -547h3061c12.667 0 22.667 3.83301 30 11.5s11 17.5 11 29.5v3060c0 12.667 -3.66699 22.667 -11 30s-17.333 11 -30 11h-3061c-11.333 0 -20.833 -3.66699 -28.5 -11s-11.5 -17.333 -11.5 -30v-3060c0 -12 3.83301 -21.833 11.5 -29.5s17.167 -11.5 28.5 -11.5z" />
    <glyph glyph-name="u1F139" unicode="J&#x20de;" horiz-adv-x="3912" 
d="M2168 2048l428 -0.00195312v-1428c0 -132 -29.5 -246.667 -88.5 -344s-140.833 -172.333 -245.5 -225s-226.334 -79 -365.001 -79c-123.333 0 -235.166 21.833 -335.499 65.5s-179.833 110.334 -238.5 200.001s-87.667 202.5 -87 338.5h431
c1.33301 -54 12.5 -100.167 33.5 -138.5s50 -67.666 87 -87.999s80.833 -30.5 131.5 -30.5c53.333 0 98.5 11.5 135.5 34.5s65.167 56.833 84.5 101.5s29 99.667 29 165v1428zM444 -832.002c-112 0 -197.333 29.333 -256 88s-88 144 -88 256v3024
c0 112 29.333 197.333 88 256s144 88 256 88h3024c112 0 197.333 -29.333 256 -88s88 -144 88 -256v-3024c0 -112 -29.333 -197.333 -88 -256s-144 -88 -256 -88h-3024zM425 -547.002h3061c12.667 0 22.667 3.83301 30 11.5s11 17.5 11 29.5v3060
c0 12.667 -3.66699 22.667 -11 30s-17.333 11 -30 11h-3061c-11.333 0 -20.833 -3.66699 -28.5 -11s-11.5 -17.333 -11.5 -30v-3060c0 -12 3.83301 -21.833 11.5 -29.5s17.167 -11.5 28.5 -11.5z" />
    <glyph glyph-name="u1F13A" unicode="K&#x20de;" horiz-adv-x="3912" 
d="M1121 0v2048h433v-903h27l737 903h519l-760 -917l769 -1131h-518l-561 842l-213 -260v-582h-433zM444 -832c-112 0 -197.333 29.333 -256 88s-88 144 -88 256v3024c0 112 29.333 197.333 88 256s144 88 256 88h3024c112 0 197.333 -29.333 256 -88s88 -144 88 -256v-3024
c0 -112 -29.333 -197.333 -88 -256s-144 -88 -256 -88h-3024zM425 -547h3061c12.667 0 22.667 3.83301 30 11.5s11 17.5 11 29.5v3060c0 12.667 -3.66699 22.667 -11 30s-17.333 11 -30 11h-3061c-11.333 0 -20.833 -3.66699 -28.5 -11s-11.5 -17.333 -11.5 -30v-3060
c0 -12 3.83301 -21.833 11.5 -29.5s17.167 -11.5 28.5 -11.5z" />
    <glyph glyph-name="u1F13B" unicode="L&#x20de;" horiz-adv-x="3912" 
d="M1328 0v2048h433v-1691h878v-357h-1311zM444 -832c-112 0 -197.333 29.333 -256 88s-88 144 -88 256v3024c0 112 29.333 197.333 88 256s144 88 256 88h3024c112 0 197.333 -29.333 256 -88s88 -144 88 -256v-3024c0 -112 -29.333 -197.333 -88 -256s-144 -88 -256 -88
h-3024zM425 -547h3061c12.667 0 22.667 3.83301 30 11.5s11 17.5 11 29.5v3060c0 12.667 -3.66699 22.667 -11 30s-17.333 11 -30 11h-3061c-11.333 0 -20.833 -3.66699 -28.5 -11s-11.5 -17.333 -11.5 -30v-3060c0 -12 3.83301 -21.833 11.5 -29.5s17.167 -11.5 28.5 -11.5
z" />
    <glyph glyph-name="u1F13C" unicode="M&#x20de;" horiz-adv-x="3912" 
d="M846 2048h534l564 -1376h24l564 1376h534v-2048h-420v1333h-17l-530 -1323h-286l-530 1328h-17v-1338h-420v2048zM444 -832c-112 0 -197.333 29.333 -256 88s-88 144 -88 256v3024c0 112 29.333 197.333 88 256s144 88 256 88h3024c112 0 197.333 -29.333 256 -88
s88 -144 88 -256v-3024c0 -112 -29.333 -197.333 -88 -256s-144 -88 -256 -88h-3024zM425 -547h3061c12.667 0 22.667 3.83301 30 11.5s11 17.5 11 29.5v3060c0 12.667 -3.66699 22.667 -11 30s-17.333 11 -30 11h-3061c-11.333 0 -20.833 -3.66699 -28.5 -11
s-11.5 -17.333 -11.5 -30v-3060c0 -12 3.83301 -21.833 11.5 -29.5s17.167 -11.5 28.5 -11.5z" />
    <glyph glyph-name="u1F13D" unicode="N&#x20de;" horiz-adv-x="3912" 
d="M2812 2048v-2048h-374l-891 1289h-15v-1289h-433v2048h380l884 -1288h18v1288h431zM444 -832c-112 0 -197.333 29.333 -256 88s-88 144 -88 256v3024c0 112 29.333 197.333 88 256s144 88 256 88h3024c112 0 197.333 -29.333 256 -88s88 -144 88 -256v-3024
c0 -112 -29.333 -197.333 -88 -256s-144 -88 -256 -88h-3024zM425 -547h3061c12.667 0 22.667 3.83301 30 11.5s11 17.5 11 29.5v3060c0 12.667 -3.66699 22.667 -11 30s-17.333 11 -30 11h-3061c-11.333 0 -20.833 -3.66699 -28.5 -11s-11.5 -17.333 -11.5 -30v-3060
c0 -12 3.83301 -21.833 11.5 -29.5s17.167 -11.5 28.5 -11.5z" />
    <glyph glyph-name="u1F13E" unicode="O&#x20de;" horiz-adv-x="3912" 
d="M2915 1024c0 -223.333 -42.167 -413.335 -126.5 -570.002s-199 -276.167 -344 -358.5s-307.833 -123.5 -488.5 -123.5c-182 0 -345.333 41.333 -490 124s-259 202.334 -343 359.001s-126 346.334 -126 569.001c0 223.333 42 413.333 126 570s198.333 276.167 343 358.5
s308 123.5 490 123.5c180.667 0 343.5 -41.167 488.5 -123.5s259.667 -201.833 344 -358.5s126.5 -346.667 126.5 -570zM2476 1024c0 144.667 -21.5 266.667 -64.5 366s-103.5 174.666 -181.5 225.999s-169.333 77 -274 77s-196 -25.667 -274 -77
s-138.5 -126.666 -181.5 -225.999s-64.5 -221.333 -64.5 -366s21.5 -266.667 64.5 -366s103.5 -174.666 181.5 -225.999s169.333 -77 274 -77s196 25.667 274 77s138.5 126.666 181.5 225.999s64.5 221.333 64.5 366zM444 -832.002c-112 0 -197.333 29.333 -256 88
s-88 144 -88 256v3024c0 112 29.333 197.333 88 256s144 88 256 88h3024c112 0 197.333 -29.333 256 -88s88 -144 88 -256v-3024c0 -112 -29.333 -197.333 -88 -256s-144 -88 -256 -88h-3024zM425 -547.002h3061c12.667 0 22.667 3.83301 30 11.5s11 17.5 11 29.5v3060
c0 12.667 -3.66699 22.667 -11 30s-17.333 11 -30 11h-3061c-11.333 0 -20.833 -3.66699 -28.5 -11s-11.5 -17.333 -11.5 -30v-3060c0 -12 3.83301 -21.833 11.5 -29.5s17.167 -11.5 28.5 -11.5z" />
    <glyph glyph-name="u1F13F" unicode="P&#x20de;" horiz-adv-x="3912" 
d="M1237 0l0.00195312 2048h808c155.333 0 287.666 -29.5 396.999 -88.5s192.833 -140.667 250.5 -245s86.5 -224.5 86.5 -360.5s-29.333 -256 -88 -360s-143.5 -185 -254.5 -243s-245.167 -87 -402.5 -87h-515v347h445c83.333 0 152.166 14.5 206.499 43.5
s95 69.333 122 121s40.5 111.167 40.5 178.5c0 68 -13.5 127.5 -40.5 178.5s-67.833 90.667 -122.5 119s-124 42.5 -208 42.5h-292v-1694h-433zM444.002 -832c-112 0 -197.333 29.333 -256 88s-88 144 -88 256v3024c0 112 29.333 197.333 88 256s144 88 256 88h3024
c112 0 197.333 -29.333 256 -88s88 -144 88 -256v-3024c0 -112 -29.333 -197.333 -88 -256s-144 -88 -256 -88h-3024zM425.002 -547h3061c12.667 0 22.667 3.83301 30 11.5s11 17.5 11 29.5v3060c0 12.667 -3.66699 22.667 -11 30s-17.333 11 -30 11h-3061
c-11.333 0 -20.833 -3.66699 -28.5 -11s-11.5 -17.333 -11.5 -30v-3060c0 -12 3.83301 -21.833 11.5 -29.5s17.167 -11.5 28.5 -11.5z" />
    <glyph glyph-name="u1F140" unicode="Q&#x20de;" horiz-adv-x="3912" 
d="M1805 712h368l185 -238l182 -212l343 -430h-404l-236 290l-121 172zM2914 1024c0 -223.333 -42.167 -413.335 -126.5 -570.002s-199 -276.167 -344 -358.5s-307.833 -123.5 -488.5 -123.5c-182 0 -345.333 41.333 -490 124s-259 202.334 -343 359.001
s-126 346.334 -126 569.001c0 223.333 42 413.333 126 570s198.333 276.167 343 358.5s308 123.5 490 123.5c180.667 0 343.5 -41.167 488.5 -123.5s259.667 -201.833 344 -358.5s126.5 -346.667 126.5 -570zM2475 1024c0 144.667 -21.5 266.667 -64.5 366
s-103.5 174.666 -181.5 225.999s-169.333 77 -274 77s-196 -25.667 -274 -77s-138.5 -126.666 -181.5 -225.999s-64.5 -221.333 -64.5 -366s21.5 -266.667 64.5 -366s103.5 -174.666 181.5 -225.999s169.333 -77 274 -77s196 25.667 274 77s138.5 126.666 181.5 225.999
s64.5 221.333 64.5 366zM444 -832.002c-112 0 -197.333 29.333 -256 88s-88 144 -88 256v3024c0 112 29.333 197.333 88 256s144 88 256 88h3024c112 0 197.333 -29.333 256 -88s88 -144 88 -256v-3024c0 -112 -29.333 -197.333 -88 -256s-144 -88 -256 -88h-3024z
M425 -547.002h3061c12.667 0 22.667 3.83301 30 11.5s11 17.5 11 29.5v3060c0 12.667 -3.66699 22.667 -11 30s-17.333 11 -30 11h-3061c-11.333 0 -20.833 -3.66699 -28.5 -11s-11.5 -17.333 -11.5 -30v-3060c0 -12 3.83301 -21.833 11.5 -29.5s17.167 -11.5 28.5 -11.5z
" />
    <glyph glyph-name="u1F141" unicode="R&#x20de;" horiz-adv-x="3912" 
d="M1204 0l-0.00195312 2048h808c154.667 0 286.834 -27.5 396.5 -82.5c109.667 -55 193.334 -132.667 251.001 -233s86.5 -218.166 86.5 -353.499c0 -136 -29.333 -252.833 -88 -350.5s-143.5 -172.5 -254.5 -224.5s-245.167 -78 -402.5 -78h-541v348h471
c82.667 0 151.334 11.333 206.001 34s95.5 56.667 122.5 102s40.5 101.666 40.5 168.999c0 68 -13.5 125.333 -40.5 172s-68 82.167 -123 106.5s-124.167 36.5 -207.5 36.5h-292v-1694h-433zM2310 932l509 -932h-478l-498 932h467zM443.998 -832
c-112 0 -197.333 29.333 -256 88s-88 144 -88 256v3024c0 112 29.333 197.333 88 256s144 88 256 88h3024c112 0 197.333 -29.333 256 -88s88 -144 88 -256v-3024c0 -112 -29.333 -197.333 -88 -256s-144 -88 -256 -88h-3024zM424.998 -547h3061
c12.667 0 22.667 3.83301 30 11.5s11 17.5 11 29.5v3060c0 12.667 -3.66699 22.667 -11 30s-17.333 11 -30 11h-3061c-11.333 0 -20.833 -3.66699 -28.5 -11s-11.5 -17.333 -11.5 -30v-3060c0 -12 3.83301 -21.833 11.5 -29.5s17.167 -11.5 28.5 -11.5z" />
    <glyph glyph-name="u1F142" unicode="S&#x20de;" horiz-adv-x="3912" 
d="M2323 1459c-8 80.667 -42.3311 143.335 -102.998 188.002s-143 67 -247 67c-70.667 0 -130.334 -9.83301 -179.001 -29.5s-85.834 -46.834 -111.501 -81.501s-38.5 -74 -38.5 -118c-1.33301 -36.667 6.5 -68.667 23.5 -96s40.5 -50.833 70.5 -70.5
s64.667 -36.667 104 -51s81.333 -26.5 126 -36.5l184 -44c89.333 -20 171.333 -46.667 246 -80s139.334 -74.333 194 -123c54.667 -48.667 97.167 -106 127.5 -172s45.833 -141.667 46.5 -227c-0.666992 -125.333 -32.5 -233.833 -95.5 -325.5s-153.667 -162.667 -272 -213
s-260.833 -75.5 -427.5 -75.5c-165.333 0 -309.166 25.333 -431.499 76s-217.666 125.834 -285.999 225.501s-104.166 223.167 -107.499 370.5h419c4.66699 -68.667 24.5 -125.834 59.5 -171.501s82 -80 141 -103s125.833 -34.5 200.5 -34.5
c73.333 0 137.166 10.667 191.499 32s96.5 51 126.5 89s45 81.667 45 131c0 46 -13.5 84.667 -40.5 116s-66.333 58 -118 80s-114.834 42 -189.501 60l-223 56c-172.667 42 -309 107.667 -409 197s-149.667 209.666 -149 360.999c-0.666992 124 32.5 232.333 99.5 325
s159.167 165 276.5 217s250.666 78 399.999 78c152 0 284.833 -26 398.5 -78s202.167 -124.333 265.5 -217s96 -200 98 -322h-415zM444.002 -831.999c-112 0 -197.333 29.333 -256 88s-88 144 -88 256v3024c0 112 29.333 197.333 88 256s144 88 256 88h3024
c112 0 197.333 -29.333 256 -88s88 -144 88 -256v-3024c0 -112 -29.333 -197.333 -88 -256s-144 -88 -256 -88h-3024zM425.002 -546.999h3061c12.667 0 22.667 3.83301 30 11.5s11 17.5 11 29.5v3060c0 12.667 -3.66699 22.667 -11 30s-17.333 11 -30 11h-3061
c-11.333 0 -20.833 -3.66699 -28.5 -11s-11.5 -17.333 -11.5 -30v-3060c0 -12 3.83301 -21.833 11.5 -29.5s17.167 -11.5 28.5 -11.5z" />
    <glyph glyph-name="u1F143" unicode="T&#x20de;" horiz-adv-x="3912" 
d="M1115 1691v357h1682v-357h-627v-1691h-428v1691h-627zM444 -832c-112 0 -197.333 29.333 -256 88s-88 144 -88 256v3024c0 112 29.333 197.333 88 256s144 88 256 88h3024c112 0 197.333 -29.333 256 -88s88 -144 88 -256v-3024c0 -112 -29.333 -197.333 -88 -256
s-144 -88 -256 -88h-3024zM425 -547h3061c12.667 0 22.667 3.83301 30 11.5s11 17.5 11 29.5v3060c0 12.667 -3.66699 22.667 -11 30s-17.333 11 -30 11h-3061c-11.333 0 -20.833 -3.66699 -28.5 -11s-11.5 -17.333 -11.5 -30v-3060c0 -12 3.83301 -21.833 11.5 -29.5
s17.167 -11.5 28.5 -11.5z" />
    <glyph glyph-name="u1F144" unicode="U&#x20de;" horiz-adv-x="3912" 
d="M2372 2048h433v-1330c0 -149.333 -35.5 -280 -106.5 -392s-170.167 -199.167 -297.5 -261.5s-275.666 -93.5 -445 -93.5c-170 0 -318.667 31.167 -446 93.5s-226.333 149.5 -297 261.5s-106 242.667 -106 392v1330h433v-1293c0 -78 17.167 -147.333 51.5 -208
s82.833 -108.334 145.5 -143.001s135.667 -52 219 -52c84 0 157.167 17.333 219.5 52s110.666 82.334 145 143.001c34.333 60.667 51.5 130 51.5 208v1293zM444 -832c-112 0 -197.333 29.333 -256 88s-88 144 -88 256v3024c0 112 29.333 197.333 88 256s144 88 256 88h3024
c112 0 197.333 -29.333 256 -88s88 -144 88 -256v-3024c0 -112 -29.333 -197.333 -88 -256s-144 -88 -256 -88h-3024zM425 -547h3061c12.667 0 22.667 3.83301 30 11.5s11 17.5 11 29.5v3060c0 12.667 -3.66699 22.667 -11 30s-17.333 11 -30 11h-3061
c-11.333 0 -20.833 -3.66699 -28.5 -11s-11.5 -17.333 -11.5 -30v-3060c0 -12 3.83301 -21.833 11.5 -29.5s17.167 -11.5 28.5 -11.5z" />
    <glyph glyph-name="u1F145" unicode="V&#x20de;" horiz-adv-x="3912" 
d="M1451 2048l495 -1556h19l496 1556h480l-706 -2048h-558l-707 2048h481zM444 -832c-112 0 -197.333 29.333 -256 88s-88 144 -88 256v3024c0 112 29.333 197.333 88 256s144 88 256 88h3024c112 0 197.333 -29.333 256 -88s88 -144 88 -256v-3024
c0 -112 -29.333 -197.333 -88 -256s-144 -88 -256 -88h-3024zM425 -547h3061c12.667 0 22.667 3.83301 30 11.5s11 17.5 11 29.5v3060c0 12.667 -3.66699 22.667 -11 30s-17.333 11 -30 11h-3061c-11.333 0 -20.833 -3.66699 -28.5 -11s-11.5 -17.333 -11.5 -30v-3060
c0 -12 3.83301 -21.833 11.5 -29.5s17.167 -11.5 28.5 -11.5z" />
    <glyph glyph-name="u1F146" unicode="W&#x20de;" horiz-adv-x="3912" 
d="M1137 0l-586 2048h473l339 -1423h17l374 1423h405l373 -1426h18l339 1426h473l-586 -2048h-422l-390 1339h-16l-389 -1339h-422zM444 -832c-112 0 -197.333 29.333 -256 88s-88 144 -88 256v3024c0 112 29.333 197.333 88 256s144 88 256 88h3024
c112 0 197.333 -29.333 256 -88s88 -144 88 -256v-3024c0 -112 -29.333 -197.333 -88 -256s-144 -88 -256 -88h-3024zM425 -547h3061c12.667 0 22.667 3.83301 30 11.5s11 17.5 11 29.5v3060c0 12.667 -3.66699 22.667 -11 30s-17.333 11 -30 11h-3061
c-11.333 0 -20.833 -3.66699 -28.5 -11s-11.5 -17.333 -11.5 -30v-3060c0 -12 3.83301 -21.833 11.5 -29.5s17.167 -11.5 28.5 -11.5z" />
    <glyph glyph-name="u1F147" unicode="X&#x20de;" horiz-adv-x="3912" 
d="M1535 2048l413 -698h16l415 698h489l-625 -1024l639 -1024h-498l-420 699h-16l-420 -699h-496l641 1024l-629 1024h491zM444 -832c-112 0 -197.333 29.333 -256 88s-88 144 -88 256v3024c0 112 29.333 197.333 88 256s144 88 256 88h3024c112 0 197.333 -29.333 256 -88
s88 -144 88 -256v-3024c0 -112 -29.333 -197.333 -88 -256s-144 -88 -256 -88h-3024zM425 -547h3061c12.667 0 22.667 3.83301 30 11.5s11 17.5 11 29.5v3060c0 12.667 -3.66699 22.667 -11 30s-17.333 11 -30 11h-3061c-11.333 0 -20.833 -3.66699 -28.5 -11
s-11.5 -17.333 -11.5 -30v-3060c0 -12 3.83301 -21.833 11.5 -29.5s17.167 -11.5 28.5 -11.5z" />
    <glyph glyph-name="u1F148" unicode="Y&#x20de;" horiz-adv-x="3912" 
d="M994 2048h485l467 -882h20l467 882h485l-747 -1324v-724h-430v724zM444 -832c-112 0 -197.333 29.333 -256 88s-88 144 -88 256v3024c0 112 29.333 197.333 88 256s144 88 256 88h3024c112 0 197.333 -29.333 256 -88s88 -144 88 -256v-3024
c0 -112 -29.333 -197.333 -88 -256s-144 -88 -256 -88h-3024zM425 -547h3061c12.667 0 22.667 3.83301 30 11.5s11 17.5 11 29.5v3060c0 12.667 -3.66699 22.667 -11 30s-17.333 11 -30 11h-3061c-11.333 0 -20.833 -3.66699 -28.5 -11s-11.5 -17.333 -11.5 -30v-3060
c0 -12 3.83301 -21.833 11.5 -29.5s17.167 -11.5 28.5 -11.5z" />
    <glyph glyph-name="u1F149" unicode="Z&#x20de;" horiz-adv-x="3912" 
d="M1173 0v257l1022 1434h-1024v357h1568v-257l-1023 -1434h1025v-357h-1568zM444 -832c-112 0 -197.333 29.333 -256 88s-88 144 -88 256v3024c0 112 29.333 197.333 88 256s144 88 256 88h3024c112 0 197.333 -29.333 256 -88s88 -144 88 -256v-3024
c0 -112 -29.333 -197.333 -88 -256s-144 -88 -256 -88h-3024zM425 -547h3061c12.667 0 22.667 3.83301 30 11.5s11 17.5 11 29.5v3060c0 12.667 -3.66699 22.667 -11 30s-17.333 11 -30 11h-3061c-11.333 0 -20.833 -3.66699 -28.5 -11s-11.5 -17.333 -11.5 -30v-3060
c0 -12 3.83301 -21.833 11.5 -29.5s17.167 -11.5 28.5 -11.5z" />
    <glyph glyph-name=".notdef" horiz-adv-x="2956" 
d="M291 -640v512h2374v-512h-2374zM291 1472v512h2374v-512h-2374zM291 2176v512h2374v-512h-2374zM291 64v512h2374v-512h-2374zM291 768v512h2374v-512h-2374z" />
    <glyph glyph-name="uni0020" unicode=" " horiz-adv-x="653" 
 />
    <glyph glyph-name="uni0021" unicode="!" horiz-adv-x="914" 
d="M679 2048l-39 -1434h-366l-40 1434h445zM457 -26c-66 0 -122.667 23.5 -170 70.5s-70.666 103.5 -69.999 169.5c-0.666992 65.333 22.666 121.333 69.999 168s104 70 170 70c63.333 0 119 -23.333 167 -70s72.333 -102.667 73 -168
c-0.666992 -44 -12.167 -84.167 -34.5 -120.5s-51.5 -65.333 -87.5 -87s-75.333 -32.5 -118 -32.5z" />
    <glyph glyph-name="uni0022" unicode="&#x22;" horiz-adv-x="1105" 
d="M444 2048v-778h-304v778h304zM961 2048v-778h-304v778h304z" />
    <glyph glyph-name="uni0023" unicode="#" horiz-adv-x="1829" 
d="M946 0l336 2048h320l-336 -2048h-320zM29 508l53 320h1600l-53 -320h-1600zM226 0l336 2048h320l-336 -2048h-320zM146 1220l54 320h1600l-54 -320h-1600z" />
    <glyph glyph-name="uni0024" unicode="$" horiz-adv-x="1844" 
d="M809 -256l24 2560h236l-24 -2560h-236zM1289 1459c-8 80.667 -42.332 143.335 -102.999 188.002s-143 67 -247 67c-70.667 0 -130.334 -9.83301 -179.001 -29.5s-85.834 -46.834 -111.501 -81.501s-38.5 -74 -38.5 -118c-1.33301 -36.667 6.5 -68.667 23.5 -96
s40.5 -50.833 70.5 -70.5s64.667 -36.667 104 -51s81.333 -26.5 126 -36.5l184 -44c89.333 -20 171.333 -46.667 246 -80s139.334 -74.333 194.001 -123s97.167 -106 127.5 -172s45.833 -141.667 46.5 -227c-0.666992 -125.333 -32.5 -233.833 -95.5 -325.5
s-153.667 -162.667 -272 -213s-260.833 -75.5 -427.5 -75.5c-165.333 0 -309.166 25.333 -431.499 76s-217.666 125.834 -285.999 225.501s-104.166 223.167 -107.499 370.5h419c4.66699 -68.667 24.5 -125.834 59.5 -171.501s82 -80 141 -103s125.833 -34.5 200.5 -34.5
c73.333 0 137.166 10.667 191.499 32s96.5 51 126.5 89s45 81.667 45 131c0 46 -13.5 84.667 -40.5 116s-66.333 58 -118 80s-114.834 42 -189.501 60l-223 56c-172.667 42 -309 107.667 -409 197s-149.667 209.666 -149 360.999c-0.666992 124 32.5 232.333 99.5 325
s159.167 165 276.5 217s250.666 78 399.999 78c152 0 284.833 -26 398.5 -78s202.167 -124.333 265.5 -217s96 -200 98 -322h-415z" />
    <glyph glyph-name="uni0025" unicode="%" horiz-adv-x="2420" 
d="M1287 384l-0.000976562 108c0.666992 82 18.5 157.5 53.5 226.5s85.833 124.333 152.5 166s148.334 62.5 245.001 62.5c98 0 180.5 -20.667 247.5 -62s117.667 -96.5 152 -165.5s51.5 -144.833 51.5 -227.5v-108c0 -82 -17.333 -157.5 -52 -226.5
s-85.667 -124.333 -153 -166s-149.333 -62.5 -246 -62.5c-98 0 -180.333 20.833 -247 62.5s-117.167 97 -151.5 166s-51.833 144.5 -52.5 226.5zM1578 492l-0.00195312 -108c0.666992 -47.333 12.334 -92 35.001 -134s64.334 -63 125.001 -63s102.334 20.667 125.001 62
s33.667 86.333 33 135v108c0.666992 48.667 -9.83301 94 -31.5 136s-63.834 63 -126.501 63c-60 0 -101.5 -21 -124.5 -63s-34.833 -87.333 -35.5 -136zM235.997 1556l-0.000976562 108.001c0.666992 82.667 18.5 158.5 53.5 227.5s86 124.167 153 165.5
s148.167 62 243.5 62c98.667 0 181.5 -20.667 248.5 -62s117.667 -96.5 152 -165.5s51.5 -144.833 51.5 -227.5v-108c0 -82.667 -17.333 -158.334 -52 -227.001s-85.667 -123.5 -153 -164.5s-149.666 -61.5 -246.999 -61.5s-179.333 20.833 -246 62.5
s-117.167 96.667 -151.5 165s-51.833 143.5 -52.5 225.5zM528.996 1664l-0.00292969 -108c0.666992 -48.667 12.334 -93.667 35.001 -135s63.334 -62 122.001 -62c61.333 0 103.333 20.667 126 62s33.667 86.333 33 135v108c0.666992 48.667 -9.83301 94 -31.5 136
s-64.167 63 -127.5 63c-59.333 0 -100.166 -21.333 -122.499 -64s-33.833 -87.667 -34.5 -135zM333.993 0.000976562l1408 2048h261l-1408 -2048h-261z" />
    <glyph glyph-name="uni0026" unicode="&#x26;" horiz-adv-x="1898" 
d="M798 -30c-141.333 0 -263.334 25.3311 -366.001 75.998s-181.5 119.5 -236.5 206.5s-82.5 184.167 -82.5 291.5c0 80 16 151 48 213s76.667 119.167 134 171.5s124 104.5 200 156.5l397 261c51.333 32.667 89 67.167 113 103.5s36 75.833 36 118.5
c0 40.667 -16.333 78.334 -49 113.001s-79 51.667 -139 51c-40 0 -74.667 -8.83301 -104 -26.5s-52.166 -40.667 -68.499 -69s-24.5 -59.833 -24.5 -94.5c0 -42.667 12 -86 36 -130s56 -90.5 96 -139.5l131 -158.5l971 -1114h-444l-810 902l-159.5 190.5
c-53 66.333 -97.167 137 -132.5 212s-53 156.5 -53 244.5c0 99.333 23.167 188.666 69.5 267.999s111.5 142.166 195.5 188.499s182 69.5 294 69.5c109.333 0 203.833 -22.167 283.5 -66.5s141 -103 184 -176s64.5 -153.167 64.5 -240.5
c0 -96.667 -23.833 -184.167 -71.5 -262.5s-114.5 -148.5 -200.5 -210.5l-418 -301c-56.667 -41.333 -98.5 -83.5 -125.5 -126.5s-40.5 -84.167 -40.5 -123.5c0 -48.667 12 -92.334 36 -131.001s58 -69.167 102 -91.5s95.667 -33.5 155 -33.5c72 0 143.167 16.5 213.5 49.5
s134.333 80 192 141s103.834 133.5 138.501 217.5s52 177 52 279h353c0 -125.333 -13.667 -238.166 -41 -338.499s-65.333 -187.666 -114 -261.999s-104.334 -135.166 -167.001 -182.499l-58 -36l-58 -36c-76 -61.333 -160.833 -105.666 -254.5 -132.999
s-186.167 -41 -277.5 -41z" />
    <glyph glyph-name="uni0027" unicode="'" horiz-adv-x="588" 
d="M444 2048v-778h-304v778h304z" />
    <glyph glyph-name="uni0028" unicode="(" horiz-adv-x="1152" 
d="M264 821c0 248 33.167 476.332 99.5 684.999s167.833 402 304.5 580h407c-52 -66 -100.333 -146.5 -145 -241.5s-83.667 -199.167 -117 -312.5s-59.333 -230.5 -78 -351.5s-28 -240.833 -28 -359.5c0 -158 16.167 -317.5 48.5 -478.5s76.333 -310.5 132 -448.5
s118.167 -251 187.5 -339h-407c-136.667 178 -238.167 371.333 -304.5 580s-99.5 437.334 -99.5 686.001z" />
    <glyph glyph-name="uni0029" unicode=")" horiz-adv-x="1152" 
d="M888 821c0 -248.667 -33.167 -477.333 -99.5 -686s-167.833 -402 -304.5 -580h-407c52 66 100.333 146.667 145 242s83.667 199.5 117 312.5s59.333 230.167 78 351.5s28 241.333 28 360c0 158 -16.167 317.5 -48.5 478.5s-76.333 310.333 -132 448
s-118.167 250.5 -187.5 338.5h407c136.667 -178 238.167 -371.333 304.5 -580s99.5 -437 99.5 -685z" />
    <glyph glyph-name="uni002A" unicode="*" horiz-adv-x="1590" 
d="M661 896l25 387l-324 -217l-134 236l349 170l-349 170l134 236l324 -217l-25 387h269l-26 -387l324 217l134 -236l-348 -170l348 -170l-134 -236l-324 217l26 -387h-269z" />
    <glyph glyph-name="uni002B" unicode="+" horiz-adv-x="1914" 
d="M778 111v1416h358v-1416h-358zM249 640v358h1416v-358h-1416z" />
    <glyph glyph-name="uni002C" unicode="," horiz-adv-x="853" 
d="M633 280l-11 -109.999c-8.66699 -88 -25.167 -175.833 -49.5 -263.5s-49.666 -167.167 -75.999 -238.5l-63.5 -168h-276l41 164.5c17.333 70.333 33.666 149.166 48.999 236.499s25 176.333 29 267l5 112h352z" />
    <glyph glyph-name="uni002D" unicode="-" horiz-adv-x="1320" 
d="M1127 1010v-338h-934v338h934z" />
    <glyph glyph-name="uni002E" unicode="." horiz-adv-x="838" 
d="M419 -26c-66 0 -122.5 23.5 -169.5 70.5s-70.5 103.5 -70.5 169.5c0 65.333 23.5 121.333 70.5 168s103.5 70 169.5 70c64 0 120 -23.333 168 -70s72 -102.667 72 -168c0 -44 -11.167 -84.167 -33.5 -120.5s-51.5 -65.333 -87.5 -87s-75.667 -32.5 -119 -32.5z" />
    <glyph glyph-name="uni002F" unicode="/" horiz-adv-x="1098" 
d="M1062 2144l-660 -2452h-367l660 2452h367z" />
    <glyph glyph-name="uni0030" unicode="0" horiz-adv-x="1938" 
d="M969 -45c-172 0.666992 -319.836 43.002 -443.503 127.002s-218.667 205.667 -285 365s-99.166 351 -98.499 575c0 223.333 33.167 413.666 99.5 570.999s161.333 277.166 285 359.499s271.167 123.5 442.5 123.5s318.833 -41.333 442.5 -124
s218.834 -202.5 285.501 -359.5s99.667 -347.167 99 -570.5c0 -224.667 -33.167 -416.667 -99.5 -576s-161.166 -281 -284.499 -365s-271 -126 -443 -126zM968.997 314.002c117.333 0 211.001 59.002 281.001 177.002s104.667 295 104 531
c0 155.333 -15.833 284.666 -47.5 387.999s-76.334 181 -134.001 233s-125.5 78 -203.5 78c-116.667 0 -210 -58.333 -280 -175s-105.333 -291.334 -106 -524.001c0 -157.333 15.833 -288.5 47.5 -393.5s76.5 -183.667 134.5 -236s126 -78.5 204 -78.5z" />
    <glyph glyph-name="uni0031" unicode="1" horiz-adv-x="1378" 
d="M1057 2048v-2048h-433v1637h-12l-469 -294v384l507 321h407z" />
    <glyph glyph-name="uni0032" unicode="2" horiz-adv-x="1774" 
d="M166 0l-0.000976562 311.996l729 675c62 60 114.167 114 156.5 162s74.5 95.167 96.5 141.5s33 96.5 33 150.5c0 60 -13.667 111.833 -41 155.5s-64.666 77.334 -111.999 101.001s-101 35.5 -161 35.5c-62.667 0 -117.334 -12.667 -164.001 -38
s-82.667 -61.666 -108 -108.999s-38 -103.666 -38 -168.999h-411c0 134 30.333 250.333 91 349s145.667 175 255 229s235.333 81 378 81c146.667 0 274.5 -25.833 383.5 -77.5s193.833 -123.167 254.5 -214.5s91 -196 91 -314c0 -77.333 -15.167 -153.666 -45.5 -228.999
s-84.166 -158.833 -161.499 -250.5s-186.333 -201.5 -327 -329.5l-299 -293v-14h860v-354h-1460z" />
    <glyph glyph-name="uni0033" unicode="3" horiz-adv-x="1857" 
d="M923 -28c-149.333 0 -282.166 25.8379 -398.499 77.5049s-208 123 -275 214s-101.5 196.167 -103.5 315.5h436c2.66699 -50 19.167 -93.833 49.5 -131.5s70.833 -66.834 121.5 -87.501s107.667 -31 171 -31c66 0 124.333 11.667 175 35s90.334 55.666 119.001 96.999
s43 89 43 143c0 54.667 -15.167 103.167 -45.5 145.5s-73.666 75.5 -129.999 99.5s-123.166 36 -200.499 36h-191v318h191c65.333 0 123.166 11.333 173.499 34s89.5 54.167 117.5 94.5s42 87.5 42 141.5c0 51.333 -12.167 96.5 -36.5 135.5s-58.333 69.5 -102 91.5
s-94.5 33 -152.5 33c-58.667 0 -112.334 -10.5 -161.001 -31.5s-87.667 -50.833 -117 -89.5s-45 -84 -47 -136h-415c2 118 35.667 222 101 312s153.5 160.5 264.5 211.5s236.5 76.5 376.5 76.5c141.333 0 265 -25.667 371 -77s188.5 -120.5 247.5 -207.5
s88.167 -184.5 87.5 -292.5c0.666992 -114.667 -34.833 -210.334 -106.5 -287.001s-164.834 -125.334 -279.501 -146.001v-16c150.667 -19.333 265.5 -71.5 344.5 -156.5s118.167 -191.167 117.5 -318.5c0.666992 -116.667 -32.833 -220.334 -100.5 -311.001
s-160.834 -162 -279.501 -214s-254.667 -78 -408 -78z" />
    <glyph glyph-name="uni0034" unicode="4" horiz-adv-x="1909" 
d="M135 360v341l855 1347h294v-472h-174l-539 -853v-16h1215v-347h-1651zM1118 0v464l8 151v1433h406v-2048h-414z" />
    <glyph glyph-name="uni0035" unicode="5" horiz-adv-x="1815" 
d="M914 -28c-141.333 0 -267.169 25.999 -377.502 77.999s-197.833 123.667 -262.5 215s-98.334 196 -101.001 314h420c4.66699 -79.333 38 -143.666 100 -192.999s135.667 -74 221 -74c68 0 128.167 15.167 180.5 45.5s93.333 72.666 123 126.999s44.5 116.833 44.5 187.5
c0 72 -15.167 135.333 -45.5 190s-72.166 97.334 -125.499 128.001s-114.333 46.334 -183 47.001c-60 0 -118.167 -12.333 -174.5 -37s-100.166 -58.334 -131.499 -101.001l-385 69l97 1080h1252v-354h-895l-53 -513h12c36 50.667 90.333 92.667 163 126s154 50 244 50
c123.333 0 233.333 -29 330 -87s173 -137.5 229 -238.5s83.667 -217.167 83 -348.5c0.666992 -138 -31.166 -260.5 -95.499 -367.5s-154 -191 -269 -252s-248.5 -91.5 -400.5 -91.5z" />
    <glyph glyph-name="uni0036" unicode="6" horiz-adv-x="1859" 
d="M952 -28c-105.333 0.666992 -206.836 18.332 -304.503 52.999s-185 91 -262 169s-138 181.333 -183 310s-67.833 286.667 -68.5 474c0.666992 173.333 20.5 328.333 59.5 465s95 252.5 168 347.5s160.5 167.333 262.5 217s216.333 74.5 343 74.5
c136.667 0 257.334 -26.667 362.001 -80s188.834 -125.666 252.501 -216.999s102.167 -194.333 115.5 -309h-427c-16.667 74.667 -51.667 132.5 -105 173.5s-119.333 61.5 -198 61.5c-133.333 0 -234.5 -58.167 -303.5 -174.5s-104.167 -275.833 -105.5 -478.5h14
c30.667 60.667 72.167 112.5 124.5 155.5s112 76 179 99s137.833 34.5 212.5 34.5c121.333 0 229.333 -28.5 324 -85.5s169.334 -135.167 224.001 -234.5s82 -213 82 -341c0 -138.667 -32.167 -262 -96.5 -370s-154 -192.5 -269 -253.5s-248.5 -91.167 -400.5 -90.5z
M949.997 311.998c66.667 0 126.334 16.001 179.001 48.001s94 75.333 124 130s45 116 45 184s-14.833 129 -44.5 183s-70.5 97 -122.5 129s-111.333 48 -178 48c-50 0 -96.167 -9.33301 -138.5 -28s-79.333 -44.667 -111 -78s-56.5 -71.833 -74.5 -115.5
s-27 -90.167 -27 -139.5c0 -66 15.167 -126.333 45.5 -181s71.666 -98.334 123.999 -131.001s111.833 -49 178.5 -49z" />
    <glyph glyph-name="uni0037" unicode="7" horiz-adv-x="1675" 
d="M247 0l849 1680v14h-989v354h1437v-359l-850 -1689h-447z" />
    <glyph glyph-name="uni0038" unicode="8" horiz-adv-x="1861" 
d="M930 -28c-154 0 -290.832 25.167 -410.499 75.5s-213.5 119.166 -281.5 206.499s-102 186.333 -102 297c0 85.333 19.5 163.833 58.5 235.5s92.167 131.334 159.5 179.001s142.666 78.167 225.999 91.5v14c-109.333 22 -198 75.167 -266 159.5s-102 182.5 -102 294.5
c0 106 31 200.5 93 283.5s147.167 148.333 255.5 196s231.5 71.5 369.5 71.5s261.167 -24 369.5 -72s193.5 -113.5 255.5 -196.5s93.333 -177.167 94 -282.5c-0.666992 -112.667 -35.334 -211 -104.001 -295s-156.667 -137 -264 -159v-14
c82 -13.333 156.5 -43.833 223.5 -91.5s120.333 -107.334 160 -179.001s59.834 -150.167 60.501 -235.5c-0.666992 -110.667 -35 -209.667 -103 -297s-161.833 -156.166 -281.5 -206.499s-256.5 -75.5 -410.5 -75.5zM930.001 290c68.667 0 128.667 12.5 180 37.5
s91.5 59.667 120.5 104s43.5 95.5 43.5 153.5c0 59.333 -15 111.833 -45 157.5s-70.667 81.667 -122 108s-110.333 39.5 -177 39.5c-66 0 -125 -13.167 -177 -39.5s-92.833 -62.333 -122.5 -108s-44.5 -98.167 -44.5 -157.5c0 -58 14.333 -109.167 43 -153.5
s69 -79 121 -104s112 -37.5 180 -37.5zM930.001 1205c57.333 0 108.333 11.667 153 35s79.667 55.666 105 96.999s38 89 38 143c0 53.333 -12.667 100.166 -38 140.499s-60 72 -104 95s-95.333 34.5 -154 34.5c-58 0 -109.333 -11.5 -154 -34.5s-79.5 -54.667 -104.5 -95
s-37.5 -87.166 -37.5 -140.499c0 -54 12.667 -101.667 38 -143s60.333 -73.666 105 -96.999s95.667 -35 153 -35z" />
    <glyph glyph-name="uni0039" unicode="9" horiz-adv-x="1859" 
d="M907 2082c105.333 0 206.836 -17.5049 304.503 -52.5049s185 -91.5 262 -169.5s138 -181.167 183 -309.5s67.833 -286.166 68.5 -473.499c-0.666992 -174 -20.5 -329.167 -59.5 -465.5s-94.833 -252.166 -167.5 -347.499s-160.167 -167.833 -262.5 -217.5
s-216.833 -74.5 -343.5 -74.5c-136.667 0 -257.334 26.5 -362.001 79.5s-188.834 125.333 -252.501 217s-102.167 194.834 -115.5 309.501h427c16.667 -74.667 51.667 -132.5 105 -173.5s119.333 -61.5 198 -61.5c133.333 0 234.666 58.167 303.999 174.5
s104.333 275.833 105 478.5h-14c-30.667 -60 -72 -111.5 -124 -154.5s-111.5 -76.167 -178.5 -99.5s-138.167 -35 -213.5 -35c-120.667 0 -228.5 28.333 -323.5 85s-169.833 134.834 -224.5 234.501s-81.667 213.5 -81 341.5c-0.666992 138.667 31 261.834 95 369.501
s153.5 192.167 268.5 253.5s248.833 91.666 401.5 91zM910.003 1742c-67.333 0 -127.169 -16 -179.502 -48s-93.666 -75.333 -123.999 -130s-45.166 -116 -44.499 -184c-0.666992 -68 13.833 -129 43.5 -183s70.5 -96.833 122.5 -128.5s111.333 -47.5 178 -47.5
c50 0 96.167 9.33301 138.5 28s79.333 44.5 111 77.5s56.5 71.333 74.5 115s27.333 90.5 28 140.5c-0.666992 66 -16 126.333 -46 181s-71.333 98.167 -124 130.5s-112 48.5 -178 48.5z" />
    <glyph glyph-name="uni003A" unicode=":" horiz-adv-x="838" 
d="M419 -26c-66 0 -122.5 23.5 -169.5 70.5s-70.5 103.5 -70.5 169.5c0 65.333 23.5 121.333 70.5 168s103.5 70 169.5 70c64 0 120 -23.333 168 -70s72 -102.667 72 -168c0 -44 -11.167 -84.167 -33.5 -120.5s-51.5 -65.333 -87.5 -87s-75.667 -32.5 -119 -32.5zM419 1049
c-66 0 -122.5 23.5 -169.5 70.5s-70.5 103.5 -70.5 169.5c0 65.333 23.5 121.333 70.5 168s103.5 70 169.5 70c64 0 120 -23.333 168 -70s72 -102.667 72 -168c0 -44 -11.167 -84.167 -33.5 -120.5s-51.5 -65.333 -87.5 -87s-75.667 -32.5 -119 -32.5z" />
    <glyph glyph-name="uni003B" unicode=";" horiz-adv-x="848" 
d="M633 280l-11 -109.999c-8.66699 -88 -25.167 -175.833 -49.5 -263.5s-49.666 -167.167 -75.999 -238.5l-63.5 -168h-276l41 164.5c17.333 70.333 33.666 149.166 48.999 236.499s25 176.333 29 267l5 112h352zM455 1049c-66 0 -122.5 23.5 -169.5 70.5
s-70.5 103.5 -70.5 169.5c0 65.333 23.5 121.333 70.5 168s103.5 70 169.5 70c64 0 120 -23.333 168 -70s72 -102.667 72 -168c0 -44 -11.167 -84.167 -33.5 -120.5s-51.5 -65.333 -87.5 -87s-75.667 -32.5 -119 -32.5z" />
    <glyph glyph-name="uni003C" unicode="&#x3c;" horiz-adv-x="1914" 
d="M253 643v352l1408 620v-405l-964 -387l13 21v-50l-13 21l964 -387v-405z" />
    <glyph glyph-name="uni003D" unicode="=" horiz-adv-x="1914" 
d="M266 974v355h1381v-355h-1381zM266 310v355h1381v-355h-1381z" />
    <glyph glyph-name="uni003E" unicode="&#x3e;" horiz-adv-x="1914" 
d="M1661 643l-1408 -620v405l964 387l-13 -21v50l13 -21l-964 387v405l1408 -620v-352z" />
    <glyph glyph-name="uni003F" unicode="?" horiz-adv-x="1584" 
d="M536 614l0.00390625 33.9971c0.666992 116.667 11.167 209.667 31.5 279s50.166 125.333 89.499 168s86.666 81.334 141.999 116.001c41.333 26.667 78.333 54.334 111 83.001s58.667 60.5 78 95.5s29 74.167 29 117.5c0 46 -11 86.333 -33 121
s-51.5 61.334 -88.5 80.001s-77.833 28 -122.5 28c-43.333 0 -84.333 -9.5 -123 -28.5s-70.334 -47 -95.001 -84s-38 -82.833 -40 -137.5h-408c3.33301 133.333 35.333 243.5 96 330.5s141 152 241 195s210.333 64.5 331 64.5c132.667 0 250 -21.833 352 -65.5
s182 -106.834 240 -189.501s87 -182.334 87 -299.001c0 -78 -12.833 -147.167 -38.5 -207.5s-61.5 -113.666 -107.5 -159.999s-100.333 -88.166 -163 -125.499c-52.667 -31.333 -95.834 -64 -129.501 -98s-58.667 -73.333 -75 -118s-24.833 -99.667 -25.5 -165v-34h-379z
M734.004 -26.0029c-66.667 0 -123.5 23.5 -170.5 70.5s-70.167 103.5 -69.5 169.5c-0.666992 65.333 22.5 121.333 69.5 168s103.833 70 170.5 70c63.333 0 119 -23.333 167 -70s72.333 -102.667 73 -168c-0.666992 -44 -12.167 -84.167 -34.5 -120.5
s-51.5 -65.333 -87.5 -87s-75.333 -32.5 -118 -32.5z" />
    <glyph glyph-name="uni0040" unicode="@" horiz-adv-x="2902" 
d="M1511 -590c-212.667 0 -401.996 28.8359 -567.996 86.5029s-306.333 142 -421 253s-202 246.5 -262 406.5s-90 342 -90 546c0 201.333 30.167 384 90.5 548s148.5 304.833 264.5 422.5s257.833 208.167 425.5 271.5s358.834 95 573.501 95
c198.667 0 376.167 -29 532.5 -87s289 -140.5 398 -247.5s192 -234 249 -381s85.167 -309.5 84.5 -487.5c0.666992 -122.667 -10 -235.334 -32 -338.001s-56.5 -192.167 -103.5 -268.5s-108.5 -136.666 -184.5 -180.999s-168 -69.5 -276 -75.5
c-77.333 -6 -140 -0.333008 -188 17s-84.5 43.166 -109.5 77.499s-41.167 74.5 -48.5 120.5h-12c-16 -40 -47.333 -76.167 -94 -108.5s-103.5 -57.333 -170.5 -75s-138.167 -24.167 -213.5 -19.5c-78.667 4.66699 -153.167 23 -223.5 55s-132.666 78.333 -186.999 139
s-97 135.667 -128 225s-46.833 192.666 -47.5 309.999c0.666992 116 17.167 217 49.5 303s75.333 158.333 129 217s113.5 104.667 179.5 138s132.333 54.666 199 63.999c75.333 11.333 146.666 11.333 213.999 0s124.166 -29.666 170.499 -54.999
s75.166 -52.666 86.499 -81.999h14v112h313v-976c0.666992 -46 11 -81.667 31 -107s47 -38 81 -38c46 0 84.5 20.333 115.5 61s54.333 103 70 187s23.5 191 23.5 321c0 125.333 -16.5 235.5 -49.5 330.5s-79 176 -138 243s-127.5 121.5 -205.5 163.5
s-162.5 72.667 -253.5 92s-184.5 29 -280.5 29c-166 0 -311 -25.167 -435 -75.5s-227.333 -120.833 -310 -211.5s-144.5 -196.834 -185.5 -318.501s-61.833 -254.167 -62.5 -397.5c0.666992 -158 22.834 -297.833 66.501 -419.5s108.167 -223.834 193.5 -306.501
s190.666 -145.334 315.999 -188.001s269.333 -64 432 -64c76.667 0 151.667 5.5 225 16.5s139.666 24.333 198.999 40s107 30.834 143 45.501l99 -290c-42 -24 -98.833 -46.5 -170.5 -67.5s-152.334 -38 -242.001 -51s-181.834 -19.5 -276.501 -19.5zM1465 314.003
c81.333 0 146.17 15.665 194.503 46.998s83 77.833 104 139.5s30.833 137.834 29.5 228.501c-0.666992 80 -10.834 147.833 -30.501 203.5s-53.334 98 -101.001 127s-113.834 43.5 -198.501 43.5c-74 0 -136.833 -15.667 -188.5 -47s-91 -75.166 -118 -131.499
s-40.833 -122.5 -41.5 -198.5c0.666992 -70.667 12 -137.5 34 -200.5s58.333 -114 109 -153s119.667 -58.5 207 -58.5z" />
    <glyph glyph-name="uni0041" unicode="A" horiz-adv-x="2106" 
d="M531 0h-464l707 2048h558l706 -2048h-464l-513 1580h-16zM502 805h1096v-338h-1096v338z" />
    <glyph glyph-name="uni0042" unicode="B" horiz-adv-x="1861" 
d="M178 0l-0.000976562 2048h820c150.667 0 276.334 -22.333 377.001 -67s176.334 -106.5 227.001 -185.5s76 -169.833 76 -272.5c0 -80 -16 -150.167 -48 -210.5s-75.833 -109.666 -131.5 -147.999s-119.167 -65.5 -190.5 -81.5v-20c78 -3.33301 151.167 -25.333 219.5 -66
s123.833 -97.5 166.5 -170.5s64 -159.833 64 -260.5c0 -108.667 -26.833 -205.5 -80.5 -290.5s-132.834 -152.167 -237.501 -201.5s-233.667 -74 -387 -74h-875zM610.999 353.999l352.998 0.000976562c120.667 0 208.667 23.167 264 69.5s83 108.166 83 185.499
c0 56.667 -13.667 106.667 -41 150s-66.166 77.333 -116.499 102s-110.166 37 -179.499 37h-363v-544zM610.997 1191h321.001c59.333 0 112.166 10.5 158.499 31.5s83 50.833 110 89.5s40.5 85 40.5 139c0 74 -26.167 133.667 -78.5 179s-126.5 68 -222.5 68h-329v-507z" />
    <glyph glyph-name="uni0043" unicode="C" horiz-adv-x="2118" 
d="M1985 1331l-438.005 -0.00292969c-8 56.667 -24.333 107.167 -49 151.5s-56.334 82.166 -95.001 113.499s-83.167 55.333 -133.5 72s-104.833 25 -163.5 25c-106 0 -198.333 -26.167 -277 -78.5s-139.667 -128.333 -183 -228s-65 -220.5 -65 -362.5
c0 -146 21.833 -268.667 65.5 -368s104.834 -174.333 183.501 -225s169.667 -76 273 -76c58 0 111.833 7.66699 161.5 23s93.834 37.833 132.501 67.5s70.834 65.834 96.501 108.501s43.5 91.334 53.5 146.001l438 -2c-11.333 -94 -39.5 -184.5 -84.5 -271.5
s-105.333 -164.667 -181 -233s-165.667 -122.333 -270 -162s-222.166 -59.5 -353.499 -59.5c-182.667 0 -345.834 41.333 -489.501 124s-257 202.334 -340 359.001s-124.5 346.334 -124.5 569.001c0 223.333 42 413.333 126 570s198 276.167 342 358.5s306 123.5 486 123.5
c118.667 0 228.834 -16.667 330.501 -50s191.834 -81.833 270.501 -145.5s142.834 -141.5 192.501 -233.5s81.5 -197.333 95.5 -316z" />
    <glyph glyph-name="uni0044" unicode="D" horiz-adv-x="2048" 
d="M904 0l-726 0.000976562v2048h732c206 0 383.333 -40.833 532 -122.5s263.167 -198.834 343.5 -351.501s120.5 -335.334 120.5 -548.001c0 -213.333 -40.167 -396.666 -120.5 -549.999s-195.333 -271 -345 -353s-328.5 -123 -536.5 -123zM611 371.001h274.999
c128 0 235.833 22.833 323.5 68.5s153.667 116.667 198 213s66.5 220.833 66.5 373.5c0 151.333 -22.167 275 -66.5 371s-110.166 166.667 -197.499 212s-195 68 -323 68h-276v-1306z" />
    <glyph glyph-name="uni0045" unicode="E" horiz-adv-x="1725" 
d="M178 0v2048h1380v-357h-947v-488h876v-357h-876v-489h951v-357h-1384z" />
    <glyph glyph-name="uni0046" unicode="F" horiz-adv-x="1647" 
d="M178 0v2048h1356v-357h-923v-488h833v-357h-833v-846h-433z" />
    <glyph glyph-name="uni0047" unicode="G" horiz-adv-x="2142" 
d="M1536 1386c-14 48.667 -33.667 91.8311 -59 129.498s-56.166 69.667 -92.499 96s-77.666 46.5 -123.999 60.5s-97.5 21 -153.5 21c-104.667 0 -196.5 -26 -275.5 -78s-140.5 -127.5 -184.5 -226.5s-66 -219.833 -66 -362.5s21.667 -264 65 -364
s104.666 -176.167 183.999 -228.5s173 -78.5 281 -78.5c98 0 181.833 17.5 251.5 52.5s123 84.5 160 148.5s55.5 139.667 55.5 227l88 -13h-528v326h857v-258c0 -180 -38 -334.5 -114 -463.5s-180.667 -228.333 -314 -298s-286 -104.5 -458 -104.5
c-192 0 -360.667 42.5 -506 127.5s-258.5 206 -339.5 363s-121.5 343.5 -121.5 559.5c0 166 24.167 314.167 72.5 444.5s116.166 240.833 203.499 331.5s189 159.667 305 207s241.667 71 377 71c116 0 224 -16.833 324 -50.5s188.833 -81.167 266.5 -142.5
s141.167 -134.166 190.5 -218.499s81 -177.166 95 -278.499h-440z" />
    <glyph glyph-name="uni0048" unicode="H" horiz-adv-x="2101" 
d="M178 0v2048h433v-845h879v845h432v-2048h-432v846h-879v-846h-433z" />
    <glyph glyph-name="uni0049" unicode="I" horiz-adv-x="790" 
d="M611 2048v-2048h-433v2048h433z" />
    <glyph glyph-name="uni004A" unicode="J" horiz-adv-x="1605" 
d="M998 2048l428 -0.00195312v-1428c0 -132 -29.5 -246.667 -88.5 -344s-140.833 -172.333 -245.5 -225s-226.334 -79 -365.001 -79c-123.333 0 -235.166 21.833 -335.499 65.5s-179.833 110.334 -238.5 200.001s-87.667 202.5 -87 338.5h431
c1.33301 -54 12.5 -100.167 33.5 -138.5s50 -67.666 87 -87.999s80.833 -30.5 131.5 -30.5c53.333 0 98.5 11.5 135.5 34.5s65.167 56.833 84.5 101.5s29 99.667 29 165v1428z" />
    <glyph glyph-name="uni004B" unicode="K" horiz-adv-x="1942" 
d="M178 0v2048h433v-903h27l737 903h519l-760 -917l769 -1131h-518l-561 842l-213 -260v-582h-433z" />
    <glyph glyph-name="uni004C" unicode="L" horiz-adv-x="1598" 
d="M178 0v2048h433v-1691h878v-357h-1311z" />
    <glyph glyph-name="uni004D" unicode="M" horiz-adv-x="2576" 
d="M178 2048h534l564 -1376h24l564 1376h534v-2048h-420v1333h-17l-530 -1323h-286l-530 1328h-17v-1338h-420v2048z" />
    <glyph glyph-name="uni004E" unicode="N" horiz-adv-x="2070" 
d="M1891 2048v-2048h-374l-891 1289h-15v-1289h-433v2048h380l884 -1288h18v1288h431z" />
    <glyph glyph-name="uni004F" unicode="O" horiz-adv-x="2202" 
d="M2060 1024c0 -223.333 -42.167 -413.335 -126.5 -570.002s-199 -276.167 -344 -358.5s-307.833 -123.5 -488.5 -123.5c-182 0 -345.333 41.333 -490 124s-259 202.334 -343 359.001s-126 346.334 -126 569.001c0 223.333 42 413.333 126 570s198.333 276.167 343 358.5
s308 123.5 490 123.5c180.667 0 343.5 -41.167 488.5 -123.5s259.667 -201.833 344 -358.5s126.5 -346.667 126.5 -570zM1621 1024c0 144.667 -21.5 266.667 -64.5 366s-103.5 174.666 -181.5 225.999s-169.333 77 -274 77s-196 -25.667 -274 -77
s-138.5 -126.666 -181.5 -225.999s-64.5 -221.333 -64.5 -366s21.5 -266.667 64.5 -366s103.5 -174.666 181.5 -225.999s169.333 -77 274 -77s196 25.667 274 77s138.5 126.666 181.5 225.999s64.5 221.333 64.5 366z" />
    <glyph glyph-name="uni0050" unicode="P" horiz-adv-x="1824" 
d="M178 0l0.00195312 2048h808c155.333 0 287.666 -29.5 396.999 -88.5s192.833 -140.667 250.5 -245s86.5 -224.5 86.5 -360.5s-29.333 -256 -88 -360s-143.5 -185 -254.5 -243s-245.167 -87 -402.5 -87h-515v347h445c83.333 0 152.166 14.5 206.499 43.5
s95 69.333 122 121s40.5 111.167 40.5 178.5c0 68 -13.5 127.5 -40.5 178.5s-67.833 90.667 -122.5 119s-124 42.5 -208 42.5h-292v-1694h-433z" />
    <glyph glyph-name="uni0051" unicode="Q" horiz-adv-x="2204" 
d="M951 712h368l185 -238l182 -212l343 -430h-404l-236 290l-121 172zM2060 1024c0 -223.333 -42.167 -413.335 -126.5 -570.002s-199 -276.167 -344 -358.5s-307.833 -123.5 -488.5 -123.5c-182 0 -345.333 41.333 -490 124s-259 202.334 -343 359.001
s-126 346.334 -126 569.001c0 223.333 42 413.333 126 570s198.333 276.167 343 358.5s308 123.5 490 123.5c180.667 0 343.5 -41.167 488.5 -123.5s259.667 -201.833 344 -358.5s126.5 -346.667 126.5 -570zM1621 1024c0 144.667 -21.5 266.667 -64.5 366
s-103.5 174.666 -181.5 225.999s-169.333 77 -274 77s-196 -25.667 -274 -77s-138.5 -126.666 -181.5 -225.999s-64.5 -221.333 -64.5 -366s21.5 -266.667 64.5 -366s103.5 -174.666 181.5 -225.999s169.333 -77 274 -77s196 25.667 274 77s138.5 126.666 181.5 225.999
s64.5 221.333 64.5 366z" />
    <glyph glyph-name="uni0052" unicode="R" horiz-adv-x="1848" 
d="M178 0l-0.00292969 2048h808c154.667 0 286.834 -27.5 396.501 -82.5s193.334 -132.667 251.001 -233s86.5 -218.166 86.5 -353.499c0 -136 -29.333 -252.833 -88 -350.5s-143.5 -172.5 -254.5 -224.5s-245.167 -78 -402.5 -78h-541v348h471
c82.667 0 151.334 11.333 206.001 34s95.5 56.667 122.5 102s40.5 101.666 40.5 168.999c0 68 -13.5 125.333 -40.5 172s-68 82.167 -123 106.5s-124.167 36.5 -207.5 36.5h-292v-1694h-433zM1284 932l509 -932h-478l-498 932h467z" />
    <glyph glyph-name="uni0053" unicode="S" horiz-adv-x="1844" 
d="M1289 1459c-8 80.667 -42.332 143.335 -102.999 188.002s-143 67 -247 67c-70.667 0 -130.334 -9.83301 -179.001 -29.5s-85.834 -46.834 -111.501 -81.501s-38.5 -74 -38.5 -118c-1.33301 -36.667 6.5 -68.667 23.5 -96s40.5 -50.833 70.5 -70.5s64.667 -36.667 104 -51
s81.333 -26.5 126 -36.5l184 -44c89.333 -20 171.333 -46.667 246 -80s139.334 -74.333 194.001 -123s97.167 -106 127.5 -172s45.833 -141.667 46.5 -227c-0.666992 -125.333 -32.5 -233.833 -95.5 -325.5s-153.667 -162.667 -272 -213s-260.833 -75.5 -427.5 -75.5
c-165.333 0 -309.166 25.333 -431.499 76s-217.666 125.834 -285.999 225.501s-104.166 223.167 -107.499 370.5h419c4.66699 -68.667 24.5 -125.834 59.5 -171.501s82 -80 141 -103s125.833 -34.5 200.5 -34.5c73.333 0 137.166 10.667 191.499 32s96.5 51 126.5 89
s45 81.667 45 131c0 46 -13.5 84.667 -40.5 116s-66.333 58 -118 80s-114.834 42 -189.501 60l-223 56c-172.667 42 -309 107.667 -409 197s-149.667 209.666 -149 360.999c-0.666992 124 32.5 232.333 99.5 325s159.167 165 276.5 217s250.666 78 399.999 78
c152 0 284.833 -26 398.5 -78s202.167 -124.333 265.5 -217s96 -200 98 -322h-415z" />
    <glyph glyph-name="uni0054" unicode="T" horiz-adv-x="1882" 
d="M100 1691v357h1682v-357h-627v-1691h-428v1691h-627z" />
    <glyph glyph-name="uni0055" unicode="U" horiz-adv-x="2054" 
d="M1443 2048h433v-1330c0 -149.333 -35.5 -280 -106.5 -392s-170.167 -199.167 -297.5 -261.5s-275.666 -93.5 -444.999 -93.5c-170 0 -318.667 31.167 -446 93.5s-226.333 149.5 -297 261.5s-106 242.667 -106 392v1330h433v-1293c0 -78 17.167 -147.333 51.5 -208
s82.833 -108.334 145.5 -143.001s135.667 -52 219 -52c84 0 157.167 17.333 219.5 52s110.666 82.334 144.999 143.001s51.5 130 51.5 208v1293z" />
    <glyph glyph-name="uni0056" unicode="V" horiz-adv-x="2106" 
d="M548 2048l495 -1556h19l496 1556h480l-706 -2048h-558l-707 2048h481z" />
    <glyph glyph-name="uni0057" unicode="W" horiz-adv-x="2917" 
d="M639 0l-586 2048h473l339 -1423h17l374 1423h405l373 -1426h18l339 1426h473l-586 -2048h-422l-390 1339h-16l-389 -1339h-422z" />
    <glyph glyph-name="uni0058" unicode="X" horiz-adv-x="2012" 
d="M584 2048l413 -698h16l415 698h489l-625 -1024l639 -1024h-498l-420 699h-16l-420 -699h-496l641 1024l-629 1024h491z" />
    <glyph glyph-name="uni0059" unicode="Y" horiz-adv-x="2040" 
d="M58 2048h485l467 -882h20l467 882h485l-747 -1324v-724h-430v724z" />
    <glyph glyph-name="uni005A" unicode="Z" horiz-adv-x="1878" 
d="M156 0v257l1022 1434h-1024v357h1568v-257l-1023 -1434h1025v-357h-1568z" />
    <glyph glyph-name="uni005B" unicode="[" horiz-adv-x="1152" 
d="M298 -445v2531h789v-318h-377v-1894h377v-319h-789z" />
    <glyph glyph-name="uni005C" unicode="\" horiz-adv-x="1098" 
d="M35 2144h367l660 -2452h-367z" />
    <glyph glyph-name="uni005D" unicode="]" horiz-adv-x="1152" 
d="M854 2086v-2531h-789v319h377v1894h-377v318h789z" />
    <glyph glyph-name="uni005E" unicode="^" horiz-adv-x="1373" 
d="M650 1826h72v-109h-72v109zM93 1120l421 883h344l422 -883h-322l-281 637h19l-279 -637h-324z" />
    <glyph glyph-name="uni005F" unicode="_" horiz-adv-x="1342" 
d="M1343 0v-323h-1345v323h1345z" />
    <glyph glyph-name="uni0060" unicode="`" horiz-adv-x="1400" 
d="M702 1734l-305 455h393l213 -455h-301z" />
    <glyph glyph-name="uni0061" unicode="a" horiz-adv-x="1634" 
d="M608 -29c-98 0 -185.332 17.168 -261.999 51.501s-137.167 85.333 -181.5 153s-66.5 152.167 -66.5 253.5c0 85.333 15.667 157 47 215s74 104.667 128 140s115.5 62 184.5 80s141.5 30.667 217.5 38c89.333 9.33301 161.333 18.166 216 26.499
s94.334 20.833 119.001 37.5s37 41.334 37 74.001v6c0 63.333 -19.833 112.333 -59.5 147s-95.834 52 -168.501 52c-76.667 0 -137.667 -16.833 -183 -50.5s-75.333 -75.834 -90 -126.501l-394 32c20 93.333 59.333 174.166 118 242.499s134.5 121 227.5 158
s200.833 55.5 323.5 55.5c85.333 0 167.166 -10 245.499 -30s148 -51 209 -93s109.167 -95.833 144.5 -161.5s53 -144.167 53 -235.5v-1036h-404v213h-12c-24.667 -48 -57.667 -90.167 -99 -126.5s-91 -64.666 -149 -84.999s-125 -30.5 -201 -30.5zM730.001 265.001
c62.667 0 118.002 12.5 166.002 37.5s85.667 58.833 113 101.5s41 91 41 145v163c-13.333 -8.66699 -31.5 -16.5 -54.5 -23.5s-48.833 -13.333 -77.5 -19s-57.334 -10.667 -86.001 -15l-78 -11.5c-50 -7.33301 -93.667 -19 -131 -35s-66.333 -37.5 -87 -64.5
s-31 -60.5 -31 -100.5c0 -58 21.167 -102.167 63.5 -132.5s96.166 -45.5 161.499 -45.5z" />
    <glyph glyph-name="uni0062" unicode="b" horiz-adv-x="1789" 
d="M178 0l-0.000976562 2048h426v-770h13c18.667 41.333 45.834 83.5 81.501 126.5s82.334 79 140.001 108s129.5 43.5 215.5 43.5c112 0 215.333 -29.167 310 -87.5s170.334 -146 227.001 -263s85 -263.5 85 -439.5c0 -171.333 -27.5 -315.833 -82.5 -433.5
s-129.667 -206.667 -224 -267s-199.833 -90.5 -316.5 -90.5c-82.667 0 -152.834 13.667 -210.501 41s-104.834 61.833 -141.501 103.5s-64.667 83.834 -84 126.501h-19v-246h-420zM594.999 767.999c0 -91.333 12.667 -170.999 38 -238.999s62 -120.833 110 -158.5
s106.333 -56.5 175 -56.5c69.333 0 128 19.167 176 57.5s84.5 91.666 109.5 159.999s37.5 147.166 37.5 236.499c0 88.667 -12.333 166.667 -37 234s-61 120 -109 158s-107 57 -177 57c-69.333 0 -127.833 -18.333 -175.5 -55s-84.167 -88.667 -109.5 -156
s-38 -146.666 -38 -237.999z" />
    <glyph glyph-name="uni0063" unicode="c" horiz-adv-x="1654" 
d="M864 -30c-157.333 0 -292.502 33.501 -405.502 100.501s-199.667 160.167 -260 279.5s-90.5 256.666 -90.5 411.999c0 157.333 30.5 295.5 91.5 414.5s147.833 212 260.5 279s246.667 100.5 402 100.5c134 0 251.333 -24.333 352 -73s180.334 -117 239.001 -205
s91 -191.333 97 -310h-402c-11.333 76.667 -41.166 138.5 -89.499 185.5s-111.5 70.5 -189.5 70.5c-66 0 -123.5 -17.833 -172.5 -53.5s-87.167 -87.5 -114.5 -155.5s-41 -150.333 -41 -247c0 -98 13.5 -181.333 40.5 -250s65.167 -121 114.5 -157s107 -54 173 -54
c48.667 0 92.5 10 131.5 30s71.333 49.167 97 87.5s42.5 84.5 50.5 138.5h402c-6.66699 -117.333 -38.5 -220.5 -95.5 -309.5s-135.5 -158.5 -235.5 -208.5s-218.333 -75 -355 -75z" />
    <glyph glyph-name="uni0064" unicode="d" horiz-adv-x="1789" 
d="M736 -25c-116.667 0 -222.168 30.168 -316.501 90.501s-169 149.333 -224 267s-82.5 262.167 -82.5 433.5c0 176 28.333 322.5 85 439.5s132.167 204.667 226.5 263s197.833 87.5 310.5 87.5c86 0 157.833 -14.5 215.5 -43.5s104.334 -65 140.001 -108
s62.834 -85.167 81.501 -126.5h13v770h425v-2048h-420v246h-18c-20 -42.667 -48.167 -84.834 -84.5 -126.501s-83.333 -76.167 -141 -103.5s-127.834 -41 -210.501 -41zM870.999 314.001c68.667 0 126.832 18.832 174.499 56.499s84.334 90.5 110.001 158.5
s38.5 147.667 38.5 239s-12.667 170.666 -38 237.999s-62 119.333 -110 156s-106.333 55 -175 55c-70 0 -129 -19 -177 -57s-84.333 -90.667 -109 -158s-37 -145.333 -37 -234c0 -89.333 12.5 -168.166 37.5 -236.499s61.333 -121.666 109 -159.999s106.5 -57.5 176.5 -57.5
z" />
    <glyph glyph-name="uni0065" unicode="e" horiz-adv-x="1683" 
d="M870 -30c-158 0 -293.834 32.1719 -407.501 96.5049s-201.167 155.666 -262.5 273.999s-92 258.5 -92 420.5c0 158 30.667 296.667 92 416s147.833 212.333 259.5 279s242.834 100 393.501 100c101.333 0 195.833 -16.167 283.5 -48.5s164.334 -80.833 230.001 -145.5
s116.834 -145.834 153.501 -243.501s55 -211.834 55 -342.501v-117h-1297v264h896c0 61.333 -13.333 115.666 -40 162.999s-63.5 84.5 -110.5 111.5s-101.5 40.5 -163.5 40.5c-64.667 0 -121.834 -14.833 -171.501 -44.5s-88.5 -69.334 -116.5 -119.001
s-42.333 -104.834 -43 -165.501v-251c0 -76 14.167 -141.667 42.5 -197s68.5 -98 120.5 -128s113.667 -45 185 -45c47.333 0 90.666 6.66699 129.999 20s73 33.333 101 60s49.333 59.334 64 98.001l394 -26c-20 -94.667 -60.833 -177.167 -122.5 -247.5s-141 -125 -238 -164
s-208.833 -58.5 -335.5 -58.5z" />
    <glyph glyph-name="uni0066" unicode="f" horiz-adv-x="1086" 
d="M996 1536v-320h-948v320h948zM265 0l0.000976562 1647c0 111.333 21.833 203.666 65.5 276.999s103.5 128.333 179.5 164.999c76 36.667 162.333 55 259 55c65.333 0 125.166 -5 179.499 -15s94.833 -19 121.5 -27l-76 -320c-16.667 5.33301 -37.167 10.333 -61.5 15
s-49.166 7 -74.499 7c-62.667 0 -106.334 -14.5 -131.001 -43.5s-37 -69.5 -37 -121.5v-1639h-425z" />
    <glyph glyph-name="uni0067" unicode="g" horiz-adv-x="1783" 
d="M862 -598c-138 0 -256.168 18.6689 -354.501 56.002s-176.5 87.666 -234.5 150.999s-95.667 133.666 -113 210.999l394 53c12 -28 31 -54.5 57 -79.5s60.5 -45.5 103.5 -61.5s95.5 -24 157.5 -24c92.667 0 169.167 22 229.5 66s90.5 116.333 90.5 217v281h-18
c-18.667 -42.667 -46.667 -83 -84 -121s-85.333 -69 -144 -93s-128.667 -36 -210 -36c-115.333 0 -220.166 26.833 -314.499 80.5s-169.333 136 -225 247s-83.5 251.5 -83.5 421.5c0 174 28.333 319.333 85 436s132.167 204 226.5 262s197.833 87 310.5 87
c86 0 158 -14.5 216 -43.5s104.833 -65 140.5 -108s63.167 -85.167 82.5 -126.5h16v258h423v-1551c0 -128 -32 -235.167 -96 -321.5s-152.5 -151.5 -265.5 -195.5s-242.833 -66 -389.5 -66zM870.999 342.002c68.667 0 126.832 17.1689 174.499 51.502
s84.334 83.666 110.001 147.999s38.5 141.5 38.5 231.5s-12.667 168.167 -38 234.5s-62 117.833 -110 154.5s-106.333 55 -175 55c-70 0 -129 -18.833 -177 -56.5s-84.333 -89.834 -109 -156.501s-37 -143.667 -37 -231c0 -88.667 12.5 -165.167 37.5 -229.5
s61.333 -114 109 -149s106.5 -52.5 176.5 -52.5z" />
    <glyph glyph-name="uni0068" unicode="h" horiz-adv-x="1758" 
d="M596 888l-0.000976562 -888.003h-426v2048h414v-783h18c34.667 90.667 90.667 161.834 168 213.501s174.333 77.5 291 77.5c106.667 0 199.834 -23.167 279.501 -69.5s141.667 -112.666 186 -198.999s66.166 -189.5 65.499 -309.5v-978h-426v902
c0.666992 94.667 -23.166 168.334 -71.499 221.001s-115.833 79 -202.5 79c-58 0 -109.167 -12.333 -153.5 -37s-79 -60.5 -104 -107.5s-37.833 -103.5 -38.5 -169.5z" />
    <glyph glyph-name="uni0069" unicode="i" horiz-adv-x="766" 
d="M170 0v1536h426v-1536h-426zM385 1734c-63.333 0 -117.667 21.167 -163 63.5s-68 93.166 -68 152.499c0 58.667 22.667 109.167 68 151.5s99.333 63.5 162 63.5c64 0 118.5 -21.167 163.5 -63.5s67.5 -92.833 67.5 -151.5c0 -59.333 -22.5 -110.166 -67.5 -152.499
s-99.167 -63.5 -162.5 -63.5z" />
    <glyph glyph-name="uni006A" unicode="j" horiz-adv-x="766" 
d="M170 1536l426.001 0.000976562v-1607c0 -118.667 -23.5 -215.334 -70.5 -290.001s-114.333 -129.167 -202 -163.5s-193.167 -49.833 -316.5 -46.5h-35.5c-12.333 0 -26.833 0.666992 -43.5 2v333c11.333 -0.666992 21.166 -1.16699 29.499 -1.5s17.166 -0.5 26.499 -0.5
c68.667 0 116.834 14.5 144.501 43.5s41.5 72.5 41.5 130.5v1600zM383.001 1734c-63.333 0 -117.667 21.166 -163 63.499s-68 93.166 -68 152.499c0 58.667 22.667 109.167 68 151.501c45.333 42.333 99.333 63.5 162 63.5c64 0 118.5 -21.167 163.5 -63.5
s67.5 -92.833 67.5 -151.5c0 -59.333 -22.5 -110.166 -67.5 -152.499s-99.167 -63.5 -162.5 -63.5z" />
    <glyph glyph-name="uni006B" unicode="k" horiz-adv-x="1638" 
d="M556 442l1 511h62l492 583h489l-661 -772h-101zM170 0v2048h426v-2048h-426zM1130 0l-452 669l284 301l667 -970h-499z" />
    <glyph glyph-name="uni006C" unicode="l" horiz-adv-x="766" 
d="M596 2048v-2048h-426v2048h426z" />
    <glyph glyph-name="uni006D" unicode="m" horiz-adv-x="2568" 
d="M170 0v1536h406v-271h18c32 90 85.333 161 160 213s164 78 268 78c105.333 0 195 -26.167 269 -78.5s123.333 -123.166 148 -212.499h16c31.333 88 88.166 158.5 170.499 211.5s179.833 79.5 292.5 79.5c143.333 0 259.833 -45.5 349.5 -136.5
s134.5 -219.833 134.5 -386.5v-1033h-425v949c0 85.333 -22.667 149.333 -68 192s-102 64 -170 64c-77.333 0 -137.666 -24.5 -180.999 -73.5s-65 -113.5 -65 -193.5v-938h-413v958c0 75.333 -21.5 135.333 -64.5 180s-99.5 67 -169.5 67
c-47.333 0 -89.833 -11.833 -127.5 -35.5s-67.5 -56.667 -89.5 -99s-33 -91.833 -33 -148.5v-922h-426z" />
    <glyph glyph-name="uni006E" unicode="n" horiz-adv-x="1751" 
d="M596 888v-888h-426v1536h406v-271h18c34 89.333 91 160.166 171 212.499s177 78.5 291 78.5c106.667 0 199.667 -23.333 279 -70s141 -113.167 185 -199.5s66 -189.166 66 -308.499v-978h-426v902c0.666992 94 -23.333 167.5 -72 220.5s-115.667 79.5 -201 79.5
c-57.333 0 -107.833 -12.333 -151.5 -37s-77.667 -60.5 -102 -107.5s-36.833 -103.5 -37.5 -169.5z" />
    <glyph glyph-name="uni006F" unicode="o" horiz-adv-x="1728" 
d="M864 -30c-155.333 0 -289.5 33.167 -402.5 99.5s-200.167 159 -261.5 278s-92 257.167 -92 414.5c0 158.667 30.667 297.5 92 416.5s148.5 211.667 261.5 278s247.167 99.5 402.5 99.5s289.5 -33.167 402.5 -99.5s200.167 -159 261.5 -278s92 -257.833 92 -416.5
c0 -157.333 -30.667 -295.5 -92 -414.5s-148.5 -211.667 -261.5 -278s-247.167 -99.5 -402.5 -99.5zM866 300c70.667 0 129.667 20.167 177 60.5s83.166 95.5 107.499 165.5s36.5 149.667 36.5 239s-12.167 169 -36.5 239s-60.166 125.333 -107.499 166s-106.333 61 -177 61
c-71.333 0 -131.166 -20.333 -179.499 -61s-84.666 -96 -108.999 -166s-36.5 -149.667 -36.5 -239s12.167 -169 36.5 -239s60.666 -125.167 108.999 -165.5s108.166 -60.5 179.499 -60.5z" />
    <glyph glyph-name="uni0070" unicode="p" horiz-adv-x="1781" 
d="M170 -576l-0.000976562 2112h420v-258h19c18.667 41.333 45.834 83.5 81.501 126.5s82.334 79 140.001 108s129.5 43.5 215.5 43.5c112 0 215.333 -29.167 310 -87.5s170.334 -146 227.001 -263s85 -263.5 85 -439.5c0 -171.333 -27.5 -315.833 -82.5 -433.5
s-129.667 -206.667 -224 -267s-199.833 -90.5 -316.5 -90.5c-82.667 0 -152.834 13.667 -210.501 41s-104.834 61.833 -141.501 103.5s-64.667 83.834 -84 126.501h-13v-822h-426zM586.999 767.999c0 -91.333 12.667 -170.999 38 -238.999s62 -120.833 110 -158.5
s106.333 -56.5 175 -56.5c69.333 0 128 19.167 176 57.5s84.5 91.666 109.5 159.999s37.5 147.166 37.5 236.499c0 88.667 -12.333 166.667 -37 234s-61 120 -109 158s-107 57 -177 57c-69.333 0 -127.833 -18.333 -175.5 -55s-84.167 -88.667 -109.5 -156
s-38 -146.666 -38 -237.999z" />
    <glyph glyph-name="uni0071" unicode="q" horiz-adv-x="1781" 
d="M1610 -576l-425.001 0.000976562v822h-13c-20 -42.667 -48.167 -84.834 -84.5 -126.501s-83.333 -76.167 -141 -103.5s-127.834 -41 -210.501 -41c-116.667 0 -222.167 30.167 -316.5 90.5s-169 149.333 -224 267s-82.5 262.167 -82.5 433.5c0 176 28.333 322.5 85 439.5
s132.167 204.667 226.5 263s197.833 87.5 310.5 87.5c86 0 157.833 -14.5 215.5 -43.5s104.334 -65 140.001 -108s62.834 -85.167 81.501 -126.5h18v258h420v-2112zM1194 768.001c0 91.333 -12.6689 170.665 -38.002 237.998s-62 119.333 -110 156s-106.333 55 -175 55
c-70 0 -129 -19 -177 -57s-84.333 -90.667 -109 -158s-37 -145.333 -37 -234c0 -89.333 12.5 -168.166 37.5 -236.499s61.333 -121.666 109 -159.999s106.5 -57.5 176.5 -57.5c68.667 0 126.834 18.833 174.501 56.5s84.334 90.5 110.001 158.5s38.5 147.667 38.5 239z" />
    <glyph glyph-name="uni0072" unicode="r" horiz-adv-x="1151" 
d="M170 0l-0.00195312 1536h413v-268h16c28 95.333 75 167.5 141 216.5s142 73.5 228 73.5c21.333 0 44.333 -1.33301 69 -4s46.334 -6.33398 65.001 -11.001v-378c-20 6 -47.667 11.333 -83 16s-67.666 7 -96.999 7c-62.667 0 -118.5 -13.5 -167.5 -40.5
s-87.667 -64.5 -116 -112.5s-42.5 -103.333 -42.5 -166v-869h-426z" />
    <glyph glyph-name="uni0073" unicode="s" horiz-adv-x="1582" 
d="M1448 1098l-390.005 -24.001c-6.66699 33.333 -21 63.5 -43 90.5s-50.833 48.667 -86.5 65s-78.167 24.5 -127.5 24.5c-66 0 -121.667 -13.833 -167 -41.5s-68 -64.5 -68 -110.5c0 -36.667 14.667 -67.667 44 -93s79.666 -45.666 150.999 -60.999l278 -56
c149.333 -30.667 260.666 -80 333.999 -148s110 -157.333 110 -268c0 -100.667 -29.5 -189 -88.5 -265s-139.667 -135.167 -242 -177.5s-220.166 -63.5 -353.499 -63.5c-203.333 0 -365.166 42.5 -485.499 127.5s-190.833 200.833 -211.5 347.5l419 22
c12.667 -62 43.334 -109.167 92.001 -141.5s111 -48.5 187 -48.5c74.667 0 134.834 14.5 180.501 43.5s68.834 66.5 69.501 112.5c-0.666992 38.667 -17 70.5 -49 95.5s-81.333 44.167 -148 57.5l-266 53c-150 30 -261.5 82 -334.5 156s-109.5 168.333 -109.5 283
c0 98.667 26.833 183.667 80.5 255s129.334 126.333 227.001 165s212.167 58 343.5 58c194 0 346.833 -41 458.5 -123s176.834 -193.667 195.501 -335z" />
    <glyph glyph-name="uni0074" unicode="t" horiz-adv-x="1094" 
d="M987 1536v-320h-925v320h925zM272 1904l425.999 0.000976562v-1432c0 -39.333 6 -69.833 18 -91.5s28.833 -36.834 50.5 -45.501s46.834 -13 75.501 -13c20 0 40 1.83301 60 5.5l46 8.5l67 -317c-21.333 -6.66699 -51.333 -14.5 -90 -23.5s-85.667 -14.5 -141 -16.5
c-102.667 -4 -192.5 9.66699 -269.5 41s-136.833 80 -179.5 146s-63.667 149.333 -63 250v1488z" />
    <glyph glyph-name="uni0075" unicode="u" horiz-adv-x="1751" 
d="M1155 654l-0.000976562 881.999h426v-1536h-409v279h-16c-34.667 -90 -92.167 -162.333 -172.5 -217s-178.166 -82 -293.499 -82c-102.667 0 -193 23.333 -271 70s-138.833 113 -182.5 199s-65.834 189 -66.501 309v978h426v-902
c0.666992 -90.667 25 -162.334 73 -215.001s112.333 -79 193 -79c51.333 0 99.333 11.833 144 35.5s80.834 58.834 108.501 105.501s41.167 104.334 40.5 173.001z" />
    <glyph glyph-name="uni0076" unicode="v" horiz-adv-x="1650" 
d="M1602 1536l-537 -1536h-480l-537 1536h450l319 -1099h16l318 1099h451z" />
    <glyph glyph-name="uni0077" unicode="w" horiz-adv-x="2394" 
d="M473 0l-418 1536h431l238 -1032h14l248 1032h423l252 -1026h13l234 1026h430l-417 -1536h-451l-264 966h-19l-264 -966h-450z" />
    <glyph glyph-name="uni0078" unicode="x" horiz-adv-x="1616" 
d="M526 1536l282 -537l289 537h437l-445 -768l457 -768h-435l-303 531l-298 -531h-440l456 768l-440 768h440z" />
    <glyph glyph-name="uni0079" unicode="y" horiz-adv-x="1650" 
d="M433 -573c-54 0 -104.5 4.16699 -151.5 12.5s-85.833 18.5 -116.5 30.5l96 319c75.333 -23.333 138.833 -29.5 190.5 -18.5s92.5 51.167 122.5 120.5l25 65l-551 1580h448l318 -1128h16l321 1128l451 -2l-597 -1700c-28.667 -82 -67.5 -153.5 -116.5 -214.5
s-110.833 -108.333 -185.5 -142s-164.667 -50.5 -270 -50.5z" />
    <glyph glyph-name="uni007A" unicode="z" horiz-adv-x="1610" 
d="M162 0v254l752 931v11h-726v340h1239v-277l-706 -908v-11h732v-340h-1291z" />
    <glyph glyph-name="uni007B" unicode="{" horiz-adv-x="1152" 
d="M87 812l-0.000976562 201.001c115.333 0 195.333 23 240 69s67 120.333 67 223v221c0 123.333 17.167 222.166 51.5 296.499s82.333 130.5 144 168.5s134.834 63.333 219.501 76s177.334 19 278.001 19v-318c-78.667 0 -138.5 -10.167 -179.5 -30.5
s-68.833 -51.666 -83.5 -93.999s-22 -95.833 -22 -160.5v-292c0 -50.667 -9.33301 -98.834 -28 -144.501s-53.334 -86 -104.001 -121s-123 -62.667 -217 -83s-216 -30.5 -366 -30.5zM1087 -444.999c-100.667 0 -193.333 6.33301 -278 19s-157.834 38 -219.501 76
s-109.667 94.167 -144 168.5s-51.5 173.166 -51.5 296.499v222c0 102.667 -22.333 177 -67 223s-124.667 69 -240 69v201c150 0 272 -10.167 366 -30.5s166.333 -48 217 -83s85.334 -75.333 104.001 -121s28 -94.167 28 -145.5v-292c0 -64 7.33301 -117.167 22 -159.5
s42.5 -73.666 83.5 -93.999s100.833 -30.5 179.5 -30.5v-319zM87 629.001v384h359v-384h-359z" />
    <glyph glyph-name="uni007C" unicode="|" horiz-adv-x="1052" 
d="M728 2708v-3368h-404v3368h404z" />
    </font>
</defs>
</svg>
